STARTFONT 2.1
COMMENT
COMMENT Shinonome 14dot font for JISX 0208, 1983/1990, Mincho Style
COMMENT
COMMENT The original is k14-screen.bdf (modified k14 to add screening
COMMENT processing) by
COMMENT   Yasuyuki Furukawa <Furukawa.Yasuyuki@fujixerox.co.jp>, 2000.
COMMENT   (Public Domain)
COMMENT
COMMENT > Donated by H. Kagotani <kagotani@cs.titech.ac.jp>; public domain
COMMENT > font from Japan
COMMENT > Modified by TAKADA Toshihiro <takada@seraph.ntt.jp>
COMMENT > 	changed to JIS X 0208-1990
COMMENT
COMMENT Modified and Maintained by /efont/.
COMMENT
COMMENT (c) /efont/ -- Efont Open Laboratory 2001
COMMENT http://openlab.ring.gr.jp/efont/
COMMENT
FONT -Shinonome-Mincho-Bold-I-Normal--14-130-75-75-C-140-JISX0208.1990-0
SIZE 14 75 75
FONTBOUNDINGBOX 18 14 -2 -2
STARTPROPERTIES 20
FONTNAME_REGISTRY ""
FOUNDRY "Shinonome"
FAMILY_NAME "Mincho"
WEIGHT_NAME "Bold"
SLANT "I"
SETWIDTH_NAME "Normal"
ADD_STYLE_NAME ""
PIXEL_SIZE 14
POINT_SIZE 130
RESOLUTION_X 75
RESOLUTION_Y 75
SPACING "C"
AVERAGE_WIDTH 140
CHARSET_REGISTRY "JISX0208.1990"
CHARSET_ENCODING "0"
DEFAULT_CHAR 8481
FONT_DESCENT 2
FONT_ASCENT 12
COPYRIGHT "Public domain font.  Share and enjoy."
_XMBDFED_INFO "Edited with xmbdfed 4.4."
ENDPROPERTIES
CHARS 6879
STARTCHAR 2121
ENCODING 8481
SWIDTH 960 0
DWIDTH 14 0
BBX 18 14 -2 -2
BITMAP
000000
000000
000000
000000
000000
000000
000000
000000
000000
000000
000000
000000
000000
000000
ENDCHAR
STARTCHAR 2122
ENCODING 8482
SWIDTH 960 0
DWIDTH 14 0
BBX 18 14 -2 -2
BITMAP
000000
000000
000000
000000
000000
000000
000000
000000
000000
000000
600000
380000
380000
180000
ENDCHAR
STARTCHAR 2123
ENCODING 8483
SWIDTH 960 0
DWIDTH 14 0
BBX 18 14 -2 -2
BITMAP
000000
000000
000000
000000
000000
000000
000000
000000
000000
000000
300000
680000
680000
300000
ENDCHAR
STARTCHAR 2124
ENCODING 8484
SWIDTH 960 0
DWIDTH 14 0
BBX 18 14 -2 -2
BITMAP
000000
000000
000000
000000
000000
000000
000000
000000
000000
000000
700000
700000
600000
c00000
ENDCHAR
STARTCHAR 2125
ENCODING 8485
SWIDTH 960 0
DWIDTH 14 0
BBX 18 14 -2 -2
BITMAP
000000
000000
000000
000000
000000
000000
000000
000000
000000
000000
000000
700000
e00000
000000
ENDCHAR
STARTCHAR 2126
ENCODING 8486
SWIDTH 960 0
DWIDTH 14 0
BBX 18 14 -2 -2
BITMAP
000000
000000
000000
000000
000000
000000
00c000
01e000
00c000
000000
000000
000000
000000
000000
ENDCHAR
STARTCHAR 2127
ENCODING 8487
SWIDTH 960 0
DWIDTH 14 0
BBX 18 14 -2 -2
BITMAP
000000
000000
000000
00e000
00e000
000000
000000
000000
01c000
038000
000000
000000
000000
000000
ENDCHAR
STARTCHAR 2128
ENCODING 8488
SWIDTH 960 0
DWIDTH 14 0
BBX 18 14 -2 -2
BITMAP
000000
000000
000000
00e000
00e000
000000
000000
000000
01c000
038000
018000
030000
000000
000000
ENDCHAR
STARTCHAR 2129
ENCODING 8489
SWIDTH 960 0
DWIDTH 14 0
BBX 18 14 -2 -2
BITMAP
000000
00f800
018c00
030c00
060c00
061800
003000
006000
00c000
018000
018000
000000
070000
070000
ENDCHAR
STARTCHAR 212a
ENCODING 8490
SWIDTH 960 0
DWIDTH 14 0
BBX 18 14 -2 -2
BITMAP
003000
003800
003800
007000
007000
006000
00c000
00c000
00c000
018000
000000
018000
078000
030000
ENDCHAR
STARTCHAR 212b
ENCODING 8491
SWIDTH 960 0
DWIDTH 14 0
BBX 18 14 -2 -2
BITMAP
030000
0d8000
060000
000000
000000
000000
000000
000000
000000
000000
000000
000000
000000
000000
ENDCHAR
STARTCHAR 212c
ENCODING 8492
SWIDTH 960 0
DWIDTH 14 0
BBX 18 14 -2 -2
BITMAP
070000
0d8000
0d0000
0e0000
000000
000000
000000
000000
000000
000000
000000
000000
000000
000000
ENDCHAR
STARTCHAR 212d
ENCODING 8493
SWIDTH 960 0
DWIDTH 14 0
BBX 18 14 -2 -2
BITMAP
003800
007000
00c000
000000
000000
000000
000000
000000
000000
000000
000000
000000
000000
000000
ENDCHAR
STARTCHAR 212e
ENCODING 8494
SWIDTH 960 0
DWIDTH 14 0
BBX 18 14 -2 -2
BITMAP
00e000
007000
001800
000000
000000
000000
000000
000000
000000
000000
000000
000000
000000
000000
ENDCHAR
STARTCHAR 212f
ENCODING 8495
SWIDTH 960 0
DWIDTH 14 0
BBX 18 14 -2 -2
BITMAP
01ce00
01ce00
000000
000000
000000
000000
000000
000000
000000
000000
000000
000000
000000
000000
ENDCHAR
STARTCHAR 2130
ENCODING 8496
SWIDTH 960 0
DWIDTH 14 0
BBX 18 14 -2 -2
BITMAP
003000
006800
01cc00
030c00
000000
000000
000000
000000
000000
000000
000000
000000
000000
000000
ENDCHAR
STARTCHAR 2131
ENCODING 8497
SWIDTH 960 0
DWIDTH 14 0
BBX 18 14 -2 -2
BITMAP
1fffc0
000000
000000
000000
000000
000000
000000
000000
000000
000000
000000
000000
000000
000000
ENDCHAR
STARTCHAR 2132
ENCODING 8498
SWIDTH 960 0
DWIDTH 14 0
BBX 18 14 -2 -2
BITMAP
000000
000000
000000
000000
000000
000000
000000
000000
000000
000000
000000
000000
000000
fffc00
ENDCHAR
STARTCHAR 2133
ENCODING 8499
SWIDTH 960 0
DWIDTH 14 0
BBX 18 14 -2 -2
BITMAP
000000
000000
000000
000000
038000
00c000
006000
003000
001800
000000
000000
000000
000000
000000
ENDCHAR
STARTCHAR 2134
ENCODING 8500
SWIDTH 960 0
DWIDTH 14 0
BBX 18 14 -2 -2
BITMAP
000000
000000
000600
003600
039800
00c000
006000
003000
001800
000000
000000
000000
000000
000000
ENDCHAR
STARTCHAR 2135
ENCODING 8501
SWIDTH 960 0
DWIDTH 14 0
BBX 18 14 -2 -2
BITMAP
000000
000000
000000
000000
038000
00c000
006000
007000
00c000
000000
000000
000000
000000
000000
ENDCHAR
STARTCHAR 2136
ENCODING 8502
SWIDTH 960 0
DWIDTH 14 0
BBX 18 14 -2 -2
BITMAP
000000
000000
000600
003600
039800
00c000
006000
007000
00c000
000000
000000
000000
000000
000000
ENDCHAR
STARTCHAR 2137
ENCODING 8503
SWIDTH 960 0
DWIDTH 14 0
BBX 18 14 -2 -2
BITMAP
000000
000000
000000
000000
019800
031800
033000
066000
0ce000
198000
000000
000000
000000
000000
ENDCHAR
STARTCHAR 2138
ENCODING 8504
SWIDTH 960 0
DWIDTH 14 0
BBX 18 14 -2 -2
BITMAP
003000
003000
006800
01d800
030c00
0e0600
380300
07f800
00c000
018000
018000
018000
fffc00
000000
ENDCHAR
STARTCHAR 2139
ENCODING 8505
SWIDTH 960 0
DWIDTH 14 0
BBX 18 14 -2 -2
BITMAP
000000
000000
000000
000000
00c000
018000
01fc00
031800
063800
0c6000
1b4000
01c000
00c000
006000
ENDCHAR
STARTCHAR 213a
ENCODING 8506
SWIDTH 960 0
DWIDTH 14 0
BBX 18 14 -2 -2
BITMAP
000000
000000
000300
000600
000c00
01d800
036000
06c000
0da000
1a0000
1c0000
300000
600000
000000
ENDCHAR
STARTCHAR 213b
ENCODING 8507
SWIDTH 960 0
DWIDTH 14 0
BBX 18 14 -2 -2
BITMAP
000000
00fc00
038600
060300
0c0300
180300
300300
300300
300600
300600
300c00
301800
187000
0fc000
ENDCHAR
STARTCHAR 213c
ENCODING 8508
SWIDTH 960 0
DWIDTH 14 0
BBX 18 14 -2 -2
BITMAP
000000
000000
000000
000000
000000
000000
307e00
1fc000
000000
000000
000000
000000
000000
000000
ENDCHAR
STARTCHAR 213d
ENCODING 8509
SWIDTH 960 0
DWIDTH 14 0
BBX 18 14 -2 -2
BITMAP
000000
000000
000000
000000
000000
000000
7fff00
000000
000000
000000
000000
000000
000000
000000
ENDCHAR
STARTCHAR 213e
ENCODING 8510
SWIDTH 960 0
DWIDTH 14 0
BBX 18 14 -2 -2
BITMAP
000000
000000
000000
000000
000000
000000
03f000
000000
000000
000000
000000
000000
000000
000000
ENDCHAR
STARTCHAR 213f
ENCODING 8511
SWIDTH 960 0
DWIDTH 14 0
BBX 18 14 -2 -2
BITMAP
0000c0
000180
000700
000c00
001800
007000
00c000
018000
070000
0c0000
180000
700000
c00000
800000
ENDCHAR
STARTCHAR 2140
ENCODING 8512
SWIDTH 960 0
DWIDTH 14 0
BBX 18 14 -2 -2
BITMAP
180000
0c0000
060000
060000
030000
018000
018000
00c000
006000
006000
003000
001800
001800
000c00
ENDCHAR
STARTCHAR 2141
ENCODING 8513
SWIDTH 960 0
DWIDTH 14 0
BBX 18 14 -2 -2
BITMAP
000000
000000
000000
000000
000000
0f0000
198600
30cc00
007800
000000
000000
000000
000000
000000
ENDCHAR
STARTCHAR 2142
ENCODING 8514
SWIDTH 960 0
DWIDTH 14 0
BBX 18 14 -2 -2
BITMAP
00d800
00d800
00d800
01b000
01b000
01b000
036000
036000
036000
06c000
06c000
06c000
0d8000
0d8000
ENDCHAR
STARTCHAR 2143
ENCODING 8515
SWIDTH 960 0
DWIDTH 14 0
BBX 18 14 -2 -2
BITMAP
003000
003000
003000
006000
006000
006000
00c000
00c000
00c000
018000
018000
018000
030000
030000
ENDCHAR
STARTCHAR 2144
ENCODING 8516
SWIDTH 960 0
DWIDTH 14 0
BBX 18 14 -2 -2
BITMAP
000000
000000
000000
000000
000000
000000
1ddc00
1ddc00
000000
000000
000000
000000
000000
000000
ENDCHAR
STARTCHAR 2145
ENCODING 8517
SWIDTH 960 0
DWIDTH 14 0
BBX 18 14 -2 -2
BITMAP
000000
000000
000000
000000
000000
000000
0e3800
0e3800
000000
000000
000000
000000
000000
000000
ENDCHAR
STARTCHAR 2146
ENCODING 8518
SWIDTH 960 0
DWIDTH 14 0
BBX 18 14 -2 -2
BITMAP
000380
000600
000700
000f00
000600
000000
000000
000000
000000
000000
000000
000000
000000
000000
ENDCHAR
STARTCHAR 2147
ENCODING 8519
SWIDTH 960 0
DWIDTH 14 0
BBX 18 14 -2 -2
BITMAP
060000
0f0000
070000
060000
1c0000
000000
000000
000000
000000
000000
000000
000000
000000
000000
ENDCHAR
STARTCHAR 2148
ENCODING 8520
SWIDTH 960 0
DWIDTH 14 0
BBX 18 14 -2 -2
BITMAP
003b80
006600
007700
00f700
006600
000000
000000
000000
000000
000000
000000
000000
000000
000000
ENDCHAR
STARTCHAR 2149
ENCODING 8521
SWIDTH 960 0
DWIDTH 14 0
BBX 18 14 -2 -2
BITMAP
066000
0f7000
077000
066000
1dc000
000000
000000
000000
000000
000000
000000
000000
000000
000000
ENDCHAR
STARTCHAR 214a
ENCODING 8522
SWIDTH 960 0
DWIDTH 14 0
BBX 18 14 -2 -2
BITMAP
000180
000300
000600
000c00
001800
003000
006000
006000
006000
006000
006000
003000
003000
001800
ENDCHAR
STARTCHAR 214b
ENCODING 8523
SWIDTH 960 0
DWIDTH 14 0
BBX 18 14 -2 -2
BITMAP
0c0000
060000
030000
030000
030000
030000
030000
030000
060000
060000
0c0000
380000
600000
c00000
ENDCHAR
STARTCHAR 214c
ENCODING 8524
SWIDTH 960 0
DWIDTH 14 0
BBX 18 14 -2 -2
BITMAP
000180
000300
000600
000c00
001800
001800
003000
003000
003000
006000
006000
003000
003000
001800
ENDCHAR
STARTCHAR 214d
ENCODING 8525
SWIDTH 960 0
DWIDTH 14 0
BBX 18 14 -2 -2
BITMAP
0c0000
060000
030000
030000
030000
030000
060000
060000
060000
0c0000
0c0000
180000
700000
c00000
ENDCHAR
STARTCHAR 214e
ENCODING 8526
SWIDTH 960 0
DWIDTH 14 0
BBX 18 14 -2 -2
BITMAP
001f80
001c00
001c00
003800
003800
003800
007000
007000
007000
00e000
00e000
00e000
01c000
01f800
ENDCHAR
STARTCHAR 214f
ENCODING 8527
SWIDTH 960 0
DWIDTH 14 0
BBX 18 14 -2 -2
BITMAP
0fc000
01c000
01c000
038000
038000
038000
070000
070000
070000
0e0000
0e0000
0e0000
1c0000
fc0000
ENDCHAR
STARTCHAR 2150
ENCODING 8528
SWIDTH 960 0
DWIDTH 14 0
BBX 18 14 -2 -2
BITMAP
000380
000600
000c00
001800
001800
003000
00e000
003000
003000
006000
006000
006000
006000
003800
ENDCHAR
STARTCHAR 2151
ENCODING 8529
SWIDTH 960 0
DWIDTH 14 0
BBX 18 14 -2 -2
BITMAP
0e0000
030000
030000
030000
030000
030000
038000
060000
060000
0c0000
0c0000
180000
300000
e00000
ENDCHAR
STARTCHAR 2152
ENCODING 8530
SWIDTH 960 0
DWIDTH 14 0
BBX 18 14 -2 -2
BITMAP
000180
000300
000e00
001800
003000
006000
00c000
018000
00c000
00c000
006000
003000
003000
001800
ENDCHAR
STARTCHAR 2153
ENCODING 8531
SWIDTH 960 0
DWIDTH 14 0
BBX 18 14 -2 -2
BITMAP
0c0000
060000
030000
030000
018000
00c000
00c000
00c000
018000
070000
0c0000
380000
600000
c00000
ENDCHAR
STARTCHAR 2154
ENCODING 8532
SWIDTH 960 0
DWIDTH 14 0
BBX 18 14 -2 -2
BITMAP
000d80
000d80
001a00
003600
006c00
00cc00
00d800
01b000
019800
019800
00d800
00d800
00d800
00d800
ENDCHAR
STARTCHAR 2155
ENCODING 8533
SWIDTH 960 0
DWIDTH 14 0
BBX 18 14 -2 -2
BITMAP
0d8000
0d8000
0cc000
0cc000
06c000
06c000
06c000
06c000
0d0000
1b0000
360000
660000
6c0000
d80000
ENDCHAR
STARTCHAR 2156
ENCODING 8534
SWIDTH 960 0
DWIDTH 14 0
BBX 18 14 -2 -2
BITMAP
003f80
003000
003000
006000
006000
006000
00c000
00c000
00c000
018000
018000
018000
030000
030000
ENDCHAR
STARTCHAR 2157
ENCODING 8535
SWIDTH 960 0
DWIDTH 14 0
BBX 18 14 -2 -2
BITMAP
006000
006000
006000
00c000
00c000
00c000
018000
018000
018000
030000
030000
030000
060000
fe0000
ENDCHAR
STARTCHAR 2158
ENCODING 8536
SWIDTH 960 0
DWIDTH 14 0
BBX 18 14 -2 -2
BITMAP
007f80
006180
006f80
00d000
00d000
00d000
01a000
01a000
01a000
034000
034000
034000
068000
078000
ENDCHAR
STARTCHAR 2159
ENCODING 8537
SWIDTH 960 0
DWIDTH 14 0
BBX 18 14 -2 -2
BITMAP
00f000
00d000
00d000
01a000
01a000
01a000
034000
034000
034000
068000
068000
7e8000
c30000
ff0000
ENDCHAR
STARTCHAR 215a
ENCODING 8538
SWIDTH 960 0
DWIDTH 14 0
BBX 18 14 -2 -2
BITMAP
001f80
001f00
001e00
003c00
003800
003800
007000
007000
007000
00e000
00f000
00f000
01f000
01f800
ENDCHAR
STARTCHAR 215b
ENCODING 8539
SWIDTH 960 0
DWIDTH 14 0
BBX 18 14 -2 -2
BITMAP
0fc000
07c000
03c000
078000
038000
038000
070000
070000
070000
0e0000
1e0000
1e0000
7c0000
fc0000
ENDCHAR
STARTCHAR 215c
ENCODING 8540
SWIDTH 960 0
DWIDTH 14 0
BBX 18 14 -2 -2
BITMAP
000000
003000
003000
006000
006000
006000
1ffe00
00c000
00c000
018000
018000
018000
030000
000000
ENDCHAR
STARTCHAR 215d
ENCODING 8541
SWIDTH 960 0
DWIDTH 14 0
BBX 18 14 -2 -2
BITMAP
000000
000000
000000
000000
000000
000000
1ffe00
000000
000000
000000
000000
000000
000000
000000
ENDCHAR
STARTCHAR 215e
ENCODING 8542
SWIDTH 960 0
DWIDTH 14 0
BBX 18 14 -2 -2
BITMAP
000000
003000
003000
006000
006000
0fff00
00c000
00c000
00c000
018000
000000
3ffc00
000000
000000
ENDCHAR
STARTCHAR 215f
ENCODING 8543
SWIDTH 960 0
DWIDTH 14 0
BBX 18 14 -2 -2
BITMAP
000000
060180
030700
030c00
019800
00f000
00c000
01a000
073000
0c3000
181800
300c00
000000
000000
ENDCHAR
STARTCHAR 2160
ENCODING 8544
SWIDTH 960 0
DWIDTH 14 0
BBX 18 14 -2 -2
BITMAP
000000
003000
007800
006000
000000
000000
1ffe00
000000
000000
018000
03c000
018000
000000
000000
ENDCHAR
STARTCHAR 2161
ENCODING 8545
SWIDTH 960 0
DWIDTH 14 0
BBX 18 14 -2 -2
BITMAP
000000
000000
000000
000000
0fff00
000000
000000
000000
1ffe00
000000
000000
000000
000000
000000
ENDCHAR
STARTCHAR 2162
ENCODING 8546
SWIDTH 960 0
DWIDTH 14 0
BBX 18 14 -2 -2
BITMAP
000000
001800
001800
003000
0fff00
006000
00c000
00c000
1ffe00
030000
030000
030000
000000
000000
ENDCHAR
STARTCHAR 2163
ENCODING 8547
SWIDTH 960 0
DWIDTH 14 0
BBX 18 14 -2 -2
BITMAP
000300
000e00
003800
00e000
018000
0f0000
180000
0e0000
030000
018000
00c000
006000
003000
000000
ENDCHAR
STARTCHAR 2164
ENCODING 8548
SWIDTH 960 0
DWIDTH 14 0
BBX 18 14 -2 -2
BITMAP
060000
038000
00c000
006000
003000
001800
000c00
003800
00e000
038000
060000
3c0000
600000
000000
ENDCHAR
STARTCHAR 2165
ENCODING 8549
SWIDTH 960 0
DWIDTH 14 0
BBX 18 14 -2 -2
BITMAP
000700
001c00
00f000
038000
0e0000
038000
00c000
007000
001c00
000000
3ffc00
000000
7ff800
000000
ENDCHAR
STARTCHAR 2166
ENCODING 8550
SWIDTH 960 0
DWIDTH 14 0
BBX 18 14 -2 -2
BITMAP
070000
01c000
007000
001800
000e00
007800
01c000
070000
1c0000
000000
3ffc00
000000
7ff800
000000
ENDCHAR
STARTCHAR 2167
ENCODING 8551
SWIDTH 960 0
DWIDTH 14 0
BBX 18 14 -2 -2
BITMAP
000000
000000
000000
000000
079e00
0ebb00
19e600
19e600
1bb600
1e7800
000000
000000
000000
000000
ENDCHAR
STARTCHAR 2168
ENCODING 8552
SWIDTH 960 0
DWIDTH 14 0
BBX 18 14 -2 -2
BITMAP
000000
000000
003000
00f000
006000
000000
000000
000000
000000
181800
3c3c00
181800
000000
000000
ENDCHAR
STARTCHAR 2169
ENCODING 8553
SWIDTH 960 0
DWIDTH 14 0
BBX 18 14 -2 -2
BITMAP
000000
007f80
000780
000d00
001b00
007300
0f4600
198600
318000
618000
630000
360000
1c0000
000000
ENDCHAR
STARTCHAR 216a
ENCODING 8554
SWIDTH 960 0
DWIDTH 14 0
BBX 18 14 -2 -2
BITMAP
000000
007800
00cc00
018c00
030c00
031800
033000
01e000
00c000
018000
1ff800
018000
030000
030000
ENDCHAR
STARTCHAR 216b
ENCODING 8555
SWIDTH 960 0
DWIDTH 14 0
BBX 18 14 -2 -2
BITMAP
000000
030000
068000
068000
030000
000000
000000
000000
000000
000000
000000
000000
000000
000000
ENDCHAR
STARTCHAR 216c
ENCODING 8556
SWIDTH 960 0
DWIDTH 14 0
BBX 18 14 -2 -2
BITMAP
000000
038000
038000
060000
0c0000
180000
000000
000000
000000
000000
000000
000000
000000
000000
ENDCHAR
STARTCHAR 216d
ENCODING 8557
SWIDTH 960 0
DWIDTH 14 0
BBX 18 14 -2 -2
BITMAP
000000
03b000
03b000
06c000
0d8000
1b0000
000000
000000
000000
000000
000000
000000
000000
000000
ENDCHAR
STARTCHAR 216e
ENCODING 8558
SWIDTH 960 0
DWIDTH 14 0
BBX 18 14 -2 -2
BITMAP
000000
060000
0d1d80
0d3700
06e300
01c300
038000
038000
038000
070000
030c00
01b800
00e000
000000
ENDCHAR
STARTCHAR 216f
ENCODING 8559
SWIDTH 960 0
DWIDTH 14 0
BBX 18 14 -2 -2
BITMAP
000000
0f8780
070700
070c00
039800
0ffe00
03a000
01c000
1ffc00
038000
038000
038000
1fc000
000000
ENDCHAR
STARTCHAR 2170
ENCODING 8560
SWIDTH 960 0
DWIDTH 14 0
BBX 18 14 -2 -2
BITMAP
000000
003000
01f800
036c00
066600
066600
034000
01e000
00d000
199800
199800
0db000
07c000
030000
ENDCHAR
STARTCHAR 2171
ENCODING 8561
SWIDTH 960 0
DWIDTH 14 0
BBX 18 14 -2 -2
BITMAP
000000
001800
001800
00f000
01a800
036800
06d800
0cc000
0d8000
0d3000
076000
07c000
0c0000
0c0000
ENDCHAR
STARTCHAR 2172
ENCODING 8562
SWIDTH 960 0
DWIDTH 14 0
BBX 18 14 -2 -2
BITMAP
000000
001c00
003600
006600
00c000
018000
030000
1ff800
030000
3a0000
6e0c00
6bb800
70e000
000000
ENDCHAR
STARTCHAR 2173
ENCODING 8563
SWIDTH 960 0
DWIDTH 14 0
BBX 18 14 -2 -2
BITMAP
000000
038180
06c700
0ccc00
18d800
0db000
0ec000
01b800
076c00
0ccc00
198c00
70d800
c0e000
000000
ENDCHAR
STARTCHAR 2174
ENCODING 8564
SWIDTH 960 0
DWIDTH 14 0
BBX 18 14 -2 -2
BITMAP
000000
006600
006600
00cc00
07ff00
019800
033000
033000
033000
3ff800
0cc000
0cc000
198000
198000
ENDCHAR
STARTCHAR 2175
ENCODING 8565
SWIDTH 960 0
DWIDTH 14 0
BBX 18 14 -2 -2
BITMAP
000000
01c000
036000
066000
066000
034000
039e00
068c00
0cd800
18e000
30e000
1bb000
0e3800
000000
ENDCHAR
STARTCHAR 2176
ENCODING 8566
SWIDTH 960 0
DWIDTH 14 0
BBX 18 14 -2 -2
BITMAP
000000
000000
003000
00f000
076e00
07be00
01e000
01e000
0f5c00
1db800
03c000
018000
000000
000000
ENDCHAR
STARTCHAR 2177
ENCODING 8567
SWIDTH 960 0
DWIDTH 14 0
BBX 18 14 -2 -2
BITMAP
000000
007800
03cc00
060600
0cfb00
19bb00
1b7600
366600
36ec00
33b800
300c00
1c3800
07e000
000000
ENDCHAR
STARTCHAR 2178
ENCODING 8568
SWIDTH 960 0
DWIDTH 14 0
BBX 18 14 -2 -2
BITMAP
007800
00cc00
00cc00
01c000
00e000
01e000
037000
03b000
01e000
01c000
00e000
066000
06c000
038000
ENDCHAR
STARTCHAR 2179
ENCODING 8569
SWIDTH 960 0
DWIDTH 14 0
BBX 18 14 -2 -2
BITMAP
000000
003000
003000
007000
00d000
1f9f80
1c0e00
073800
033000
06b000
0d5000
1e7000
303000
000000
ENDCHAR
STARTCHAR 217a
ENCODING 8570
SWIDTH 960 0
DWIDTH 14 0
BBX 18 14 -2 -2
BITMAP
000000
003000
003000
00f000
00f000
1fff80
1ffe00
07f800
03f000
0ff000
0f7000
1e7000
303000
000000
ENDCHAR
STARTCHAR 217b
ENCODING 8571
SWIDTH 960 0
DWIDTH 14 0
BBX 18 14 -2 -2
BITMAP
000000
000000
00f800
038c00
060600
0c0600
0c0600
180600
180c00
180c00
181800
0e7000
03c000
000000
ENDCHAR
STARTCHAR 217c
ENCODING 8572
SWIDTH 960 0
DWIDTH 14 0
BBX 18 14 -2 -2
BITMAP
000000
000000
007800
03fc00
07fe00
07fe00
1ffe00
1ffe00
1ffe00
1ff800
1ff800
0ff000
078000
000000
ENDCHAR
STARTCHAR 217d
ENCODING 8573
SWIDTH 960 0
DWIDTH 14 0
BBX 18 14 -2 -2
BITMAP
000000
000000
00f000
039c00
06f600
079e00
0e1a00
1a1a00
1e3c00
1a6c00
1bd800
0ef000
038000
000000
ENDCHAR
STARTCHAR 217e
ENCODING 8574
SWIDTH 960 0
DWIDTH 14 0
BBX 18 14 -2 -2
BITMAP
000000
003000
00e800
019800
030c00
0e0600
180600
300300
180e00
181800
0c3000
06e000
068000
030000
ENDCHAR
STARTCHAR 2221
ENCODING 8737
SWIDTH 960 0
DWIDTH 14 0
BBX 18 14 -2 -2
BITMAP
000000
003000
007800
01f800
03fc00
07fe00
1ffe00
3fff00
1ffe00
1ff800
0ff000
07e000
078000
030000
ENDCHAR
STARTCHAR 2222
ENCODING 8738
SWIDTH 960 0
DWIDTH 14 0
BBX 18 14 -2 -2
BITMAP
000000
0fff80
0c0180
180300
180300
180300
300600
300600
300600
600c00
600c00
600c00
fff800
000000
ENDCHAR
STARTCHAR 2223
ENCODING 8739
SWIDTH 960 0
DWIDTH 14 0
BBX 18 14 -2 -2
BITMAP
000000
0fff80
0fff80
1fff00
1fff00
1fff00
3ffe00
3ffe00
3ffe00
7ffc00
7ffc00
7ffc00
fff800
000000
ENDCHAR
STARTCHAR 2224
ENCODING 8740
SWIDTH 960 0
DWIDTH 14 0
BBX 18 14 -2 -2
BITMAP
000000
003000
003000
007000
00d000
01b000
033000
061800
0c1800
0c1800
181800
3ffc00
000000
000000
ENDCHAR
STARTCHAR 2225
ENCODING 8741
SWIDTH 960 0
DWIDTH 14 0
BBX 18 14 -2 -2
BITMAP
000000
003000
003000
00f000
00f000
01f800
03f000
07f800
07f800
1ff800
1ff800
3ffc00
000000
000000
ENDCHAR
STARTCHAR 2226
ENCODING 8742
SWIDTH 960 0
DWIDTH 14 0
BBX 18 14 -2 -2
BITMAP
000000
07ff80
030600
030600
030c00
031800
031800
033000
036000
034000
018000
018000
000000
000000
ENDCHAR
STARTCHAR 2227
ENCODING 8743
SWIDTH 960 0
DWIDTH 14 0
BBX 18 14 -2 -2
BITMAP
000000
07ff80
03ff00
07fe00
03fc00
03fc00
03f000
03f000
01e000
03c000
018000
018000
000000
000000
ENDCHAR
STARTCHAR 2228
ENCODING 8744
SWIDTH 960 0
DWIDTH 14 0
BBX 18 14 -2 -2
BITMAP
000000
000000
063380
06f600
036c00
01b800
0dac00
1ede00
0dac00
066000
0db000
3bd800
631800
000000
ENDCHAR
STARTCHAR 2229
ENCODING 8745
SWIDTH 960 0
DWIDTH 14 0
BBX 18 14 -2 -2
BITMAP
000000
07ff00
07ff00
000000
000000
1fff00
3ffe00
01c000
01c000
038000
038000
038000
070000
000000
ENDCHAR
STARTCHAR 222a
ENCODING 8746
SWIDTH 960 0
DWIDTH 14 0
BBX 18 14 -2 -2
BITMAP
000000
000000
000000
006000
003000
001c00
3ffe00
003800
00e000
018000
000000
000000
000000
000000
ENDCHAR
STARTCHAR 222b
ENCODING 8747
SWIDTH 960 0
DWIDTH 14 0
BBX 18 14 -2 -2
BITMAP
000000
000000
000000
00c000
018000
070000
3ffe00
0e0000
030000
030000
000000
000000
000000
000000
ENDCHAR
STARTCHAR 222c
ENCODING 8748
SWIDTH 960 0
DWIDTH 14 0
BBX 18 14 -2 -2
BITMAP
000000
003000
003000
00f000
00f000
01a800
075800
00c000
00c000
018000
018000
018000
030000
000000
ENDCHAR
STARTCHAR 222d
ENCODING 8749
SWIDTH 960 0
DWIDTH 14 0
BBX 18 14 -2 -2
BITMAP
000000
003000
003000
006000
006000
006000
00c000
06d800
037000
03c000
03c000
018000
030000
000000
ENDCHAR
STARTCHAR 222e
ENCODING 8750
SWIDTH 960 0
DWIDTH 14 0
BBX 18 14 -2 -2
BITMAP
000000
000000
000000
000000
0ffe00
0ffe00
000000
000000
1ffc00
3ff800
000000
000000
000000
000000
ENDCHAR
STARTCHAR 223a
ENCODING 8762
SWIDTH 960 0
DWIDTH 14 0
BBX 18 14 -2 -2
BITMAP
000000
000000
00ff00
038000
060000
0c0000
1ffc00
180000
0c0000
060000
03f800
000000
000000
000000
ENDCHAR
STARTCHAR 223b
ENCODING 8763
SWIDTH 960 0
DWIDTH 14 0
BBX 18 14 -2 -2
BITMAP
000000
000000
07f000
001800
000c00
000600
1ffc00
000c00
003800
00e000
3f8000
000000
000000
000000
ENDCHAR
STARTCHAR 223c
ENCODING 8764
SWIDTH 960 0
DWIDTH 14 0
BBX 18 14 -2 -2
BITMAP
000000
000000
03ff00
060000
0c0000
0c0000
0c0000
0c0000
07fc00
000000
000000
3ff800
000000
000000
ENDCHAR
STARTCHAR 223d
ENCODING 8765
SWIDTH 960 0
DWIDTH 14 0
BBX 18 14 -2 -2
BITMAP
000000
000000
07f800
000c00
000600
000600
000c00
001800
1ff000
000000
000000
3ff800
000000
000000
ENDCHAR
STARTCHAR 223e
ENCODING 8766
SWIDTH 960 0
DWIDTH 14 0
BBX 18 14 -2 -2
BITMAP
000000
000000
00ff00
038000
060000
0c0000
180000
180000
180000
180000
0e0000
03f800
000000
000000
ENDCHAR
STARTCHAR 223f
ENCODING 8767
SWIDTH 960 0
DWIDTH 14 0
BBX 18 14 -2 -2
BITMAP
000000
000000
07f000
001800
000c00
000c00
000c00
000c00
001800
003000
00e000
3f8000
000000
000000
ENDCHAR
STARTCHAR 2240
ENCODING 8768
SWIDTH 960 0
DWIDTH 14 0
BBX 18 14 -2 -2
BITMAP
000000
000000
060300
0c0600
0c0600
0c0600
180c00
180c00
181800
183000
0c6000
07c000
000000
000000
ENDCHAR
STARTCHAR 2241
ENCODING 8769
SWIDTH 960 0
DWIDTH 14 0
BBX 18 14 -2 -2
BITMAP
000000
000000
01f000
031800
060c00
0c0c00
0c0c00
180c00
180c00
301800
301800
301800
000000
000000
ENDCHAR
STARTCHAR 224a
ENCODING 8778
SWIDTH 960 0
DWIDTH 14 0
BBX 18 14 -2 -2
BITMAP
000000
000000
003000
006000
00d000
01b000
01b000
033000
063000
0c3000
181800
181800
000000
000000
ENDCHAR
STARTCHAR 224b
ENCODING 8779
SWIDTH 960 0
DWIDTH 14 0
BBX 18 14 -2 -2
BITMAP
000000
000000
030600
030600
030c00
031800
031800
033000
036000
034000
018000
018000
000000
000000
ENDCHAR
STARTCHAR 224c
ENCODING 8780
SWIDTH 960 0
DWIDTH 14 0
BBX 18 14 -2 -2
BITMAP
000000
000000
000000
000000
000000
000000
1ffc00
000c00
000c00
001800
001800
001800
000000
000000
ENDCHAR
STARTCHAR 224d
ENCODING 8781
SWIDTH 960 0
DWIDTH 14 0
BBX 18 14 -2 -2
BITMAP
000000
000000
000000
001800
000c00
1ffe00
000600
3ffc00
003800
006000
000000
000000
000000
000000
ENDCHAR
STARTCHAR 224e
ENCODING 8782
SWIDTH 960 0
DWIDTH 14 0
BBX 18 14 -2 -2
BITMAP
000000
000000
000000
031800
060c00
1ffe00
300600
1ffc00
0c3800
0c6000
000000
000000
000000
000000
ENDCHAR
STARTCHAR 224f
ENCODING 8783
SWIDTH 960 0
DWIDTH 14 0
BBX 18 14 -2 -2
BITMAP
000000
060180
060300
060300
07fe00
061800
061800
033000
036000
036000
034000
038000
030000
000000
ENDCHAR
STARTCHAR 2250
ENCODING 8784
SWIDTH 960 0
DWIDTH 14 0
BBX 18 14 -2 -2
BITMAP
000000
03fe00
000600
000c00
000c00
000c00
0ff800
001800
001800
003000
003000
1ff000
000000
000000
ENDCHAR
STARTCHAR 225c
ENCODING 8796
SWIDTH 960 0
DWIDTH 14 0
BBX 18 14 -2 -2
BITMAP
000000
000000
000700
000c00
001800
007000
00c000
018000
070000
0c0000
180000
3ff800
000000
000000
ENDCHAR
STARTCHAR 225d
ENCODING 8797
SWIDTH 960 0
DWIDTH 14 0
BBX 18 14 -2 -2
BITMAP
000000
000000
003000
006000
006000
006000
00c000
00c000
00c000
018000
018000
3ffc00
000000
000000
ENDCHAR
STARTCHAR 225e
ENCODING 8798
SWIDTH 960 0
DWIDTH 14 0
BBX 18 14 -2 -2
BITMAP
000000
01fe00
0f0300
180180
000000
000000
000000
000000
000000
000000
000000
000000
000000
000000
ENDCHAR
STARTCHAR 225f
ENCODING 8799
SWIDTH 960 0
DWIDTH 14 0
BBX 18 14 -2 -2
BITMAP
000000
003c00
006c00
000c00
000c00
00ec00
01b800
033800
073800
0e6000
0ee000
06c000
070000
000000
ENDCHAR
STARTCHAR 2260
ENCODING 8800
SWIDTH 960 0
DWIDTH 14 0
BBX 18 14 -2 -2
BITMAP
000000
000000
07ff80
07fe00
070600
030c00
071800
033000
036000
036000
03c000
030000
030000
000000
ENDCHAR
STARTCHAR 2261
ENCODING 8801
SWIDTH 960 0
DWIDTH 14 0
BBX 18 14 -2 -2
BITMAP
000000
000000
000000
0ffe00
000000
000000
1ffc00
000000
000000
3ff800
000000
000000
000000
000000
ENDCHAR
STARTCHAR 2262
ENCODING 8802
SWIDTH 960 0
DWIDTH 14 0
BBX 18 14 -2 -2
BITMAP
000000
000000
018000
078000
030000
0ffe00
000000
000000
1ffc00
006000
00f000
006000
000000
000000
ENDCHAR
STARTCHAR 2263
ENCODING 8803
SWIDTH 960 0
DWIDTH 14 0
BBX 18 14 -2 -2
BITMAP
000000
003300
00e600
019800
033000
0e6000
198000
0cc000
066000
066000
033000
019800
000000
000000
ENDCHAR
STARTCHAR 2264
ENCODING 8804
SWIDTH 960 0
DWIDTH 14 0
BBX 18 14 -2 -2
BITMAP
000000
066000
033000
033000
019800
00cc00
00cc00
019800
073000
0cc000
198000
330000
000000
000000
ENDCHAR
STARTCHAR 2265
ENCODING 8805
SWIDTH 960 0
DWIDTH 14 0
BBX 18 14 -2 -2
BITMAP
000000
003f80
003000
006000
006000
00c000
018000
018000
1b0000
7b0000
1e0000
0e0000
0c0000
000000
ENDCHAR
STARTCHAR 2266
ENCODING 8806
SWIDTH 960 0
DWIDTH 14 0
BBX 18 14 -2 -2
BITMAP
000000
000000
000000
000000
039c00
067600
0cc600
18c600
0d8c00
0e7800
000000
000000
000000
000000
ENDCHAR
STARTCHAR 2267
ENCODING 8807
SWIDTH 960 0
DWIDTH 14 0
BBX 18 14 -2 -2
BITMAP
000000
000000
000000
000000
01ce00
037800
066000
0c6000
06d000
071800
000000
000000
000000
000000
ENDCHAR
STARTCHAR 2268
ENCODING 8808
SWIDTH 960 0
DWIDTH 14 0
BBX 18 14 -2 -2
BITMAP
000000
000000
030300
0f0f00
060600
000000
000000
000000
000000
018000
03c000
018000
000000
000000
ENDCHAR
STARTCHAR 2269
ENCODING 8809
SWIDTH 960 0
DWIDTH 14 0
BBX 18 14 -2 -2
BITMAP
001c00
003c00
006000
00c000
00e000
00e000
00e000
00e000
007000
00e000
006000
00c000
078000
070000
ENDCHAR
STARTCHAR 226a
ENCODING 8810
SWIDTH 960 0
DWIDTH 14 0
BBX 18 14 -2 -2
BITMAP
00ee00
01ee00
037000
066000
077000
077000
077000
077000
03b800
077000
033000
076000
3dc000
3b8000
ENDCHAR
STARTCHAR 2272
ENCODING 8818
SWIDTH 960 0
DWIDTH 14 0
BBX 18 14 -2 -2
BITMAP
007000
00d800
00d000
00d000
006000
00f000
01e000
037000
067000
0c7000
0ff000
383800
68f800
000000
ENDCHAR
STARTCHAR 2273
ENCODING 8819
SWIDTH 960 0
DWIDTH 14 0
BBX 18 14 -2 -2
BITMAP
000000
038600
068c00
1dd800
1dd000
0de000
0e8000
01cc00
03da00
0f7600
1b7600
335c00
63b000
000000
ENDCHAR
STARTCHAR 2274
ENCODING 8820
SWIDTH 960 0
DWIDTH 14 0
BBX 18 14 -2 -2
BITMAP
001800
00d800
00de00
01fc00
07f000
07b000
036000
037800
03f800
1fc000
1ec000
06c000
0c0000
000000
ENDCHAR
STARTCHAR 2275
ENCODING 8821
SWIDTH 960 0
DWIDTH 14 0
BBX 18 14 -2 -2
BITMAP
000000
00c000
00c000
018000
018000
018000
037000
03b800
033800
066000
06c000
078000
0e0000
000000
ENDCHAR
STARTCHAR 2276
ENCODING 8822
SWIDTH 960 0
DWIDTH 14 0
BBX 18 14 -2 -2
BITMAP
003000
003800
003800
006c00
006c00
006c00
00cc00
00cc00
00d800
07b000
0f8000
0f8000
0e0000
000000
ENDCHAR
STARTCHAR 2277
ENCODING 8823
SWIDTH 960 0
DWIDTH 14 0
BBX 18 14 -2 -2
BITMAP
003000
007800
003000
036c00
07fe00
036c00
01e000
01e000
00c000
018000
018000
018000
030000
030000
ENDCHAR
STARTCHAR 2278
ENCODING 8824
SWIDTH 960 0
DWIDTH 14 0
BBX 18 14 -2 -2
BITMAP
003000
007800
01b600
07fe00
036c00
00f000
00c000
00c000
01e000
0db000
1ff800
0db000
078000
030000
ENDCHAR
STARTCHAR 2279
ENCODING 8825
SWIDTH 960 0
DWIDTH 14 0
BBX 18 14 -2 -2
BITMAP
000000
007c00
00f400
01e800
01e800
00e800
00d000
00d000
00d000
01a000
01a000
01a000
034000
000000
ENDCHAR
STARTCHAR 227e
ENCODING 8830
SWIDTH 960 0
DWIDTH 14 0
BBX 18 14 -2 -2
BITMAP
000000
00fc00
038600
060300
0c0300
180300
300300
300300
300600
300600
300c00
301800
187000
0fc000
ENDCHAR
STARTCHAR 2330
ENCODING 9008
SWIDTH 960 0
DWIDTH 14 0
BBX 18 14 -2 -2
BITMAP
000000
007800
00cc00
018c00
030c00
030c00
061800
061800
061800
063000
066000
03c000
000000
000000
ENDCHAR
STARTCHAR 2331
ENCODING 9009
SWIDTH 960 0
DWIDTH 14 0
BBX 18 14 -2 -2
BITMAP
000000
003000
003000
01e000
006000
006000
00c000
00c000
00c000
018000
018000
03c000
000000
000000
ENDCHAR
STARTCHAR 2332
ENCODING 9010
SWIDTH 960 0
DWIDTH 14 0
BBX 18 14 -2 -2
BITMAP
000000
00f800
018c00
030c00
060c00
001800
007000
01c000
070000
0c0000
180000
1ff000
000000
000000
ENDCHAR
STARTCHAR 2333
ENCODING 9011
SWIDTH 960 0
DWIDTH 14 0
BBX 18 14 -2 -2
BITMAP
000000
00f800
018c00
030c00
060c00
003800
01e000
003000
0c3000
0c3000
0c6000
07c000
000000
000000
ENDCHAR
STARTCHAR 2334
ENCODING 9012
SWIDTH 960 0
DWIDTH 14 0
BBX 18 14 -2 -2
BITMAP
000000
000c00
003c00
006800
00d800
039800
063000
0c3000
0ffc00
006000
006000
00f000
000000
000000
ENDCHAR
STARTCHAR 2335
ENCODING 9013
SWIDTH 960 0
DWIDTH 14 0
BBX 18 14 -2 -2
BITMAP
000000
01fe00
018000
030000
030000
03e000
073000
001800
001800
003000
0c6000
07c000
000000
000000
ENDCHAR
STARTCHAR 2336
ENCODING 9014
SWIDTH 960 0
DWIDTH 14 0
BBX 18 14 -2 -2
BITMAP
000000
007c00
00c600
018000
030000
06f000
0d1800
0e0c00
0c0c00
0c1800
063000
03e000
000000
000000
ENDCHAR
STARTCHAR 2337
ENCODING 9015
SWIDTH 960 0
DWIDTH 14 0
BBX 18 14 -2 -2
BITMAP
000000
01ff00
030e00
061800
003000
006000
006000
00c000
00c000
018000
018000
018000
000000
000000
ENDCHAR
STARTCHAR 2338
ENCODING 9016
SWIDTH 960 0
DWIDTH 14 0
BBX 18 14 -2 -2
BITMAP
000000
00f800
018c00
030c00
061800
033000
03e000
063000
0c3000
0c3000
0c6000
07c000
000000
000000
ENDCHAR
STARTCHAR 2339
ENCODING 9017
SWIDTH 960 0
DWIDTH 14 0
BBX 18 14 -2 -2
BITMAP
000000
00f800
018c00
030c00
060c00
060c00
063800
03e800
001800
183000
0c6000
07c000
000000
000000
ENDCHAR
STARTCHAR 2341
ENCODING 9025
SWIDTH 960 0
DWIDTH 14 0
BBX 18 14 -2 -2
BITMAP
000000
003000
003000
007000
00d000
01b000
033000
061800
07f800
0c1800
181800
3c3c00
000000
000000
ENDCHAR
STARTCHAR 2342
ENCODING 9026
SWIDTH 960 0
DWIDTH 14 0
BBX 18 14 -2 -2
BITMAP
000000
03f800
018c00
030600
030600
031c00
07f000
061800
060c00
0c0c00
0c3800
1fe000
000000
000000
ENDCHAR
STARTCHAR 2343
ENCODING 9027
SWIDTH 960 0
DWIDTH 14 0
BBX 18 14 -2 -2
BITMAP
000000
007d00
03c700
060600
0c0000
0c0000
180000
180000
180000
181800
0e3000
03e000
000000
000000
ENDCHAR
STARTCHAR 2344
ENCODING 9028
SWIDTH 960 0
DWIDTH 14 0
BBX 18 14 -2 -2
BITMAP
000000
07f000
031800
060c00
060600
060600
0c0c00
0c0c00
0c1800
183000
18e000
3f8000
000000
000000
ENDCHAR
STARTCHAR 2345
ENCODING 9029
SWIDTH 960 0
DWIDTH 14 0
BBX 18 14 -2 -2
BITMAP
000000
07fc00
030c00
060c00
060000
061800
0ff000
0c3000
0c0000
180000
183000
3ff000
000000
000000
ENDCHAR
STARTCHAR 2346
ENCODING 9030
SWIDTH 960 0
DWIDTH 14 0
BBX 18 14 -2 -2
BITMAP
000000
07fc00
030c00
060c00
060000
063000
0fe000
0c6000
0c0000
180000
180000
3c0000
000000
000000
ENDCHAR
STARTCHAR 2347
ENCODING 9031
SWIDTH 960 0
DWIDTH 14 0
BBX 18 14 -2 -2
BITMAP
000000
007a00
03ce00
060c00
0c0000
0c0000
187e00
181800
181800
183000
0e7000
03d000
006000
000000
ENDCHAR
STARTCHAR 2348
ENCODING 9032
SWIDTH 960 0
DWIDTH 14 0
BBX 18 14 -2 -2
BITMAP
000000
078f00
030600
060c00
060c00
060c00
0ff800
0c1800
0c1800
183000
183000
3c7800
000000
000000
ENDCHAR
STARTCHAR 2349
ENCODING 9033
SWIDTH 960 0
DWIDTH 14 0
BBX 18 14 -2 -2
BITMAP
000000
00f000
006000
00c000
00c000
00c000
018000
018000
018000
030000
030000
078000
000000
000000
ENDCHAR
STARTCHAR 234a
ENCODING 9034
SWIDTH 960 0
DWIDTH 14 0
BBX 18 14 -2 -2
BITMAP
000000
001e00
000c00
001800
001800
001800
003000
003000
003000
0c6000
0cc000
078000
000000
000000
ENDCHAR
STARTCHAR 234b
ENCODING 9035
SWIDTH 960 0
DWIDTH 14 0
BBX 18 14 -2 -2
BITMAP
000000
079e00
031c00
063000
066000
07c000
0e8000
0cc000
0c6000
186000
183000
3c7800
000000
000000
ENDCHAR
STARTCHAR 234c
ENCODING 9036
SWIDTH 960 0
DWIDTH 14 0
BBX 18 14 -2 -2
BITMAP
000000
078000
030000
060000
060000
060000
0c0000
0c0000
0c0000
183000
186000
3fe000
000000
000000
ENDCHAR
STARTCHAR 234d
ENCODING 9037
SWIDTH 960 0
DWIDTH 14 0
BBX 18 14 -2 -2
BITMAP
000000
0e0380
070700
0e0e00
0d1a00
0d3600
1b6c00
1b4c00
1b8c00
331800
301800
783c00
000000
000000
ENDCHAR
STARTCHAR 234e
ENCODING 9038
SWIDTH 960 0
DWIDTH 14 0
BBX 18 14 -2 -2
BITMAP
000000
070f00
038600
070c00
068c00
06cc00
0cd800
0cd800
0c6800
187000
187000
3c3000
000000
000000
ENDCHAR
STARTCHAR 234f
ENCODING 9039
SWIDTH 960 0
DWIDTH 14 0
BBX 18 14 -2 -2
BITMAP
000000
007800
03cc00
060600
0c0300
0c0300
180600
180600
180c00
181800
0e7000
03c000
000000
000000
ENDCHAR
STARTCHAR 2350
ENCODING 9040
SWIDTH 960 0
DWIDTH 14 0
BBX 18 14 -2 -2
BITMAP
000000
07f000
031800
060c00
060c00
063800
0fe000
0c0000
0c0000
180000
180000
3c0000
000000
000000
ENDCHAR
STARTCHAR 2351
ENCODING 9041
SWIDTH 960 0
DWIDTH 14 0
BBX 18 14 -2 -2
BITMAP
000000
007800
03cc00
060600
0c0300
0c0300
180600
180600
1b8c00
0cd800
0e7000
03f000
001800
000000
ENDCHAR
STARTCHAR 2352
ENCODING 9042
SWIDTH 960 0
DWIDTH 14 0
BBX 18 14 -2 -2
BITMAP
000000
07f000
031800
060c00
060c00
063800
0fe000
0c6000
0c6000
186000
183000
3c7800
000000
000000
ENDCHAR
STARTCHAR 2353
ENCODING 9043
SWIDTH 960 0
DWIDTH 14 0
BBX 18 14 -2 -2
BITMAP
000000
00fa00
038e00
060c00
030000
01c000
006000
003000
0c1800
181800
1c3000
1be000
000000
000000
ENDCHAR
STARTCHAR 2354
ENCODING 9044
SWIDTH 960 0
DWIDTH 14 0
BBX 18 14 -2 -2
BITMAP
000000
07fe00
0c6600
18c600
00c000
00c000
018000
018000
018000
030000
030000
078000
000000
000000
ENDCHAR
STARTCHAR 2355
ENCODING 9045
SWIDTH 960 0
DWIDTH 14 0
BBX 18 14 -2 -2
BITMAP
000000
078f00
030600
060c00
060c00
060c00
0c1800
0c1800
0c1800
0c3000
0c6000
07c000
000000
000000
ENDCHAR
STARTCHAR 2356
ENCODING 9046
SWIDTH 960 0
DWIDTH 14 0
BBX 18 14 -2 -2
BITMAP
000000
078780
030600
030600
030c00
031800
031800
033000
036000
034000
018000
018000
000000
000000
ENDCHAR
STARTCHAR 2357
ENCODING 9047
SWIDTH 960 0
DWIDTH 14 0
BBX 18 14 -2 -2
BITMAP
000000
0f33c0
063300
0c6300
0c6600
0cd600
0dac00
0d6c00
0d6800
0e7000
0c3000
0c3000
000000
000000
ENDCHAR
STARTCHAR 2358
ENCODING 9048
SWIDTH 960 0
DWIDTH 14 0
BBX 18 14 -2 -2
BITMAP
000000
078f00
030e00
031800
01b000
00e000
00c000
01a000
073000
0c3000
181800
3c3c00
000000
000000
ENDCHAR
STARTCHAR 2359
ENCODING 9049
SWIDTH 960 0
DWIDTH 14 0
BBX 18 14 -2 -2
BITMAP
000000
079e00
031c00
033000
01a000
01c000
018000
018000
018000
030000
030000
078000
000000
000000
ENDCHAR
STARTCHAR 235a
ENCODING 9050
SWIDTH 960 0
DWIDTH 14 0
BBX 18 14 -2 -2
BITMAP
000000
03ff00
060e00
0c1800
003000
006000
00c000
018000
070000
0c0c00
181800
3ff800
000000
000000
ENDCHAR
STARTCHAR 2361
ENCODING 9057
SWIDTH 960 0
DWIDTH 14 0
BBX 18 14 -2 -2
BITMAP
000000
000000
000000
000000
01e000
033000
063000
01f000
073000
0c6000
18e000
0fb000
000000
000000
ENDCHAR
STARTCHAR 2362
ENCODING 9058
SWIDTH 960 0
DWIDTH 14 0
BBX 18 14 -2 -2
BITMAP
000000
038000
018000
030000
037000
03d800
071800
061800
061800
0c3000
0e6000
1dc000
000000
000000
ENDCHAR
STARTCHAR 2363
ENCODING 9059
SWIDTH 960 0
DWIDTH 14 0
BBX 18 14 -2 -2
BITMAP
000000
000000
000000
000000
01f000
031800
061800
0c0000
0c0000
0c3000
0c6000
07c000
000000
000000
ENDCHAR
STARTCHAR 2364
ENCODING 9060
SWIDTH 960 0
DWIDTH 14 0
BBX 18 14 -2 -2
BITMAP
000000
000e00
000c00
001800
01e800
033800
063000
0c3000
0c3000
0c6000
0ce000
07b000
000000
000000
ENDCHAR
STARTCHAR 2365
ENCODING 9061
SWIDTH 960 0
DWIDTH 14 0
BBX 18 14 -2 -2
BITMAP
000000
000000
000000
000000
01f000
031800
061800
0ff800
0c0000
0c3000
066000
03c000
000000
000000
ENDCHAR
STARTCHAR 2366
ENCODING 9062
SWIDTH 960 0
DWIDTH 14 0
BBX 18 14 -2 -2
BITMAP
000000
003800
006c00
00c000
018000
07f800
030000
030000
030000
060000
060000
0f0000
000000
000000
ENDCHAR
STARTCHAR 2367
ENCODING 9063
SWIDTH 960 0
DWIDTH 14 0
BBX 18 14 -2 -2
BITMAP
000000
000000
000000
000000
01ec00
033800
063000
066000
03c000
060000
0fc000
187000
186000
0fc000
ENDCHAR
STARTCHAR 2368
ENCODING 9064
SWIDTH 960 0
DWIDTH 14 0
BBX 18 14 -2 -2
BITMAP
000000
038000
018000
030000
037000
03d800
071800
061800
061800
0c3000
0c3000
1e7800
000000
000000
ENDCHAR
STARTCHAR 2369
ENCODING 9065
SWIDTH 960 0
DWIDTH 14 0
BBX 18 14 -2 -2
BITMAP
000000
006000
006000
000000
01c000
00c000
018000
018000
018000
030000
030000
078000
000000
000000
ENDCHAR
STARTCHAR 236a
ENCODING 9066
SWIDTH 960 0
DWIDTH 14 0
BBX 18 14 -2 -2
BITMAP
000000
003000
003000
000000
00e000
006000
00c000
00c000
00c000
018000
018000
018000
330000
1e0000
ENDCHAR
STARTCHAR 236b
ENCODING 9067
SWIDTH 960 0
DWIDTH 14 0
BBX 18 14 -2 -2
BITMAP
000000
03c000
018000
031e00
031800
033000
06e000
06c000
076000
0c6000
0c3000
1e7800
000000
000000
ENDCHAR
STARTCHAR 236c
ENCODING 9068
SWIDTH 960 0
DWIDTH 14 0
BBX 18 14 -2 -2
BITMAP
000000
00e000
006000
00c000
00c000
00c000
018000
018000
018000
030000
030000
078000
000000
000000
ENDCHAR
STARTCHAR 236d
ENCODING 9069
SWIDTH 960 0
DWIDTH 14 0
BBX 18 14 -2 -2
BITMAP
000000
000000
000000
000000
1db000
0ee800
199800
199800
199800
333000
333000
7bb800
000000
000000
ENDCHAR
STARTCHAR 236e
ENCODING 9070
SWIDTH 960 0
DWIDTH 14 0
BBX 18 14 -2 -2
BITMAP
000000
000000
000000
000000
077000
03d800
071800
061800
061800
0c3000
0c3000
1e7800
000000
000000
ENDCHAR
STARTCHAR 236f
ENCODING 9071
SWIDTH 960 0
DWIDTH 14 0
BBX 18 14 -2 -2
BITMAP
000000
000000
000000
000000
01f000
031800
061800
0c1800
0c1800
0c3000
0c6000
07c000
000000
000000
ENDCHAR
STARTCHAR 2370
ENCODING 9072
SWIDTH 960 0
DWIDTH 14 0
BBX 18 14 -2 -2
BITMAP
000000
000000
000000
000000
037000
039800
061800
061800
061800
0c3000
0e6000
0dc000
180000
3c0000
ENDCHAR
STARTCHAR 2371
ENCODING 9073
SWIDTH 960 0
DWIDTH 14 0
BBX 18 14 -2 -2
BITMAP
000000
000000
000000
000000
01e800
033800
063000
0c3000
0c3000
0c6000
0ce000
07a000
00c000
01e000
ENDCHAR
STARTCHAR 2372
ENCODING 9074
SWIDTH 960 0
DWIDTH 14 0
BBX 18 14 -2 -2
BITMAP
000000
000000
000000
000000
036000
03d000
073000
060000
060000
0c0000
0c0000
1e0000
000000
000000
ENDCHAR
STARTCHAR 2373
ENCODING 9075
SWIDTH 960 0
DWIDTH 14 0
BBX 18 14 -2 -2
BITMAP
000000
000000
000000
000000
03e800
063800
060000
030000
01c000
006000
386000
0fc000
000000
000000
ENDCHAR
STARTCHAR 2374
ENCODING 9076
SWIDTH 960 0
DWIDTH 14 0
BBX 18 14 -2 -2
BITMAP
000000
000000
00c000
018000
018000
07f800
030000
030000
030000
060000
066000
03c000
000000
000000
ENDCHAR
STARTCHAR 2375
ENCODING 9077
SWIDTH 960 0
DWIDTH 14 0
BBX 18 14 -2 -2
BITMAP
000000
000000
000000
000000
079e00
030c00
061800
061800
061800
063000
067000
03d800
000000
000000
ENDCHAR
STARTCHAR 2376
ENCODING 9078
SWIDTH 960 0
DWIDTH 14 0
BBX 18 14 -2 -2
BITMAP
000000
000000
000000
000000
0f1e00
060c00
061800
063000
066000
06c000
038000
038000
000000
000000
ENDCHAR
STARTCHAR 2377
ENCODING 9079
SWIDTH 960 0
DWIDTH 14 0
BBX 18 14 -2 -2
BITMAP
000000
000000
000000
000000
0f0f00
066600
06cc00
06ac00
076800
0d7000
066000
066000
000000
000000
ENDCHAR
STARTCHAR 2378
ENCODING 9080
SWIDTH 960 0
DWIDTH 14 0
BBX 18 14 -2 -2
BITMAP
000000
000000
000000
000000
071c00
033000
036000
01c000
03c000
06c000
0c6000
1c7000
000000
000000
ENDCHAR
STARTCHAR 2379
ENCODING 9081
SWIDTH 960 0
DWIDTH 14 0
BBX 18 14 -2 -2
BITMAP
000000
000000
000000
000000
079e00
031800
031800
033000
036000
036000
01c000
030000
060000
1c0000
ENDCHAR
STARTCHAR 237a
ENCODING 9082
SWIDTH 960 0
DWIDTH 14 0
BBX 18 14 -2 -2
BITMAP
000000
000000
000000
000000
03f800
067000
00c000
018000
070000
0c3000
186000
1fe000
000000
000000
ENDCHAR
STARTCHAR 2421
ENCODING 9249
SWIDTH 960 0
DWIDTH 14 0
BBX 18 14 -2 -2
BITMAP
000000
000000
000000
018000
00c000
06f000
038000
036000
03f000
0e9800
1b1800
373000
3a6000
31c000
ENDCHAR
STARTCHAR 2422
ENCODING 9250
SWIDTH 960 0
DWIDTH 14 0
BBX 18 14 -2 -2
BITMAP
00c000
006000
007c00
07e000
01b000
01b000
03f800
074c00
0d8c00
198c00
371800
353000
38e000
000000
ENDCHAR
STARTCHAR 2423
ENCODING 9251
SWIDTH 960 0
DWIDTH 14 0
BBX 18 14 -2 -2
BITMAP
000000
000000
000000
000000
000000
000000
0c3000
0c1800
0c0c00
0c3800
0d0000
0e0000
0c0000
000000
ENDCHAR
STARTCHAR 2424
ENCODING 9252
SWIDTH 960 0
DWIDTH 14 0
BBX 18 14 -2 -2
BITMAP
000000
000000
000000
180000
0c1c00
0c0600
180600
198600
1b0e00
1a0c00
1c0000
0c0000
000000
000000
ENDCHAR
STARTCHAR 2425
ENCODING 9253
SWIDTH 960 0
DWIDTH 14 0
BBX 18 14 -2 -2
BITMAP
000000
000000
000000
000000
00c000
007000
000000
0dc000
076000
006000
006000
00c000
018000
070000
ENDCHAR
STARTCHAR 2426
ENCODING 9254
SWIDTH 960 0
DWIDTH 14 0
BBX 18 14 -2 -2
BITMAP
006000
003c00
000000
000000
00f000
079800
001800
001800
003000
003000
006000
00c000
018000
030000
ENDCHAR
STARTCHAR 2427
ENCODING 9255
SWIDTH 960 0
DWIDTH 14 0
BBX 18 14 -2 -2
BITMAP
000000
000000
000000
000000
00c000
007000
000000
00f000
076000
018000
030000
0f0000
1b0000
31f000
ENDCHAR
STARTCHAR 2428
ENCODING 9256
SWIDTH 960 0
DWIDTH 14 0
BBX 18 14 -2 -2
BITMAP
00c000
007800
000000
000000
067800
03b000
00c000
018000
070000
0d0000
198000
318000
60f800
000000
ENDCHAR
STARTCHAR 2429
ENCODING 9257
SWIDTH 960 0
DWIDTH 14 0
BBX 18 14 -2 -2
BITMAP
000000
000000
000000
000000
061800
060e00
071800
1e0000
07e000
0e3000
1c3000
346000
39c000
180000
ENDCHAR
STARTCHAR 242a
ENCODING 9258
SWIDTH 960 0
DWIDTH 14 0
BBX 18 14 -2 -2
BITMAP
000000
018000
018600
01a300
01c380
078000
033800
036c00
038c00
0e0c00
3acc00
0e7800
0c0000
000000
ENDCHAR
STARTCHAR 242b
ENCODING 9259
SWIDTH 960 0
DWIDTH 14 0
BBX 18 14 -2 -2
BITMAP
000000
018000
018000
019c00
19c600
0fa300
066e00
066000
0cc000
0cc000
198000
370000
660000
000000
ENDCHAR
STARTCHAR 242c
ENCODING 9260
SWIDTH 960 0
DWIDTH 14 0
BBX 18 14 -2 -2
BITMAP
000180
0186c0
018300
019800
19cc00
0fa600
066600
066e00
0cc000
0cc000
198000
370000
660000
000000
ENDCHAR
STARTCHAR 242d
ENCODING 9261
SWIDTH 960 0
DWIDTH 14 0
BBX 18 14 -2 -2
BITMAP
006000
003000
003e00
03f000
003000
007e00
0fd000
001800
001800
07f800
0c1800
0c0000
060000
03c000
ENDCHAR
STARTCHAR 242e
ENCODING 9262
SWIDTH 960 0
DWIDTH 14 0
BBX 18 14 -2 -2
BITMAP
00c180
0066c0
007d00
07e000
006000
00fc00
1fa000
003000
003000
0ff000
183000
180000
0c0000
078000
ENDCHAR
STARTCHAR 242f
ENCODING 9263
SWIDTH 960 0
DWIDTH 14 0
BBX 18 14 -2 -2
BITMAP
001800
000c00
001800
003000
006000
01c000
030000
060000
030000
030000
018000
00c000
00c000
00c000
ENDCHAR
STARTCHAR 2430
ENCODING 9264
SWIDTH 960 0
DWIDTH 14 0
BBX 18 14 -2 -2
BITMAP
001800
000c00
001800
003300
006d80
01c600
030000
060000
030000
030000
018000
00c000
00c000
00c000
ENDCHAR
STARTCHAR 2431
ENCODING 9265
SWIDTH 960 0
DWIDTH 14 0
BBX 18 14 -2 -2
BITMAP
001800
060c00
060600
060c00
060f80
0cfc00
181800
181800
181800
183000
1c3000
186000
30c000
018000
ENDCHAR
STARTCHAR 2432
ENCODING 9266
SWIDTH 960 0
DWIDTH 14 0
BBX 18 14 -2 -2
BITMAP
003180
0c1ac0
0c1d00
0c1800
0c1f00
19f800
303000
303000
303000
306000
386000
30c000
618000
030000
ENDCHAR
STARTCHAR 2433
ENCODING 9267
SWIDTH 960 0
DWIDTH 14 0
BBX 18 14 -2 -2
BITMAP
000000
018000
00fe00
003000
006000
000000
000000
000000
000000
300000
300000
183800
0fe000
000000
ENDCHAR
STARTCHAR 2434
ENCODING 9268
SWIDTH 960 0
DWIDTH 14 0
BBX 18 14 -2 -2
BITMAP
000180
0180c0
00fe00
003300
006000
000000
000000
000000
000000
300000
300000
183800
0fe000
000000
ENDCHAR
STARTCHAR 2435
ENCODING 9269
SWIDTH 960 0
DWIDTH 14 0
BBX 18 14 -2 -2
BITMAP
00c000
006000
006f00
0c7800
07d000
003000
003000
03f800
061800
0c0000
180000
0e0000
03c000
000000
ENDCHAR
STARTCHAR 2436
ENCODING 9270
SWIDTH 960 0
DWIDTH 14 0
BBX 18 14 -2 -2
BITMAP
00c180
0060c0
006e00
0c7b00
07d000
003000
003000
03f800
061800
0c0000
180000
0e0000
03c000
000000
ENDCHAR
STARTCHAR 2437
ENCODING 9271
SWIDTH 960 0
DWIDTH 14 0
BBX 18 14 -2 -2
BITMAP
000000
030000
030000
030000
030000
030000
060000
060000
060000
0c0c00
0c1800
067000
03c000
000000
ENDCHAR
STARTCHAR 2438
ENCODING 9272
SWIDTH 960 0
DWIDTH 14 0
BBX 18 14 -2 -2
BITMAP
000000
030600
031b00
031800
030000
030000
060000
060000
060000
0c0c00
0c1800
067000
03c000
000000
ENDCHAR
STARTCHAR 2439
ENCODING 9273
SWIDTH 960 0
DWIDTH 14 0
BBX 18 14 -2 -2
BITMAP
003000
001800
0c1f80
07f000
003000
00f000
01b000
033000
01f000
006000
00c000
018000
030000
060000
ENDCHAR
STARTCHAR 243a
ENCODING 9274
SWIDTH 960 0
DWIDTH 14 0
BBX 18 14 -2 -2
BITMAP
003680
001b40
0c1f80
07f000
003000
00f000
01b000
033000
01f000
006000
00c000
018000
030000
060000
ENDCHAR
STARTCHAR 243b
ENCODING 9275
SWIDTH 960 0
DWIDTH 14 0
BBX 18 14 -2 -2
BITMAP
000000
001800
031800
031800
031f00
1bf800
0f3000
063000
063000
0ce000
0c6000
060000
03e000
000000
ENDCHAR
STARTCHAR 243c
ENCODING 9276
SWIDTH 960 0
DWIDTH 14 0
BBX 18 14 -2 -2
BITMAP
000180
0018c0
031b00
031b00
031f00
1bf800
0f3000
063000
063000
0ce000
0c6000
060000
03e000
000000
ENDCHAR
STARTCHAR 243d
ENCODING 9277
SWIDTH 960 0
DWIDTH 14 0
BBX 18 14 -2 -2
BITMAP
000000
01bc00
00e800
003000
006000
01df00
037000
1e6000
00c000
018000
030000
030000
030000
01e000
ENDCHAR
STARTCHAR 243e
ENCODING 9278
SWIDTH 960 0
DWIDTH 14 0
BBX 18 14 -2 -2
BITMAP
000000
01bd80
00eec0
003600
006000
01df00
037000
1e6000
00c000
018000
030000
030000
030000
01e000
ENDCHAR
STARTCHAR 243f
ENCODING 9279
SWIDTH 960 0
DWIDTH 14 0
BBX 18 14 -2 -2
BITMAP
000000
018000
01b800
01e000
0f8000
033e00
060e00
061800
0c0000
180000
198000
318000
60f800
000000
ENDCHAR
STARTCHAR 2440
ENCODING 9280
SWIDTH 960 0
DWIDTH 14 0
BBX 18 14 -2 -2
BITMAP
000180
0186c0
01bb00
01e000
0f8000
033e00
060e00
061800
0c0000
180000
198000
318000
60f800
000000
ENDCHAR
STARTCHAR 2441
ENCODING 9281
SWIDTH 960 0
DWIDTH 14 0
BBX 18 14 -2 -2
BITMAP
018000
00c000
00dc00
19e000
0f8000
030000
067000
06d800
0f1800
181800
003000
006000
01c000
0f0000
ENDCHAR
STARTCHAR 2442
ENCODING 9282
SWIDTH 960 0
DWIDTH 14 0
BBX 18 14 -2 -2
BITMAP
018000
00c180
00dcc0
19e600
0f8300
030000
067000
06d800
0f1800
181800
003000
006000
01c000
0f0000
ENDCHAR
STARTCHAR 2443
ENCODING 9283
SWIDTH 960 0
DWIDTH 14 0
BBX 18 14 -2 -2
BITMAP
000000
000000
000000
000000
000000
000000
00f000
039800
1e1800
001800
003000
006000
01c000
0f0000
ENDCHAR
STARTCHAR 2444
ENCODING 9284
SWIDTH 960 0
DWIDTH 14 0
BBX 18 14 -2 -2
BITMAP
000000
000000
000000
00fc00
1b8600
0e0600
000600
000600
000c00
001800
007000
03c000
000000
000000
ENDCHAR
STARTCHAR 2445
ENCODING 9285
SWIDTH 960 0
DWIDTH 14 0
BBX 18 14 -2 -2
BITMAP
000180
0006c0
000700
00fc00
1b8600
0e0600
000600
000600
000c00
001800
007000
03c000
000000
000000
ENDCHAR
STARTCHAR 2446
ENCODING 9286
SWIDTH 960 0
DWIDTH 14 0
BBX 18 14 -2 -2
BITMAP
000000
000780
0cfc00
07b000
006000
00c000
00c000
018000
018000
030000
030000
018000
00e000
000000
ENDCHAR
STARTCHAR 2447
ENCODING 9287
SWIDTH 960 0
DWIDTH 14 0
BBX 18 14 -2 -2
BITMAP
000000
000780
0cfc00
07b300
006d80
00c600
00c000
018000
018000
030000
030000
018000
00e000
000000
ENDCHAR
STARTCHAR 2448
ENCODING 9288
SWIDTH 960 0
DWIDTH 14 0
BBX 18 14 -2 -2
BITMAP
000000
00c000
00c000
00c000
00c000
00de00
01e000
038000
060000
0c0000
180000
0c0000
07f000
000000
ENDCHAR
STARTCHAR 2449
ENCODING 9289
SWIDTH 960 0
DWIDTH 14 0
BBX 18 14 -2 -2
BITMAP
000000
00c180
00c6c0
00c600
00c000
00de00
01e000
038000
060000
0c0000
180000
0c0000
07f000
000000
ENDCHAR
STARTCHAR 244a
ENCODING 9290
SWIDTH 960 0
DWIDTH 14 0
BBX 18 14 -2 -2
BITMAP
00c000
006000
007800
0fe000
019e00
030f00
061800
0c3000
183000
306000
03e000
067000
06d000
038000
ENDCHAR
STARTCHAR 244b
ENCODING 9291
SWIDTH 960 0
DWIDTH 14 0
BBX 18 14 -2 -2
BITMAP
000000
060000
060000
063e00
06e700
0c0c00
180000
180000
180000
330000
350000
39fc00
300000
300000
ENDCHAR
STARTCHAR 244c
ENCODING 9292
SWIDTH 960 0
DWIDTH 14 0
BBX 18 14 -2 -2
BITMAP
000000
003000
003000
003000
06fc00
07c600
0ec600
0d8600
1d0600
350c00
6e7400
6ad800
706800
000000
ENDCHAR
STARTCHAR 244d
ENCODING 9293
SWIDTH 960 0
DWIDTH 14 0
BBX 18 14 -2 -2
BITMAP
030000
018000
018000
030000
1bb800
0fec00
070c00
060c00
0e0c00
1c1800
34f800
6dbc00
18e000
000000
ENDCHAR
STARTCHAR 244e
ENCODING 9294
SWIDTH 960 0
DWIDTH 14 0
BBX 18 14 -2 -2
BITMAP
000000
000000
00f800
03ac00
066600
0c6600
0cc600
198600
1b0c00
360c00
341800
187000
03c000
000000
ENDCHAR
STARTCHAR 244f
ENCODING 9295
SWIDTH 960 0
DWIDTH 14 0
BBX 18 14 -2 -2
BITMAP
000c00
060600
060600
068f00
06fc00
0c0c00
181800
181800
181800
35f000
3b3800
1b6c00
31c000
000000
ENDCHAR
STARTCHAR 2450
ENCODING 9296
SWIDTH 960 0
DWIDTH 14 0
BBX 18 14 -2 -2
BITMAP
001980
0c0cc0
0c0d00
0d1f00
0df800
181800
303000
303000
303000
6be000
767000
36d800
638000
000000
ENDCHAR
STARTCHAR 2451
ENCODING 9297
SWIDTH 960 0
DWIDTH 14 0
BBX 18 14 -2 -2
BITMAP
001b80
0c0ec0
0c0e80
0d1f00
0df800
181800
303000
303000
303000
6be000
767000
36d800
638000
000000
ENDCHAR
STARTCHAR 2452
ENCODING 9298
SWIDTH 960 0
DWIDTH 14 0
BBX 18 14 -2 -2
BITMAP
000000
000c00
00cc00
0f8c00
030c00
060e00
061a00
0c1800
0c3000
183000
186000
0dc000
070000
000000
ENDCHAR
STARTCHAR 2453
ENCODING 9299
SWIDTH 960 0
DWIDTH 14 0
BBX 18 14 -2 -2
BITMAP
000180
000cc0
00cf00
0f8d00
030c00
060e00
061a00
0c1800
0c3000
183000
186000
0dc000
070000
000000
ENDCHAR
STARTCHAR 2454
ENCODING 9300
SWIDTH 960 0
DWIDTH 14 0
BBX 18 14 -2 -2
BITMAP
000700
000d80
00cd00
0f8e00
030c00
060e00
061a00
0c1800
0c3000
183000
186000
0dc000
070000
000000
ENDCHAR
STARTCHAR 2455
ENCODING 9301
SWIDTH 960 0
DWIDTH 14 0
BBX 18 14 -2 -2
BITMAP
000000
00c000
007800
003000
006000
00c000
00c000
00c000
03d800
6ecc00
3cde00
368000
070000
000000
ENDCHAR
STARTCHAR 2456
ENCODING 9302
SWIDTH 960 0
DWIDTH 14 0
BBX 18 14 -2 -2
BITMAP
000000
00c000
007980
003580
006600
00c000
00c000
00c000
03d800
6ecc00
3cde00
368000
070000
000000
ENDCHAR
STARTCHAR 2457
ENCODING 9303
SWIDTH 960 0
DWIDTH 14 0
BBX 18 14 -2 -2
BITMAP
000000
00c000
007b80
003680
006d80
00c700
00c000
00c000
03d800
6ecc00
3cde00
368000
070000
000000
ENDCHAR
STARTCHAR 2458
ENCODING 9304
SWIDTH 960 0
DWIDTH 14 0
BBX 18 14 -2 -2
BITMAP
000000
000000
000000
000000
01c000
076000
346000
183000
001c00
000600
000000
000000
000000
000000
ENDCHAR
STARTCHAR 2459
ENCODING 9305
SWIDTH 960 0
DWIDTH 14 0
BBX 18 14 -2 -2
BITMAP
000000
000000
000300
001b00
01cc00
076000
346000
183000
001c00
000600
000000
000000
000000
000000
ENDCHAR
STARTCHAR 245a
ENCODING 9306
SWIDTH 960 0
DWIDTH 14 0
BBX 18 14 -2 -2
BITMAP
000000
000600
000d00
000d00
01c600
076000
346000
183000
001c00
000600
000000
000000
000000
000000
ENDCHAR
STARTCHAR 245b
ENCODING 9307
SWIDTH 960 0
DWIDTH 14 0
BBX 18 14 -2 -2
BITMAP
000000
066700
063c00
060c00
060f00
0cfc00
181800
181800
181800
35f000
3b3800
1b6c00
31c000
000000
ENDCHAR
STARTCHAR 245c
ENCODING 9308
SWIDTH 960 0
DWIDTH 14 0
BBX 18 14 -2 -2
BITMAP
000000
0cce80
0c78c0
0c1a00
0c1f00
19f800
303000
303000
303000
6be000
767000
36d800
638000
000000
ENDCHAR
STARTCHAR 245d
ENCODING 9309
SWIDTH 960 0
DWIDTH 14 0
BBX 18 14 -2 -2
BITMAP
000380
0ccec0
0c7a80
0c1b00
0c1e00
19f800
303000
303000
303000
6be000
767000
36d800
638000
000000
ENDCHAR
STARTCHAR 245e
ENCODING 9310
SWIDTH 960 0
DWIDTH 14 0
BBX 18 14 -2 -2
BITMAP
003000
001800
031f00
01f000
003000
063c00
03e000
006000
006000
0fc000
18f000
199800
0f0000
000000
ENDCHAR
STARTCHAR 245f
ENCODING 9311
SWIDTH 960 0
DWIDTH 14 0
BBX 18 14 -2 -2
BITMAP
000000
019800
00f800
006000
006000
00cc00
018c00
07fc00
1d1e00
363600
6c3000
386000
01c000
000000
ENDCHAR
STARTCHAR 2460
ENCODING 9312
SWIDTH 960 0
DWIDTH 14 0
BBX 18 14 -2 -2
BITMAP
018000
00c000
06f000
038e00
018300
078380
0d0000
1b0000
1b1800
1c1800
0c1800
0c3000
07e000
000000
ENDCHAR
STARTCHAR 2461
ENCODING 9313
SWIDTH 960 0
DWIDTH 14 0
BBX 18 14 -2 -2
BITMAP
000000
003000
003000
063000
06f800
07b400
0c6c00
1ac600
368600
370c00
660c00
6d3800
38e000
000000
ENDCHAR
STARTCHAR 2462
ENCODING 9314
SWIDTH 960 0
DWIDTH 14 0
BBX 18 14 -2 -2
BITMAP
006000
003000
036000
01c000
00f000
0e8000
199800
0f1800
03d800
061800
061800
063000
066000
03c000
ENDCHAR
STARTCHAR 2463
ENCODING 9315
SWIDTH 960 0
DWIDTH 14 0
BBX 18 14 -2 -2
BITMAP
000000
000000
000000
000000
006000
033000
06f800
078c00
1f1800
067000
030000
030000
030000
030000
ENDCHAR
STARTCHAR 2464
ENCODING 9316
SWIDTH 960 0
DWIDTH 14 0
BBX 18 14 -2 -2
BITMAP
003000
001800
003c00
070000
063c00
06e600
370600
1d0600
033c00
030000
018000
018000
018000
018000
ENDCHAR
STARTCHAR 2465
ENCODING 9317
SWIDTH 960 0
DWIDTH 14 0
BBX 18 14 -2 -2
BITMAP
000000
000000
000000
000000
00c000
00c000
18f800
1bcc00
1ecc00
399800
33b000
31e000
030000
060000
ENDCHAR
STARTCHAR 2466
ENCODING 9318
SWIDTH 960 0
DWIDTH 14 0
BBX 18 14 -2 -2
BITMAP
000000
007000
0c1800
0c7c00
0cd600
0db600
1a6600
1c6600
1d6c00
335800
31f000
01c000
030000
060000
ENDCHAR
STARTCHAR 2467
ENCODING 9319
SWIDTH 960 0
DWIDTH 14 0
BBX 18 14 -2 -2
BITMAP
000000
000000
000000
00c000
006000
006c00
00f000
00c000
00c000
018000
0f8000
19c000
1b6000
0e0000
ENDCHAR
STARTCHAR 2468
ENCODING 9320
SWIDTH 960 0
DWIDTH 14 0
BBX 18 14 -2 -2
BITMAP
006000
003000
003000
006e00
007800
006000
00c000
00c000
00c000
1fc000
31b000
331800
1e0000
000000
ENDCHAR
STARTCHAR 2469
ENCODING 9321
SWIDTH 960 0
DWIDTH 14 0
BBX 18 14 -2 -2
BITMAP
006000
003000
007c00
01c000
030000
030000
060000
06f000
079800
0c1800
0c1800
007000
01c000
070000
ENDCHAR
STARTCHAR 246a
ENCODING 9322
SWIDTH 960 0
DWIDTH 14 0
BBX 18 14 -2 -2
BITMAP
030000
01b800
01ec00
038c00
038c00
030c00
061800
061800
063000
003000
006000
01c000
030000
060000
ENDCHAR
STARTCHAR 246b
ENCODING 9323
SWIDTH 960 0
DWIDTH 14 0
BBX 18 14 -2 -2
BITMAP
000000
019c00
00f800
003000
006000
00c000
03f000
071800
1c1800
301800
03d800
06f000
06c000
038000
ENDCHAR
STARTCHAR 246c
ENCODING 9324
SWIDTH 960 0
DWIDTH 14 0
BBX 18 14 -2 -2
BITMAP
000000
030000
030000
037800
034c00
0f8c00
3b1800
061800
0e1800
1c3000
343000
6c3600
381800
180000
ENDCHAR
STARTCHAR 246d
ENCODING 9325
SWIDTH 960 0
DWIDTH 14 0
BBX 18 14 -2 -2
BITMAP
000000
033800
01f000
006000
00c000
018000
03f000
061800
1c1800
301800
003000
006000
01c000
0f0000
ENDCHAR
STARTCHAR 246e
ENCODING 9326
SWIDTH 960 0
DWIDTH 14 0
BBX 18 14 -2 -2
BITMAP
000000
000000
000000
000000
030000
030000
030000
03b000
0fd800
071800
0e1800
1e3000
346000
0cc000
ENDCHAR
STARTCHAR 246f
ENCODING 9327
SWIDTH 960 0
DWIDTH 14 0
BBX 18 14 -2 -2
BITMAP
030000
018000
018000
030000
1bbc00
0fe600
070600
060600
0e0600
1c0c00
341800
6c7000
39c000
180000
ENDCHAR
STARTCHAR 2470
ENCODING 9328
SWIDTH 960 0
DWIDTH 14 0
BBX 18 14 -2 -2
BITMAP
000000
01b800
00f000
006000
006000
00f800
078c00
0d8600
1b0600
360c00
34ec00
3db800
30e000
000000
ENDCHAR
STARTCHAR 2471
ENCODING 9329
SWIDTH 960 0
DWIDTH 14 0
BBX 18 14 -2 -2
BITMAP
000000
01b800
00f000
00c000
01f000
071800
0c1800
039800
06f000
078000
0c0000
3ee000
633000
c07800
ENDCHAR
STARTCHAR 2472
ENCODING 9330
SWIDTH 960 0
DWIDTH 14 0
BBX 18 14 -2 -2
BITMAP
00c000
006000
037c00
01e000
018000
018c00
07de00
0e7000
19e000
034000
06c000
0c0000
0c0000
07e000
ENDCHAR
STARTCHAR 2473
ENCODING 9331
SWIDTH 960 0
DWIDTH 14 0
BBX 18 14 -2 -2
BITMAP
006000
003000
006000
006000
00c000
018000
030000
078000
0cc000
0cc000
18cc00
30d800
606000
000000
ENDCHAR
STARTCHAR 2521
ENCODING 9505
SWIDTH 960 0
DWIDTH 14 0
BBX 18 14 -2 -2
BITMAP
000000
000000
000000
000000
000000
000000
18f800
0fb000
01a000
01c000
018000
030000
060000
0c0000
ENDCHAR
STARTCHAR 2522
ENCODING 9506
SWIDTH 960 0
DWIDTH 14 0
BBX 18 14 -2 -2
BITMAP
000000
000000
067f00
03c600
000c00
00d800
00e000
00c000
018000
018000
030000
060000
0c0000
180000
ENDCHAR
STARTCHAR 2523
ENCODING 9507
SWIDTH 960 0
DWIDTH 14 0
BBX 18 14 -2 -2
BITMAP
000000
000000
000000
000000
000c00
001800
003000
01e000
0f6000
00c000
00c000
00c000
018000
018000
ENDCHAR
STARTCHAR 2524
ENCODING 9508
SWIDTH 960 0
DWIDTH 14 0
BBX 18 14 -2 -2
BITMAP
000000
000600
000c00
001800
003000
01e000
074000
1c6000
006000
00c000
00c000
00c000
018000
018000
ENDCHAR
STARTCHAR 2525
ENCODING 9509
SWIDTH 960 0
DWIDTH 14 0
BBX 18 14 -2 -2
BITMAP
000000
000000
000000
000000
00c000
00c000
00f800
0f9800
063000
0c3000
006000
01c000
030000
060000
ENDCHAR
STARTCHAR 2526
ENCODING 9510
SWIDTH 960 0
DWIDTH 14 0
BBX 18 14 -2 -2
BITMAP
000000
006000
006000
006000
007e00
0fcc00
0c0c00
0c1800
0c3000
0c3000
006000
01c000
030000
060000
ENDCHAR
STARTCHAR 2527
ENCODING 9511
SWIDTH 960 0
DWIDTH 14 0
BBX 18 14 -2 -2
BITMAP
000000
000000
000000
000000
000000
000000
007800
07c000
00c000
018000
018000
03e000
3e3000
000000
ENDCHAR
STARTCHAR 2528
ENCODING 9512
SWIDTH 960 0
DWIDTH 14 0
BBX 18 14 -2 -2
BITMAP
000000
000000
000000
001e00
07f000
00c000
00c000
00c000
00c000
018000
03f800
3e0c00
000000
000000
ENDCHAR
STARTCHAR 2529
ENCODING 9513
SWIDTH 960 0
DWIDTH 14 0
BBX 18 14 -2 -2
BITMAP
000000
000000
000000
000000
006000
006000
0c7800
07e000
01e000
034000
06c000
1cc000
338000
018000
ENDCHAR
STARTCHAR 252a
ENCODING 9514
SWIDTH 960 0
DWIDTH 14 0
BBX 18 14 -2 -2
BITMAP
000000
001800
001800
001800
0c1f00
07f800
007000
00d000
03b000
066000
0c6000
186000
01c000
00c000
ENDCHAR
STARTCHAR 252b
ENCODING 9515
SWIDTH 960 0
DWIDTH 14 0
BBX 18 14 -2 -2
BITMAP
000000
006000
006000
006000
0c7e00
07e600
018c00
018c00
031800
063000
0c3000
39a000
61c000
018000
ENDCHAR
STARTCHAR 252c
ENCODING 9516
SWIDTH 960 0
DWIDTH 14 0
BBX 18 14 -2 -2
BITMAP
000180
0066c0
006340
006600
0c7e00
07e600
018c00
018c00
031800
063000
0c3000
39a000
61c000
018000
ENDCHAR
STARTCHAR 252d
ENCODING 9517
SWIDTH 960 0
DWIDTH 14 0
BBX 18 14 -2 -2
BITMAP
000000
00c000
00c000
00de00
00f000
07c000
00c000
00de00
03e000
3ec000
00c000
00c000
00c000
00c000
ENDCHAR
STARTCHAR 252e
ENCODING 9518
SWIDTH 960 0
DWIDTH 14 0
BBX 18 14 -2 -2
BITMAP
000180
00c6c0
00c340
00de00
00f000
07c000
00c000
00de00
03e000
3ec000
00c000
00c000
00c000
00c000
ENDCHAR
STARTCHAR 252f
ENCODING 9519
SWIDTH 960 0
DWIDTH 14 0
BBX 18 14 -2 -2
BITMAP
000000
00c000
00df00
00f600
00cc00
019800
031800
063000
0c6000
00c000
018000
070000
0c0000
180000
ENDCHAR
STARTCHAR 2530
ENCODING 9520
SWIDTH 960 0
DWIDTH 14 0
BBX 18 14 -2 -2
BITMAP
000180
0186c0
01bd40
01ea00
019800
033000
063000
0c6000
18c000
018000
030000
0e0000
180000
300000
ENDCHAR
STARTCHAR 2531
ENCODING 9521
SWIDTH 960 0
DWIDTH 14 0
BBX 18 14 -2 -2
BITMAP
000000
018000
018000
018000
018f00
03f800
06c000
0c6000
18c000
00c000
018000
030000
060000
0c0000
ENDCHAR
STARTCHAR 2532
ENCODING 9522
SWIDTH 960 0
DWIDTH 14 0
BBX 18 14 -2 -2
BITMAP
000180
0186c0
018340
018600
018f00
03f800
06c000
0c6000
18c000
00c000
018000
030000
060000
0c0000
ENDCHAR
STARTCHAR 2533
ENCODING 9523
SWIDTH 960 0
DWIDTH 14 0
BBX 18 14 -2 -2
BITMAP
000000
000000
000000
0c7e00
07c600
000600
000c00
000c00
001800
003000
03f000
1e3000
000000
000000
ENDCHAR
STARTCHAR 2534
ENCODING 9524
SWIDTH 960 0
DWIDTH 14 0
BBX 18 14 -2 -2
BITMAP
000180
0006c0
0006c0
18fa00
0f9800
001800
003000
003000
006000
00c000
07c000
3cc000
000000
000000
ENDCHAR
STARTCHAR 2535
ENCODING 9525
SWIDTH 960 0
DWIDTH 14 0
BBX 18 14 -2 -2
BITMAP
000000
001800
019800
019800
019800
0dbf00
07d000
033000
036000
066000
00c000
018000
030000
060000
ENDCHAR
STARTCHAR 2536
ENCODING 9526
SWIDTH 960 0
DWIDTH 14 0
BBX 18 14 -2 -2
BITMAP
000180
001ac0
019ec0
019a00
019800
0dbf00
07d000
033000
036000
066000
00c000
018000
030000
060000
ENDCHAR
STARTCHAR 2537
ENCODING 9527
SWIDTH 960 0
DWIDTH 14 0
BBX 18 14 -2 -2
BITMAP
000000
000000
018000
00c000
000000
060000
030600
000c00
001800
007000
00c000
1b8000
0e0000
000000
ENDCHAR
STARTCHAR 2538
ENCODING 9528
SWIDTH 960 0
DWIDTH 14 0
BBX 18 14 -2 -2
BITMAP
000000
000180
018680
00c680
000600
060000
030600
000c00
001800
007000
00c000
1b8000
0e0000
000000
ENDCHAR
STARTCHAR 2539
ENCODING 9529
SWIDTH 960 0
DWIDTH 14 0
BBX 18 14 -2 -2
BITMAP
000000
000000
033e00
01ec00
001800
003000
003000
006000
01d000
033000
0e1800
381800
000000
000000
ENDCHAR
STARTCHAR 253a
ENCODING 9530
SWIDTH 960 0
DWIDTH 14 0
BBX 18 14 -2 -2
BITMAP
000180
0006c0
067ec0
03da00
003000
006000
006000
00c000
03a000
066000
1c3000
703000
000000
000000
ENDCHAR
STARTCHAR 253b
ENCODING 9531
SWIDTH 960 0
DWIDTH 14 0
BBX 18 14 -2 -2
BITMAP
000000
018000
018000
018000
019f00
01f600
1b8c00
0f1800
033000
060000
060000
030000
01f000
000000
ENDCHAR
STARTCHAR 253c
ENCODING 9532
SWIDTH 960 0
DWIDTH 14 0
BBX 18 14 -2 -2
BITMAP
000180
0186c0
018340
018600
019f00
01f600
1b8c00
0f1800
033000
060000
060000
030000
01f800
000000
ENDCHAR
STARTCHAR 253d
ENCODING 9533
SWIDTH 960 0
DWIDTH 14 0
BBX 18 14 -2 -2
BITMAP
000000
000600
030600
030600
018600
018c00
031800
003000
006000
006000
00c000
038000
060000
0c0000
ENDCHAR
STARTCHAR 253e
ENCODING 9534
SWIDTH 960 0
DWIDTH 14 0
BBX 18 14 -2 -2
BITMAP
000180
001ac0
061ec0
061a00
031800
033000
063000
006000
00c000
00c000
018000
070000
0c0000
180000
ENDCHAR
STARTCHAR 253f
ENCODING 9535
SWIDTH 960 0
DWIDTH 14 0
BBX 18 14 -2 -2
BITMAP
000000
006000
006000
007e00
00c600
01cc00
035800
067000
0c6000
00c000
018000
070000
1c0000
700000
ENDCHAR
STARTCHAR 2540
ENCODING 9536
SWIDTH 960 0
DWIDTH 14 0
BBX 18 14 -2 -2
BITMAP
000180
00c6c0
00c340
00fe00
018c00
039800
069800
0cd000
18e000
018000
030000
0e0000
380000
e00000
ENDCHAR
STARTCHAR 2541
ENCODING 9537
SWIDTH 960 0
DWIDTH 14 0
BBX 18 14 -2 -2
BITMAP
000000
000c00
003800
07e000
006000
003f00
19e000
0f6000
00c000
00c000
018000
030000
060000
0c0000
ENDCHAR
STARTCHAR 2542
ENCODING 9538
SWIDTH 960 0
DWIDTH 14 0
BBX 18 14 -2 -2
BITMAP
000180
000cc0
007ac0
07c600
006000
003f00
19e000
0f6000
00c000
00c000
018000
030000
060000
0c0000
ENDCHAR
STARTCHAR 2543
ENCODING 9539
SWIDTH 960 0
DWIDTH 14 0
BBX 18 14 -2 -2
BITMAP
000000
000000
000000
000000
000000
000000
033000
0d9800
0db000
0c3000
006000
01c000
030000
060000
ENDCHAR
STARTCHAR 2544
ENCODING 9540
SWIDTH 960 0
DWIDTH 14 0
BBX 18 14 -2 -2
BITMAP
000000
000000
00c300
0cc300
066300
066600
060c00
001800
003000
006000
00c000
038000
060000
000000
ENDCHAR
STARTCHAR 2545
ENCODING 9541
SWIDTH 960 0
DWIDTH 14 0
BBX 18 14 -2 -2
BITMAP
000180
0006c0
031ac0
031a00
199800
0db000
0c3000
0c6000
00c000
018000
030000
0e0000
180000
000000
ENDCHAR
STARTCHAR 2546
ENCODING 9542
SWIDTH 960 0
DWIDTH 14 0
BBX 18 14 -2 -2
BITMAP
000000
000000
037e00
01c000
000000
003f00
19e000
0f6000
00c000
00c000
018000
070000
0c0000
180000
ENDCHAR
STARTCHAR 2547
ENCODING 9543
SWIDTH 960 0
DWIDTH 14 0
BBX 18 14 -2 -2
BITMAP
000180
0006c0
037ec0
01c600
000000
0c7e00
07c000
006000
00c000
00c000
018000
070000
0c0000
180000
ENDCHAR
STARTCHAR 2548
ENCODING 9544
SWIDTH 960 0
DWIDTH 14 0
BBX 18 14 -2 -2
BITMAP
000000
018000
018000
018000
018000
018000
03c000
037000
031800
060000
060000
060000
0c0000
0c0000
ENDCHAR
STARTCHAR 2549
ENCODING 9545
SWIDTH 960 0
DWIDTH 14 0
BBX 18 14 -2 -2
BITMAP
000600
031b00
030d00
031800
030000
030000
078000
06e000
063000
0c0000
0c0000
0c0000
180000
180000
ENDCHAR
STARTCHAR 254a
ENCODING 9546
SWIDTH 960 0
DWIDTH 14 0
BBX 18 14 -2 -2
BITMAP
000000
003000
003000
003000
0c3f00
07f000
006000
006000
00c000
00c000
018000
070000
0c0000
180000
ENDCHAR
STARTCHAR 254b
ENCODING 9547
SWIDTH 960 0
DWIDTH 14 0
BBX 18 14 -2 -2
BITMAP
000000
000000
000000
003c00
07e000
000000
000000
000000
000000
01f800
3f0c00
000000
000000
000000
ENDCHAR
STARTCHAR 254c
ENCODING 9548
SWIDTH 960 0
DWIDTH 14 0
BBX 18 14 -2 -2
BITMAP
000000
000000
033f00
01e600
000c00
001800
079800
00f000
00f000
01b000
031800
0e1800
780000
000000
ENDCHAR
STARTCHAR 254d
ENCODING 9549
SWIDTH 960 0
DWIDTH 14 0
BBX 18 14 -2 -2
BITMAP
000000
006000
006000
007c00
07d800
003000
006000
00c000
03d000
0e9800
398c00
018000
030000
030000
ENDCHAR
STARTCHAR 254e
ENCODING 9550
SWIDTH 960 0
DWIDTH 14 0
BBX 18 14 -2 -2
BITMAP
000000
000c00
000c00
000c00
000c00
001800
003000
006000
00c000
018000
030000
0e0000
180000
300000
ENDCHAR
STARTCHAR 254f
ENCODING 9551
SWIDTH 960 0
DWIDTH 14 0
BBX 18 14 -2 -2
BITMAP
000000
000000
000000
000000
033000
031800
031800
060c00
0c0c00
180c00
300c00
600c00
000000
000000
ENDCHAR
STARTCHAR 2550
ENCODING 9552
SWIDTH 960 0
DWIDTH 14 0
BBX 18 14 -2 -2
BITMAP
000000
000180
000680
000680
033600
031800
031800
060c00
0c0c00
180c00
300c00
600c00
000000
000000
ENDCHAR
STARTCHAR 2551
ENCODING 9553
SWIDTH 960 0
DWIDTH 14 0
BBX 18 14 -2 -2
BITMAP
000380
0006c0
000680
000700
033000
031800
031800
060c00
0c0c00
180c00
300c00
600c00
000000
000000
ENDCHAR
STARTCHAR 2552
ENCODING 9554
SWIDTH 960 0
DWIDTH 14 0
BBX 18 14 -2 -2
BITMAP
000000
000000
030000
030000
030000
037c00
07c000
060000
060000
0c0000
0c0000
060000
03f000
000000
ENDCHAR
STARTCHAR 2553
ENCODING 9555
SWIDTH 960 0
DWIDTH 14 0
BBX 18 14 -2 -2
BITMAP
000000
000300
030d00
030d00
030c00
030000
067800
07c000
060000
0c0000
0c0000
060000
03f000
000000
ENDCHAR
STARTCHAR 2554
ENCODING 9556
SWIDTH 960 0
DWIDTH 14 0
BBX 18 14 -2 -2
BITMAP
000000
000600
030d00
030d00
030600
030000
067800
07c000
060000
0c0000
0c0000
060000
03f000
000000
ENDCHAR
STARTCHAR 2555
ENCODING 9557
SWIDTH 960 0
DWIDTH 14 0
BBX 18 14 -2 -2
BITMAP
000000
000000
033f00
01e600
000600
000c00
001800
003000
006000
00c000
018000
070000
0c0000
000000
ENDCHAR
STARTCHAR 2556
ENCODING 9558
SWIDTH 960 0
DWIDTH 14 0
BBX 18 14 -2 -2
BITMAP
000180
0006c0
06fec0
039a00
001800
003000
006000
00c000
018000
030000
060000
1c0000
300000
000000
ENDCHAR
STARTCHAR 2557
ENCODING 9559
SWIDTH 960 0
DWIDTH 14 0
BBX 18 14 -2 -2
BITMAP
000380
0006c0
06fe80
039b00
001800
003000
006000
00c000
018000
030000
060000
1c0000
300000
000000
ENDCHAR
STARTCHAR 2558
ENCODING 9560
SWIDTH 960 0
DWIDTH 14 0
BBX 18 14 -2 -2
BITMAP
000000
000000
000000
000000
00c000
03a000
366000
1c3000
001c00
000600
000000
000000
000000
000000
ENDCHAR
STARTCHAR 2559
ENCODING 9561
SWIDTH 960 0
DWIDTH 14 0
BBX 18 14 -2 -2
BITMAP
000000
000600
001a00
001a00
00d800
03a000
366000
1c3000
001c00
000600
000000
000000
000000
000000
ENDCHAR
STARTCHAR 255a
ENCODING 9562
SWIDTH 960 0
DWIDTH 14 0
BBX 18 14 -2 -2
BITMAP
000000
000c00
001a00
001a00
00cc00
03a000
366000
1c3000
001c00
000600
000000
000000
000000
000000
ENDCHAR
STARTCHAR 255b
ENCODING 9563
SWIDTH 960 0
DWIDTH 14 0
BBX 18 14 -2 -2
BITMAP
000000
006000
006000
006000
0c7e00
07e000
00c000
00d000
06d800
0d9800
199800
318000
070000
030000
ENDCHAR
STARTCHAR 255c
ENCODING 9564
SWIDTH 960 0
DWIDTH 14 0
BBX 18 14 -2 -2
BITMAP
000180
0066c0
006340
006600
0c7e00
07e000
00c000
00d000
06d800
0d9800
199800
318000
070000
030000
ENDCHAR
STARTCHAR 255d
ENCODING 9565
SWIDTH 960 0
DWIDTH 14 0
BBX 18 14 -2 -2
BITMAP
000380
0066c0
006680
006700
0c7e00
07e000
00c000
00d000
06d800
0d9800
199800
318000
070000
030000
ENDCHAR
STARTCHAR 255e
ENCODING 9566
SWIDTH 960 0
DWIDTH 14 0
BBX 18 14 -2 -2
BITMAP
000000
000000
000000
0c3e00
07e300
000e00
001800
003000
076000
018000
00c000
006000
000000
000000
ENDCHAR
STARTCHAR 255f
ENCODING 9567
SWIDTH 960 0
DWIDTH 14 0
BBX 18 14 -2 -2
BITMAP
000000
00c000
007000
001800
000c00
030000
018000
00e000
003000
180000
0e0000
038000
00c000
006000
ENDCHAR
STARTCHAR 2560
ENCODING 9568
SWIDTH 960 0
DWIDTH 14 0
BBX 18 14 -2 -2
BITMAP
000000
006000
006000
006000
006000
00c000
018000
01b000
033000
063800
35ec00
1f0c00
000000
000000
ENDCHAR
STARTCHAR 2561
ENCODING 9569
SWIDTH 960 0
DWIDTH 14 0
BBX 18 14 -2 -2
BITMAP
000000
000c00
000c00
000c00
000c00
01d800
006800
003000
006800
00d800
018000
070000
1c0000
700000
ENDCHAR
STARTCHAR 2562
ENCODING 9570
SWIDTH 960 0
DWIDTH 14 0
BBX 18 14 -2 -2
BITMAP
000000
000000
033e00
01e000
00c000
00c000
19fe00
0f8000
018000
030000
030000
01f800
000000
000000
ENDCHAR
STARTCHAR 2563
ENCODING 9571
SWIDTH 960 0
DWIDTH 14 0
BBX 18 14 -2 -2
BITMAP
000000
000000
000000
000000
000000
018000
01bc00
01e800
0fb000
01a000
018000
018000
018000
018000
ENDCHAR
STARTCHAR 2564
ENCODING 9572
SWIDTH 960 0
DWIDTH 14 0
BBX 18 14 -2 -2
BITMAP
000000
018000
018000
019f00
00f600
0dcc00
069800
00d000
00c000
00c000
00c000
00c000
018000
000000
ENDCHAR
STARTCHAR 2565
ENCODING 9573
SWIDTH 960 0
DWIDTH 14 0
BBX 18 14 -2 -2
BITMAP
000000
000000
000000
000000
000000
000000
00f000
07b000
006000
00c000
01f000
1f1800
000000
000000
ENDCHAR
STARTCHAR 2566
ENCODING 9574
SWIDTH 960 0
DWIDTH 14 0
BBX 18 14 -2 -2
BITMAP
000000
000000
000000
000000
067800
03d000
003000
006000
006000
01f800
3f0c00
000000
000000
000000
ENDCHAR
STARTCHAR 2567
ENCODING 9575
SWIDTH 960 0
DWIDTH 14 0
BBX 18 14 -2 -2
BITMAP
000000
000000
000000
000000
000000
00fc00
079800
001800
01f800
0f6000
006000
03e000
1e6000
000000
ENDCHAR
STARTCHAR 2568
ENCODING 9576
SWIDTH 960 0
DWIDTH 14 0
BBX 18 14 -2 -2
BITMAP
000000
000000
007f00
07c600
000600
000c00
00f400
079800
001800
003000
003000
03f000
1e3000
000000
ENDCHAR
STARTCHAR 2569
ENCODING 9577
SWIDTH 960 0
DWIDTH 14 0
BBX 18 14 -2 -2
BITMAP
000000
000000
037c00
01c000
001e00
0df600
070c00
000c00
001800
003000
006000
01c000
070000
1c0000
ENDCHAR
STARTCHAR 256a
ENCODING 9578
SWIDTH 960 0
DWIDTH 14 0
BBX 18 14 -2 -2
BITMAP
000000
000c00
018c00
018c00
018c00
018c00
031800
031800
033000
003000
006000
01c000
030000
060000
ENDCHAR
STARTCHAR 256b
ENCODING 9579
SWIDTH 960 0
DWIDTH 14 0
BBX 18 14 -2 -2
BITMAP
000000
000000
003000
033000
01b000
01b000
036600
036600
066c00
06d800
0cd000
38e000
618000
000000
ENDCHAR
STARTCHAR 256c
ENCODING 9580
SWIDTH 960 0
DWIDTH 14 0
BBX 18 14 -2 -2
BITMAP
000000
030000
030000
030000
030000
030000
060000
060c00
061800
0c7000
0cc000
0f8000
1c0000
000000
ENDCHAR
STARTCHAR 256d
ENCODING 9581
SWIDTH 960 0
DWIDTH 14 0
BBX 18 14 -2 -2
BITMAP
000000
000000
000000
0c7e00
07c600
060c00
060c00
061800
061800
0df000
0f1800
0c0000
000000
000000
ENDCHAR
STARTCHAR 256e
ENCODING 9582
SWIDTH 960 0
DWIDTH 14 0
BBX 18 14 -2 -2
BITMAP
000000
000000
000000
000000
000000
000000
0c7c00
07cc00
061800
063000
066000
00c000
018000
030000
ENDCHAR
STARTCHAR 256f
ENCODING 9583
SWIDTH 960 0
DWIDTH 14 0
BBX 18 14 -2 -2
BITMAP
000000
000000
067f00
07c600
060600
060c00
060c00
061800
003000
006000
00c000
038000
060000
0c0000
ENDCHAR
STARTCHAR 2570
ENCODING 9584
SWIDTH 960 0
DWIDTH 14 0
BBX 18 14 -2 -2
BITMAP
000000
003000
003000
003000
007e00
07d000
066000
036000
03f800
3f4c00
00c000
00c000
018000
018000
ENDCHAR
STARTCHAR 2571
ENCODING 9585
SWIDTH 960 0
DWIDTH 14 0
BBX 18 14 -2 -2
BITMAP
000000
000000
000000
007c00
07d800
00d000
00e000
00c000
00c000
01f800
3f0c00
000000
000000
000000
ENDCHAR
STARTCHAR 2572
ENCODING 9586
SWIDTH 960 0
DWIDTH 14 0
BBX 18 14 -2 -2
BITMAP
000000
000000
007f00
07c600
000600
000c00
00f800
079800
003000
006000
00c000
038000
0e0000
380000
ENDCHAR
STARTCHAR 2573
ENCODING 9587
SWIDTH 960 0
DWIDTH 14 0
BBX 18 14 -2 -2
BITMAP
000000
000000
000000
070000
018300
00c600
000600
000c00
001800
007000
00c000
1b8000
0e0000
000000
ENDCHAR
STARTCHAR 2574
ENCODING 9588
SWIDTH 960 0
DWIDTH 14 0
BBX 18 14 -2 -2
BITMAP
000180
00c6c0
00c6c0
00c600
18fc00
1f9800
181800
0c3000
0c6000
006000
00c000
038000
060000
0c0000
ENDCHAR
STARTCHAR 2575
ENCODING 9589
SWIDTH 960 0
DWIDTH 14 0
BBX 18 14 -2 -2
BITMAP
000000
000000
000000
000000
000000
00c000
00c000
0cf800
079800
033000
033000
066000
1da000
30c000
ENDCHAR
STARTCHAR 2576
ENCODING 9590
SWIDTH 960 0
DWIDTH 14 0
BBX 18 14 -2 -2
BITMAP
000000
000000
000000
000000
000000
030000
030000
033800
07e000
0cc000
18c000
018000
070000
0c0000
ENDCHAR
STARTCHAR 2621
ENCODING 9761
SWIDTH 960 0
DWIDTH 14 0
BBX 18 14 -2 -2
BITMAP
000000
003000
003000
007000
00d000
01b000
033000
061800
07f800
0c1800
181800
3c3c00
000000
000000
ENDCHAR
STARTCHAR 2622
ENCODING 9762
SWIDTH 960 0
DWIDTH 14 0
BBX 18 14 -2 -2
BITMAP
000000
03f800
018c00
030600
030600
031c00
07f000
061800
060c00
0c0c00
0c3800
1fe000
000000
000000
ENDCHAR
STARTCHAR 2623
ENCODING 9763
SWIDTH 960 0
DWIDTH 14 0
BBX 18 14 -2 -2
BITMAP
000000
03fe00
018600
030600
030000
030000
060000
060000
060000
0c0000
0c0000
1e0000
000000
000000
ENDCHAR
STARTCHAR 2624
ENCODING 9764
SWIDTH 960 0
DWIDTH 14 0
BBX 18 14 -2 -2
BITMAP
000000
003000
003000
007000
00d000
01b000
033000
061800
0c1800
0c1800
181800
3ffc00
000000
000000
ENDCHAR
STARTCHAR 2625
ENCODING 9765
SWIDTH 960 0
DWIDTH 14 0
BBX 18 14 -2 -2
BITMAP
000000
07fc00
030c00
060c00
060000
061800
0ff000
0c3000
0c0000
180000
183000
3ff000
000000
000000
ENDCHAR
STARTCHAR 2626
ENCODING 9766
SWIDTH 960 0
DWIDTH 14 0
BBX 18 14 -2 -2
BITMAP
000000
03ff00
060e00
0c1800
003000
006000
00c000
018000
070000
0c0c00
181800
3ff800
000000
000000
ENDCHAR
STARTCHAR 2627
ENCODING 9767
SWIDTH 960 0
DWIDTH 14 0
BBX 18 14 -2 -2
BITMAP
000000
078f00
030600
060c00
060c00
060c00
0ff800
0c1800
0c1800
183000
183000
3c7800
000000
000000
ENDCHAR
STARTCHAR 2628
ENCODING 9768
SWIDTH 960 0
DWIDTH 14 0
BBX 18 14 -2 -2
BITMAP
000000
007800
03cc00
060600
0c0300
0d9b00
1bf600
1b3600
180c00
181800
0e7000
03c000
000000
000000
ENDCHAR
STARTCHAR 2629
ENCODING 9769
SWIDTH 960 0
DWIDTH 14 0
BBX 18 14 -2 -2
BITMAP
000000
00f000
006000
00c000
00c000
00c000
018000
018000
018000
030000
030000
078000
000000
000000
ENDCHAR
STARTCHAR 262a
ENCODING 9770
SWIDTH 960 0
DWIDTH 14 0
BBX 18 14 -2 -2
BITMAP
000000
079e00
031c00
063000
066000
07c000
0e8000
0cc000
0c6000
186000
183000
3c7800
000000
000000
ENDCHAR
STARTCHAR 262b
ENCODING 9771
SWIDTH 960 0
DWIDTH 14 0
BBX 18 14 -2 -2
BITMAP
000000
003000
003000
007000
00d000
01b000
033000
061800
0c1800
0c1800
181800
3c3c00
000000
000000
ENDCHAR
STARTCHAR 262c
ENCODING 9772
SWIDTH 960 0
DWIDTH 14 0
BBX 18 14 -2 -2
BITMAP
000000
0e0380
070700
0e0e00
0d1a00
0d3600
1b6c00
1b4c00
1b8c00
331800
301800
783c00
000000
000000
ENDCHAR
STARTCHAR 262d
ENCODING 9773
SWIDTH 960 0
DWIDTH 14 0
BBX 18 14 -2 -2
BITMAP
000000
070f00
038600
070c00
068c00
06cc00
0cd800
0cd800
0c6800
187000
187000
3c3000
000000
000000
ENDCHAR
STARTCHAR 262e
ENCODING 9774
SWIDTH 960 0
DWIDTH 14 0
BBX 18 14 -2 -2
BITMAP
000000
03ff00
060600
0c0c00
000000
060c00
0ff800
0c1800
000000
000000
181800
183000
7fe000
000000
ENDCHAR
STARTCHAR 262f
ENCODING 9775
SWIDTH 960 0
DWIDTH 14 0
BBX 18 14 -2 -2
BITMAP
000000
007800
03cc00
060600
0c0300
0c0300
180600
180600
180c00
181800
0e7000
03c000
000000
000000
ENDCHAR
STARTCHAR 2630
ENCODING 9776
SWIDTH 960 0
DWIDTH 14 0
BBX 18 14 -2 -2
BITMAP
000000
07ff00
030600
060c00
060c00
060c00
0c1800
0c1800
0c1800
183000
183000
3c7800
000000
000000
ENDCHAR
STARTCHAR 2631
ENCODING 9777
SWIDTH 960 0
DWIDTH 14 0
BBX 18 14 -2 -2
BITMAP
000000
07f000
031800
060c00
060c00
063800
0fe000
0c0000
0c0000
180000
180000
3c0000
000000
000000
ENDCHAR
STARTCHAR 2632
ENCODING 9778
SWIDTH 960 0
DWIDTH 14 0
BBX 18 14 -2 -2
BITMAP
000000
07fc00
030c00
030c00
018000
00c000
00c000
00c000
018000
071800
0c3000
3ff000
000000
000000
ENDCHAR
STARTCHAR 2633
ENCODING 9779
SWIDTH 960 0
DWIDTH 14 0
BBX 18 14 -2 -2
BITMAP
000000
07fe00
0c6600
18c600
00c000
00c000
018000
018000
018000
030000
030000
078000
000000
000000
ENDCHAR
STARTCHAR 2634
ENCODING 9780
SWIDTH 960 0
DWIDTH 14 0
BBX 18 14 -2 -2
BITMAP
000000
079c00
0cf600
18c600
00c000
00c000
018000
018000
018000
030000
030000
078000
000000
000000
ENDCHAR
STARTCHAR 2635
ENCODING 9781
SWIDTH 960 0
DWIDTH 14 0
BBX 18 14 -2 -2
BITMAP
000000
007800
003000
01f800
076c00
0c6600
18c600
18c600
0edc00
03f000
018000
03c000
000000
000000
ENDCHAR
STARTCHAR 2636
ENCODING 9782
SWIDTH 960 0
DWIDTH 14 0
BBX 18 14 -2 -2
BITMAP
000000
078f00
030e00
031800
01b000
00e000
00c000
01a000
073000
0c3000
181800
3c3c00
000000
000000
ENDCHAR
STARTCHAR 2637
ENCODING 9783
SWIDTH 960 0
DWIDTH 14 0
BBX 18 14 -2 -2
BITMAP
000000
00f000
0c6700
0ccc00
06d800
06d800
06b000
06a000
03c000
030000
030000
078000
000000
000000
ENDCHAR
STARTCHAR 2638
ENCODING 9784
SWIDTH 960 0
DWIDTH 14 0
BBX 18 14 -2 -2
BITMAP
000000
007000
03d800
060c00
0c0600
0c0600
0c0c00
0c1800
063000
066000
36d800
3ef800
000000
000000
ENDCHAR
STARTCHAR 2641
ENCODING 9793
SWIDTH 960 0
DWIDTH 14 0
BBX 18 14 -2 -2
BITMAP
000000
000000
000000
000c00
00ec00
03b800
061800
0c3000
0c3000
0ce000
0da000
073800
000000
000000
ENDCHAR
STARTCHAR 2642
ENCODING 9794
SWIDTH 960 0
DWIDTH 14 0
BBX 18 14 -2 -2
BITMAP
000000
001c00
003600
006600
00c600
019c00
037000
031800
061800
0c3000
0e6000
1bc000
180000
300000
ENDCHAR
STARTCHAR 2643
ENCODING 9795
SWIDTH 960 0
DWIDTH 14 0
BBX 18 14 -2 -2
BITMAP
000000
000000
000000
000000
01ce00
035800
00e000
00c000
018000
018000
030000
030000
060000
000000
ENDCHAR
STARTCHAR 2644
ENCODING 9796
SWIDTH 960 0
DWIDTH 14 0
BBX 18 14 -2 -2
BITMAP
000000
007800
00cc00
00c600
00c000
01e000
033000
063000
066000
0cc000
0d8000
070000
000000
000000
ENDCHAR
STARTCHAR 2645
ENCODING 9797
SWIDTH 960 0
DWIDTH 14 0
BBX 18 14 -2 -2
BITMAP
000000
000000
000000
000000
00f000
019800
018000
01e000
030000
060000
0c6000
07c000
000000
000000
ENDCHAR
STARTCHAR 2646
ENCODING 9798
SWIDTH 960 0
DWIDTH 14 0
BBX 18 14 -2 -2
BITMAP
000000
00c000
01bc00
00e000
00c000
018000
030000
060000
060000
030000
018000
00c000
0ec000
078000
ENDCHAR
STARTCHAR 2647
ENCODING 9799
SWIDTH 960 0
DWIDTH 14 0
BBX 18 14 -2 -2
BITMAP
000000
000000
000000
000000
03b000
06a800
019800
031800
063000
063000
0c6000
0cc000
018000
018000
ENDCHAR
STARTCHAR 2648
ENCODING 9800
SWIDTH 960 0
DWIDTH 14 0
BBX 18 14 -2 -2
BITMAP
000000
001c00
007600
00c600
018600
018c00
03f800
061800
063000
0c6000
0cc000
078000
000000
000000
ENDCHAR
STARTCHAR 2649
ENCODING 9801
SWIDTH 960 0
DWIDTH 14 0
BBX 18 14 -2 -2
BITMAP
000000
000000
000000
000000
006000
00c000
018000
030000
030000
060000
06c000
038000
000000
000000
ENDCHAR
STARTCHAR 264a
ENCODING 9802
SWIDTH 960 0
DWIDTH 14 0
BBX 18 14 -2 -2
BITMAP
000000
000000
000000
000000
018e00
01b800
034000
078000
0d8000
0d8000
19b000
18e000
000000
000000
ENDCHAR
STARTCHAR 264b
ENCODING 9803
SWIDTH 960 0
DWIDTH 14 0
BBX 18 14 -2 -2
BITMAP
000000
007000
001800
001800
003800
006800
00d000
01b000
033000
066000
0c6000
0c3800
000000
000000
ENDCHAR
STARTCHAR 264c
ENCODING 9804
SWIDTH 960 0
DWIDTH 14 0
BBX 18 14 -2 -2
BITMAP
000000
000000
000000
000000
018c00
019800
031800
033000
063000
0c6000
0eec00
1bb800
180000
300000
ENDCHAR
STARTCHAR 264d
ENCODING 9805
SWIDTH 960 0
DWIDTH 14 0
BBX 18 14 -2 -2
BITMAP
000000
000000
000000
000000
030c00
031800
031800
033000
036000
068000
070000
0c0000
000000
000000
ENDCHAR
STARTCHAR 264e
ENCODING 9806
SWIDTH 960 0
DWIDTH 14 0
BBX 18 14 -2 -2
BITMAP
007000
00ce00
00d800
00c000
018000
018000
01e000
033000
060000
060000
030000
018000
00c000
0f8000
ENDCHAR
STARTCHAR 264f
ENCODING 9807
SWIDTH 960 0
DWIDTH 14 0
BBX 18 14 -2 -2
BITMAP
000000
000000
000000
000000
003800
01ec00
030c00
060c00
061800
063000
06e000
038000
000000
000000
ENDCHAR
STARTCHAR 2650
ENCODING 9808
SWIDTH 960 0
DWIDTH 14 0
BBX 18 14 -2 -2
BITMAP
000000
000000
000000
038300
06fe00
0db000
01b000
036000
066000
0cc000
0cc000
387000
000000
000000
ENDCHAR
STARTCHAR 2651
ENCODING 9809
SWIDTH 960 0
DWIDTH 14 0
BBX 18 14 -2 -2
BITMAP
000000
000000
000000
000000
003800
00ec00
018c00
030c00
031800
0e3000
0e6000
1bc000
180000
300000
ENDCHAR
STARTCHAR 2652
ENCODING 9810
SWIDTH 960 0
DWIDTH 14 0
BBX 18 14 -2 -2
BITMAP
000000
000000
000000
000000
007e00
03d000
063000
0c3000
0c6000
18c000
198000
0f0000
000000
000000
ENDCHAR
STARTCHAR 2653
ENCODING 9811
SWIDTH 960 0
DWIDTH 14 0
BBX 18 14 -2 -2
BITMAP
000000
000000
000000
000000
01ce00
075800
0cc000
018000
030000
030000
06c000
038000
000000
000000
ENDCHAR
STARTCHAR 2654
ENCODING 9812
SWIDTH 960 0
DWIDTH 14 0
BBX 18 14 -2 -2
BITMAP
000000
000000
000000
000000
019800
031800
031800
061800
063000
0c6000
0cc000
078000
000000
000000
ENDCHAR
STARTCHAR 2655
ENCODING 9813
SWIDTH 960 0
DWIDTH 14 0
BBX 18 14 -2 -2
BITMAP
000000
001800
001800
003000
00f000
03a800
06d800
0cd800
0db000
0d6000
0d4000
0f8000
0c0000
0c0000
ENDCHAR
STARTCHAR 2656
ENCODING 9814
SWIDTH 960 0
DWIDTH 14 0
BBX 18 14 -2 -2
BITMAP
000000
00c300
01a600
006c00
006800
007000
00c000
01c000
034000
068000
0d8000
198000
31a000
60c000
ENDCHAR
STARTCHAR 2657
ENCODING 9815
SWIDTH 960 0
DWIDTH 14 0
BBX 18 14 -2 -2
BITMAP
000000
001800
001800
003000
0c3400
1a6c00
06cc00
06cc00
0d9800
1b7000
1bc000
0f0000
0c0000
0c0000
ENDCHAR
STARTCHAR 2658
ENCODING 9816
SWIDTH 960 0
DWIDTH 14 0
BBX 18 14 -2 -2
BITMAP
000000
000000
000000
000000
030c00
060c00
0ccc00
198c00
199800
333000
376000
1dc000
000000
000000
ENDCHAR
STARTCHAR 2721
ENCODING 10017
SWIDTH 960 0
DWIDTH 14 0
BBX 18 14 -2 -2
BITMAP
000000
003000
003000
007000
00d000
01b000
033000
061800
07f800
0c1800
181800
3c3c00
000000
000000
ENDCHAR
STARTCHAR 2722
ENCODING 10018
SWIDTH 960 0
DWIDTH 14 0
BBX 18 14 -2 -2
BITMAP
000000
03fe00
018600
030600
030000
030000
07f000
061800
060c00
0c0c00
0c3800
1fe000
000000
000000
ENDCHAR
STARTCHAR 2723
ENCODING 10019
SWIDTH 960 0
DWIDTH 14 0
BBX 18 14 -2 -2
BITMAP
000000
03f800
018c00
030600
030600
031c00
07f000
061800
060c00
0c0c00
0c3800
1fe000
000000
000000
ENDCHAR
STARTCHAR 2724
ENCODING 10020
SWIDTH 960 0
DWIDTH 14 0
BBX 18 14 -2 -2
BITMAP
000000
03fe00
018600
030600
030000
030000
060000
060000
060000
0c0000
0c0000
1e0000
000000
000000
ENDCHAR
STARTCHAR 2725
ENCODING 10021
SWIDTH 960 0
DWIDTH 14 0
BBX 18 14 -2 -2
BITMAP
000000
01ff00
00c600
018c00
018c00
018c00
031800
031800
061800
063000
0c3000
3ffc00
601800
601800
ENDCHAR
STARTCHAR 2726
ENCODING 10022
SWIDTH 960 0
DWIDTH 14 0
BBX 18 14 -2 -2
BITMAP
000000
07fc00
030c00
060c00
060000
061800
0ff000
0c3000
0c0000
180000
183000
3ff000
000000
000000
ENDCHAR
STARTCHAR 2727
ENCODING 10023
SWIDTH 960 0
DWIDTH 14 0
BBX 18 14 -2 -2
BITMAP
01b000
01b000
07f800
060c00
060000
063000
0fe000
0c6000
0c0000
180000
183000
3ff000
000000
000000
ENDCHAR
STARTCHAR 2728
ENCODING 10024
SWIDTH 960 0
DWIDTH 14 0
BBX 18 14 -2 -2
BITMAP
000000
077b80
073680
036c00
036c00
036800
03e800
035000
06d800
0d9800
199800
3bdc00
000000
000000
ENDCHAR
STARTCHAR 2729
ENCODING 10025
SWIDTH 960 0
DWIDTH 14 0
BBX 18 14 -2 -2
BITMAP
000000
007800
03cc00
060600
000600
001c00
01f000
003800
001800
181800
0e7000
03c000
000000
000000
ENDCHAR
STARTCHAR 272a
ENCODING 10026
SWIDTH 960 0
DWIDTH 14 0
BBX 18 14 -2 -2
BITMAP
000000
078700
030e00
061c00
063400
066c00
0cd800
0d9800
0f1800
1c3000
1c3000
187800
000000
000000
ENDCHAR
STARTCHAR 272b
ENCODING 10027
SWIDTH 960 0
DWIDTH 14 0
BBX 18 14 -2 -2
BITMAP
00d800
007000
078700
061c00
063400
066c00
0cd800
0d9800
0f1800
1c3000
1c3000
187800
000000
000000
ENDCHAR
STARTCHAR 272c
ENCODING 10028
SWIDTH 960 0
DWIDTH 14 0
BBX 18 14 -2 -2
BITMAP
000000
078e00
033b00
066000
06c000
07c000
0e8000
0cc000
0c6000
186000
183000
3c7800
000000
000000
ENDCHAR
STARTCHAR 272d
ENCODING 10029
SWIDTH 960 0
DWIDTH 14 0
BBX 18 14 -2 -2
BITMAP
000000
007f80
006300
00c600
00c600
00c600
018c00
018c00
030c00
331800
361800
1c3c00
000000
000000
ENDCHAR
STARTCHAR 272e
ENCODING 10030
SWIDTH 960 0
DWIDTH 14 0
BBX 18 14 -2 -2
BITMAP
000000
070700
030600
071c00
073400
0d6c00
0d6c00
19cc00
198c00
331800
301800
783c00
000000
000000
ENDCHAR
STARTCHAR 272f
ENCODING 10031
SWIDTH 960 0
DWIDTH 14 0
BBX 18 14 -2 -2
BITMAP
000000
078f00
030600
060c00
060c00
060c00
0ff800
0c1800
0c1800
183000
183000
3c7800
000000
000000
ENDCHAR
STARTCHAR 2730
ENCODING 10032
SWIDTH 960 0
DWIDTH 14 0
BBX 18 14 -2 -2
BITMAP
000000
007800
03cc00
060600
0c0300
0c0300
180600
180600
180c00
181800
0e7000
03c000
000000
000000
ENDCHAR
STARTCHAR 2731
ENCODING 10033
SWIDTH 960 0
DWIDTH 14 0
BBX 18 14 -2 -2
BITMAP
000000
07ff00
030600
060c00
060c00
060c00
0c1800
0c1800
0c1800
183000
183000
3c7800
000000
000000
ENDCHAR
STARTCHAR 2732
ENCODING 10034
SWIDTH 960 0
DWIDTH 14 0
BBX 18 14 -2 -2
BITMAP
000000
07f000
031800
060c00
060c00
063800
0fe000
0c0000
0c0000
180000
180000
3c0000
000000
000000
ENDCHAR
STARTCHAR 2733
ENCODING 10035
SWIDTH 960 0
DWIDTH 14 0
BBX 18 14 -2 -2
BITMAP
000000
007d00
03c700
060600
0c0000
0c0000
180000
180000
180000
181800
0e3000
03e000
000000
000000
ENDCHAR
STARTCHAR 2734
ENCODING 10036
SWIDTH 960 0
DWIDTH 14 0
BBX 18 14 -2 -2
BITMAP
000000
07fe00
0c6600
18c600
00c000
00c000
018000
018000
018000
030000
030000
078000
000000
000000
ENDCHAR
STARTCHAR 2735
ENCODING 10037
SWIDTH 960 0
DWIDTH 14 0
BBX 18 14 -2 -2
BITMAP
000000
078780
030600
030600
030c00
019800
019800
01b000
00e000
00c000
018000
030000
060000
1c0000
ENDCHAR
STARTCHAR 2736
ENCODING 10038
SWIDTH 960 0
DWIDTH 14 0
BBX 18 14 -2 -2
BITMAP
000000
007800
003000
01f800
076c00
0c6600
18c600
18c600
0edc00
03f000
018000
03c000
000000
000000
ENDCHAR
STARTCHAR 2737
ENCODING 10039
SWIDTH 960 0
DWIDTH 14 0
BBX 18 14 -2 -2
BITMAP
000000
078f00
030e00
031800
01b000
00e000
00c000
01a000
073000
0c3000
181800
3c3c00
000000
000000
ENDCHAR
STARTCHAR 2738
ENCODING 10040
SWIDTH 960 0
DWIDTH 14 0
BBX 18 14 -2 -2
BITMAP
000000
078f00
030600
060c00
060c00
060c00
0c1800
0c1800
0c1800
183000
183000
3ffc00
001800
001800
ENDCHAR
STARTCHAR 2739
ENCODING 10041
SWIDTH 960 0
DWIDTH 14 0
BBX 18 14 -2 -2
BITMAP
000000
078f00
030600
060c00
060c00
060c00
063800
066800
03d800
003000
003000
007800
000000
000000
ENDCHAR
STARTCHAR 273a
ENCODING 10042
SWIDTH 960 0
DWIDTH 14 0
BBX 18 14 -2 -2
BITMAP
000000
07bb80
033300
066600
066600
066600
0ccc00
0ccc00
0ccc00
199800
199800
3ffc00
000000
000000
ENDCHAR
STARTCHAR 273b
ENCODING 10043
SWIDTH 960 0
DWIDTH 14 0
BBX 18 14 -2 -2
BITMAP
000000
07bb80
033300
066600
066600
066600
0ccc00
0ccc00
0ccc00
199800
199800
3ff800
001800
001800
ENDCHAR
STARTCHAR 273c
ENCODING 10044
SWIDTH 960 0
DWIDTH 14 0
BBX 18 14 -2 -2
BITMAP
000000
03f000
066000
0cc000
00c000
00f800
018c00
018600
018600
030c00
033800
07e000
000000
000000
ENDCHAR
STARTCHAR 273d
ENCODING 10045
SWIDTH 960 0
DWIDTH 14 0
BBX 18 14 -2 -2
BITMAP
000000
078f00
030600
060c00
060c00
078c00
0cd800
0c6800
0c6800
18d000
1bb000
3e7800
000000
000000
ENDCHAR
STARTCHAR 273e
ENCODING 10046
SWIDTH 960 0
DWIDTH 14 0
BBX 18 14 -2 -2
BITMAP
000000
01e000
00c000
018000
018000
01f000
031800
030c00
030c00
061800
067000
0fc000
000000
000000
ENDCHAR
STARTCHAR 273f
ENCODING 10047
SWIDTH 960 0
DWIDTH 14 0
BBX 18 14 -2 -2
BITMAP
000000
007800
03cc00
060600
000600
038300
06de00
007600
000c00
181800
0e7000
03c000
000000
000000
ENDCHAR
STARTCHAR 2740
ENCODING 10048
SWIDTH 960 0
DWIDTH 14 0
BBX 18 14 -2 -2
BITMAP
000000
079c00
033600
066600
06c300
06c300
0f8600
0d8600
0d8c00
198c00
199800
3cf000
000000
000000
ENDCHAR
STARTCHAR 2741
ENCODING 10049
SWIDTH 960 0
DWIDTH 14 0
BBX 18 14 -2 -2
BITMAP
000000
007f00
01c600
030c00
060c00
030c00
01f800
031800
061800
0c3000
183000
3c7800
000000
000000
ENDCHAR
STARTCHAR 2751
ENCODING 10065
SWIDTH 960 0
DWIDTH 14 0
BBX 18 14 -2 -2
BITMAP
000000
000000
000000
000000
01e000
033000
063000
01f000
073000
0c6000
18e000
0fb000
000000
000000
ENDCHAR
STARTCHAR 2752
ENCODING 10066
SWIDTH 960 0
DWIDTH 14 0
BBX 18 14 -2 -2
BITMAP
000300
001e00
007000
00c000
01b000
03d800
060c00
060c00
060c00
061800
037000
01c000
000000
000000
ENDCHAR
STARTCHAR 2753
ENCODING 10067
SWIDTH 960 0
DWIDTH 14 0
BBX 18 14 -2 -2
BITMAP
000000
000000
000000
000000
03f000
019800
031800
03f000
031800
061800
061800
0ff000
000000
000000
ENDCHAR
STARTCHAR 2754
ENCODING 10068
SWIDTH 960 0
DWIDTH 14 0
BBX 18 14 -2 -2
BITMAP
000000
000000
000000
000000
07f800
031800
061800
060000
060000
0c0000
0c0000
1e0000
000000
000000
ENDCHAR
STARTCHAR 2755
ENCODING 10069
SWIDTH 960 0
DWIDTH 14 0
BBX 18 14 -2 -2
BITMAP
000000
000000
000000
000000
01fe00
018c00
031800
031800
031800
063000
0c3000
3ff000
606000
606000
ENDCHAR
STARTCHAR 2756
ENCODING 10070
SWIDTH 960 0
DWIDTH 14 0
BBX 18 14 -2 -2
BITMAP
000000
000000
000000
000000
01f000
031800
061800
0ff800
0c0000
0c3000
066000
03c000
000000
000000
ENDCHAR
STARTCHAR 2757
ENCODING 10071
SWIDTH 960 0
DWIDTH 14 0
BBX 18 14 -2 -2
BITMAP
000000
00d800
00d800
000000
01f000
031800
061800
0ff800
0c0000
0c3000
066000
03c000
000000
000000
ENDCHAR
STARTCHAR 2758
ENCODING 10072
SWIDTH 960 0
DWIDTH 14 0
BBX 18 14 -2 -2
BITMAP
000000
000000
000000
000000
0ef700
036c00
035000
01e000
035000
06b000
0db000
3bdc00
000000
000000
ENDCHAR
STARTCHAR 2759
ENCODING 10073
SWIDTH 960 0
DWIDTH 14 0
BBX 18 14 -2 -2
BITMAP
000000
000000
000000
000000
01f000
071c00
0c1800
01f000
003000
183000
0c6000
07c000
000000
000000
ENDCHAR
STARTCHAR 275a
ENCODING 10074
SWIDTH 960 0
DWIDTH 14 0
BBX 18 14 -2 -2
BITMAP
000000
000000
000000
000000
0f1e00
063c00
0c6800
0cd800
0d9800
1a3000
1c3000
3c7800
000000
000000
ENDCHAR
STARTCHAR 275b
ENCODING 10075
SWIDTH 960 0
DWIDTH 14 0
BBX 18 14 -2 -2
BITMAP
000000
000000
00d800
006000
0f1e00
063c00
0c6800
0cd800
0d9800
1a3000
1c3000
3c7800
000000
000000
ENDCHAR
STARTCHAR 275c
ENCODING 10076
SWIDTH 960 0
DWIDTH 14 0
BBX 18 14 -2 -2
BITMAP
000000
000000
000000
000000
079c00
033400
066000
07c000
066000
0c6000
0c3000
1e7800
000000
000000
ENDCHAR
STARTCHAR 275d
ENCODING 10077
SWIDTH 960 0
DWIDTH 14 0
BBX 18 14 -2 -2
BITMAP
000000
000000
000000
000000
01fe00
00cc00
019800
019800
031800
333000
363000
1c7800
000000
000000
ENDCHAR
STARTCHAR 275e
ENCODING 10078
SWIDTH 960 0
DWIDTH 14 0
BBX 18 14 -2 -2
BITMAP
000000
000000
000000
000000
0f0f00
070e00
0d1c00
0d3400
0d6c00
1b5800
199800
3c3c00
000000
000000
ENDCHAR
STARTCHAR 275f
ENCODING 10079
SWIDTH 960 0
DWIDTH 14 0
BBX 18 14 -2 -2
BITMAP
000000
000000
000000
000000
079e00
030c00
061800
07f800
061800
0c3000
0c3000
1e7800
000000
000000
ENDCHAR
STARTCHAR 2760
ENCODING 10080
SWIDTH 960 0
DWIDTH 14 0
BBX 18 14 -2 -2
BITMAP
000000
000000
000000
000000
01f000
031800
061800
0c1800
0c1800
0c3000
0c6000
07c000
000000
000000
ENDCHAR
STARTCHAR 2761
ENCODING 10081
SWIDTH 960 0
DWIDTH 14 0
BBX 18 14 -2 -2
BITMAP
000000
000000
000000
000000
07fe00
030c00
061800
061800
061800
0c3000
0c3000
1e7800
000000
000000
ENDCHAR
STARTCHAR 2762
ENCODING 10082
SWIDTH 960 0
DWIDTH 14 0
BBX 18 14 -2 -2
BITMAP
000000
000000
000000
000000
037000
039800
061800
061800
061800
0c3000
0e6000
0dc000
180000
3c0000
ENDCHAR
STARTCHAR 2763
ENCODING 10083
SWIDTH 960 0
DWIDTH 14 0
BBX 18 14 -2 -2
BITMAP
000000
000000
000000
000000
01f000
031800
061800
0c0000
0c0000
0c3000
0c6000
07c000
000000
000000
ENDCHAR
STARTCHAR 2764
ENCODING 10084
SWIDTH 960 0
DWIDTH 14 0
BBX 18 14 -2 -2
BITMAP
000000
000000
000000
000000
03fc00
066c00
0ccc00
00c000
00c000
018000
018000
03c000
000000
000000
ENDCHAR
STARTCHAR 2765
ENCODING 10085
SWIDTH 960 0
DWIDTH 14 0
BBX 18 14 -2 -2
BITMAP
000000
000000
000000
000000
079e00
031800
031800
033000
036000
036000
01c000
030000
060000
1c0000
ENDCHAR
STARTCHAR 2766
ENCODING 10086
SWIDTH 960 0
DWIDTH 14 0
BBX 18 14 -2 -2
BITMAP
000000
007800
003000
006000
03ac00
06f600
0cc600
18c600
18c600
198c00
1bd800
0eb000
030000
078000
ENDCHAR
STARTCHAR 2767
ENCODING 10087
SWIDTH 960 0
DWIDTH 14 0
BBX 18 14 -2 -2
BITMAP
000000
000000
000000
000000
071c00
033000
036000
01c000
03c000
06c000
0c6000
1c7000
000000
000000
ENDCHAR
STARTCHAR 2768
ENCODING 10088
SWIDTH 960 0
DWIDTH 14 0
BBX 18 14 -2 -2
BITMAP
000000
000000
000000
000000
079e00
030c00
061800
061800
061800
0c3000
0c3000
1ff000
003000
003000
ENDCHAR
STARTCHAR 2769
ENCODING 10089
SWIDTH 960 0
DWIDTH 14 0
BBX 18 14 -2 -2
BITMAP
000000
000000
000000
000000
079e00
030c00
061800
063800
03e800
003000
003000
007800
000000
000000
ENDCHAR
STARTCHAR 276a
ENCODING 10090
SWIDTH 960 0
DWIDTH 14 0
BBX 18 14 -2 -2
BITMAP
000000
000000
000000
000000
0f7700
066600
0ccc00
0ccc00
0ccc00
199800
199800
1ffc00
000000
000000
ENDCHAR
STARTCHAR 276b
ENCODING 10091
SWIDTH 960 0
DWIDTH 14 0
BBX 18 14 -2 -2
BITMAP
000000
000000
000000
000000
0f7700
066600
0ccc00
0ccc00
0ccc00
199800
199800
1ff800
001800
001800
ENDCHAR
STARTCHAR 276c
ENCODING 10092
SWIDTH 960 0
DWIDTH 14 0
BBX 18 14 -2 -2
BITMAP
000000
000000
000000
000000
07e000
0cc000
198000
01f000
019c00
031800
033800
07e000
000000
000000
ENDCHAR
STARTCHAR 276d
ENCODING 10093
SWIDTH 960 0
DWIDTH 14 0
BBX 18 14 -2 -2
BITMAP
000000
000000
000000
000000
079e00
030c00
061800
079800
06e800
0cd000
0dd000
1f7800
000000
000000
ENDCHAR
STARTCHAR 276e
ENCODING 10094
SWIDTH 960 0
DWIDTH 14 0
BBX 18 14 -2 -2
BITMAP
000000
000000
000000
000000
03c000
018000
030000
03e000
033800
063000
067000
0fc000
000000
000000
ENDCHAR
STARTCHAR 276f
ENCODING 10095
SWIDTH 960 0
DWIDTH 14 0
BBX 18 14 -2 -2
BITMAP
000000
000000
000000
000000
01f000
071c00
0c1800
01dc00
036800
183000
0c6000
07c000
000000
000000
ENDCHAR
STARTCHAR 2770
ENCODING 10096
SWIDTH 960 0
DWIDTH 14 0
BBX 18 14 -2 -2
BITMAP
000000
000000
000000
000000
0f3800
066c00
0ccc00
0f8c00
0d8c00
199800
19b000
3ce000
000000
000000
ENDCHAR
STARTCHAR 2771
ENCODING 10097
SWIDTH 960 0
DWIDTH 14 0
BBX 18 14 -2 -2
BITMAP
000000
000000
000000
000000
01fc00
031800
063000
063000
07f000
066000
0c6000
1ef000
000000
000000
ENDCHAR
STARTCHAR 2821
ENCODING 10273
SWIDTH 960 0
DWIDTH 14 0
BBX 18 14 -2 -2
BITMAP
000000
000000
000000
000000
000000
000000
000000
7fff00
000000
000000
000000
000000
000000
000000
ENDCHAR
STARTCHAR 2822
ENCODING 10274
SWIDTH 960 0
DWIDTH 14 0
BBX 18 14 -2 -2
BITMAP
003000
003000
003000
006000
006000
006000
00c000
00c000
00c000
018000
018000
018000
030000
030000
ENDCHAR
STARTCHAR 2823
ENCODING 10275
SWIDTH 960 0
DWIDTH 14 0
BBX 18 14 -2 -2
BITMAP
000000
000000
000000
000000
000000
000000
000000
00ff00
00c000
018000
018000
018000
030000
030000
ENDCHAR
STARTCHAR 2824
ENCODING 10276
SWIDTH 960 0
DWIDTH 14 0
BBX 18 14 -2 -2
BITMAP
000000
000000
000000
000000
000000
000000
000000
7fc000
00c000
018000
018000
018000
030000
030000
ENDCHAR
STARTCHAR 2825
ENCODING 10277
SWIDTH 960 0
DWIDTH 14 0
BBX 18 14 -2 -2
BITMAP
003000
003000
003000
006000
006000
006000
00c000
7fc000
000000
000000
000000
000000
000000
000000
ENDCHAR
STARTCHAR 2826
ENCODING 10278
SWIDTH 960 0
DWIDTH 14 0
BBX 18 14 -2 -2
BITMAP
003000
003000
003000
006000
006000
006000
00c000
00ff00
000000
000000
000000
000000
000000
000000
ENDCHAR
STARTCHAR 2827
ENCODING 10279
SWIDTH 960 0
DWIDTH 14 0
BBX 18 14 -2 -2
BITMAP
003000
003000
003000
006000
006000
006000
00c000
00ff00
00c000
018000
018000
018000
030000
030000
ENDCHAR
STARTCHAR 2828
ENCODING 10280
SWIDTH 960 0
DWIDTH 14 0
BBX 18 14 -2 -2
BITMAP
000000
000000
000000
000000
000000
000000
000000
7fff00
00c000
018000
018000
018000
030000
030000
ENDCHAR
STARTCHAR 2829
ENCODING 10281
SWIDTH 960 0
DWIDTH 14 0
BBX 18 14 -2 -2
BITMAP
003000
003000
003000
006000
006000
006000
00c000
7fc000
00c000
018000
018000
018000
030000
030000
ENDCHAR
STARTCHAR 282a
ENCODING 10282
SWIDTH 960 0
DWIDTH 14 0
BBX 18 14 -2 -2
BITMAP
003000
003000
003000
006000
006000
006000
00c000
7fff00
000000
000000
000000
000000
000000
000000
ENDCHAR
STARTCHAR 282b
ENCODING 10283
SWIDTH 960 0
DWIDTH 14 0
BBX 18 14 -2 -2
BITMAP
003000
003000
003000
006000
006000
006000
00c000
7fff00
00c000
018000
018000
018000
030000
030000
ENDCHAR
STARTCHAR 282c
ENCODING 10284
SWIDTH 960 0
DWIDTH 14 0
BBX 18 14 -2 -2
BITMAP
000000
000000
000000
000000
000000
000000
7fff00
7fff00
000000
000000
000000
000000
000000
000000
ENDCHAR
STARTCHAR 282d
ENCODING 10285
SWIDTH 960 0
DWIDTH 14 0
BBX 18 14 -2 -2
BITMAP
007000
007000
007000
00e000
00e000
00e000
01c000
01c000
01c000
038000
038000
038000
070000
070000
ENDCHAR
STARTCHAR 282e
ENCODING 10286
SWIDTH 960 0
DWIDTH 14 0
BBX 18 14 -2 -2
BITMAP
000000
000000
000000
000000
000000
000000
01ff00
01ff00
01c000
038000
038000
038000
070000
070000
ENDCHAR
STARTCHAR 282f
ENCODING 10287
SWIDTH 960 0
DWIDTH 14 0
BBX 18 14 -2 -2
BITMAP
000000
000000
000000
000000
000000
000000
7fc000
7fc000
01c000
038000
038000
038000
070000
070000
ENDCHAR
STARTCHAR 2830
ENCODING 10288
SWIDTH 960 0
DWIDTH 14 0
BBX 18 14 -2 -2
BITMAP
007000
007000
007000
00e000
00e000
00e000
7fc000
7fc000
000000
000000
000000
000000
000000
000000
ENDCHAR
STARTCHAR 2831
ENCODING 10289
SWIDTH 960 0
DWIDTH 14 0
BBX 18 14 -2 -2
BITMAP
007000
007000
007000
00e000
00e000
00e000
01ff00
01ff00
000000
000000
000000
000000
000000
000000
ENDCHAR
STARTCHAR 2832
ENCODING 10290
SWIDTH 960 0
DWIDTH 14 0
BBX 18 14 -2 -2
BITMAP
007000
007000
007000
00e000
00e000
00e000
01ff00
01ff00
01c000
038000
038000
038000
070000
070000
ENDCHAR
STARTCHAR 2833
ENCODING 10291
SWIDTH 960 0
DWIDTH 14 0
BBX 18 14 -2 -2
BITMAP
000000
000000
000000
000000
000000
000000
7fff00
7fff00
01c000
038000
038000
038000
070000
070000
ENDCHAR
STARTCHAR 2834
ENCODING 10292
SWIDTH 960 0
DWIDTH 14 0
BBX 18 14 -2 -2
BITMAP
007000
007000
007000
00e000
00e000
00e000
7fc000
7fc000
01c000
038000
038000
038000
070000
070000
ENDCHAR
STARTCHAR 2835
ENCODING 10293
SWIDTH 960 0
DWIDTH 14 0
BBX 18 14 -2 -2
BITMAP
007000
007000
007000
00e000
00e000
00e000
7fff00
7fff00
000000
000000
000000
000000
000000
000000
ENDCHAR
STARTCHAR 2836
ENCODING 10294
SWIDTH 960 0
DWIDTH 14 0
BBX 18 14 -2 -2
BITMAP
007000
007000
007000
00e000
00e000
00e000
7fff00
7fff00
01c000
038000
038000
038000
070000
070000
ENDCHAR
STARTCHAR 2837
ENCODING 10295
SWIDTH 960 0
DWIDTH 14 0
BBX 18 14 -2 -2
BITMAP
007000
007000
007000
00e000
00e000
00e000
01c000
01ff00
01c000
038000
038000
038000
070000
070000
ENDCHAR
STARTCHAR 2838
ENCODING 10296
SWIDTH 960 0
DWIDTH 14 0
BBX 18 14 -2 -2
BITMAP
000000
000000
000000
000000
000000
000000
7fff00
7fff00
00c000
018000
018000
018000
030000
030000
ENDCHAR
STARTCHAR 2839
ENCODING 10297
SWIDTH 960 0
DWIDTH 14 0
BBX 18 14 -2 -2
BITMAP
007000
007000
007000
00e000
00e000
00e000
01c000
7fc000
01c000
038000
038000
038000
070000
070000
ENDCHAR
STARTCHAR 283a
ENCODING 10298
SWIDTH 960 0
DWIDTH 14 0
BBX 18 14 -2 -2
BITMAP
003000
003000
003000
006000
006000
006000
7fff00
7fff00
000000
000000
000000
000000
000000
000000
ENDCHAR
STARTCHAR 283b
ENCODING 10299
SWIDTH 960 0
DWIDTH 14 0
BBX 18 14 -2 -2
BITMAP
003000
003000
003000
006000
006000
006000
7fff00
7fff00
00c000
018000
018000
018000
030000
030000
ENDCHAR
STARTCHAR 283c
ENCODING 10300
SWIDTH 960 0
DWIDTH 14 0
BBX 18 14 -2 -2
BITMAP
003000
003000
003000
006000
006000
006000
00ff00
00ff00
00c000
018000
018000
018000
030000
030000
ENDCHAR
STARTCHAR 283d
ENCODING 10301
SWIDTH 960 0
DWIDTH 14 0
BBX 18 14 -2 -2
BITMAP
000000
000000
000000
000000
000000
000000
000000
7fff00
01c000
038000
038000
038000
070000
070000
ENDCHAR
STARTCHAR 283e
ENCODING 10302
SWIDTH 960 0
DWIDTH 14 0
BBX 18 14 -2 -2
BITMAP
003000
003000
003000
006000
006000
006000
7fc000
7fc000
00c000
018000
018000
018000
030000
030000
ENDCHAR
STARTCHAR 283f
ENCODING 10303
SWIDTH 960 0
DWIDTH 14 0
BBX 18 14 -2 -2
BITMAP
007000
007000
007000
00e000
00e000
00e000
01c000
7fff00
000000
000000
000000
000000
000000
000000
ENDCHAR
STARTCHAR 2840
ENCODING 10304
SWIDTH 960 0
DWIDTH 14 0
BBX 18 14 -2 -2
BITMAP
007000
007000
007000
00e000
00e000
00e000
01c000
7fff00
01c000
038000
038000
038000
070000
070000
ENDCHAR
STARTCHAR 3021
ENCODING 12321
SWIDTH 960 0
DWIDTH 14 0
BBX 18 14 -2 -2
BITMAP
000000
0fff80
00d800
01b000
0ffe00
0db600
1b6c00
1b6c00
1ffc00
36d800
06c000
06c000
fff800
000000
ENDCHAR
STARTCHAR 3022
ENCODING 12322
SWIDTH 960 0
DWIDTH 14 0
BBX 18 14 -2 -2
BITMAP
000000
00ffc0
0f9a00
1b3400
1b7f00
1b5500
36aa00
36aa00
36fe00
7d5400
6cd000
60d000
1ffc00
000000
ENDCHAR
STARTCHAR 3023
ENCODING 12323
SWIDTH 960 0
DWIDTH 14 0
BBX 18 14 -2 -2
BITMAP
018600
018600
018600
033f00
1fcc00
06cc00
0dff00
0d9800
1f1800
36fc00
073000
0d3000
39fc00
600000
ENDCHAR
STARTCHAR 3024
ENCODING 12324
SWIDTH 960 0
DWIDTH 14 0
BBX 18 14 -2 -2
BITMAP
000000
07ffc0
06c180
0d0300
0e7d00
0d6d00
1b5a00
1b5a00
1b7a00
36b400
3c0c00
300c00
601800
603800
ENDCHAR
STARTCHAR 3025
ENCODING 12325
SWIDTH 960 0
DWIDTH 14 0
BBX 18 14 -2 -2
BITMAP
003000
003000
0fffc0
000000
03fc00
030c00
061800
07fa00
03cc00
0ed800
7ad000
066000
0f3000
781c00
ENDCHAR
STARTCHAR 3026
ENCODING 12326
SWIDTH 960 0
DWIDTH 14 0
BBX 18 14 -2 -2
BITMAP
000700
07fd00
036600
036c00
0fff80
1d7700
353400
0df600
198600
07f000
3d6000
03c000
0ee000
f83c00
ENDCHAR
STARTCHAR 3027
ENCODING 12327
SWIDTH 960 0
DWIDTH 14 0
BBX 18 14 -2 -2
BITMAP
031800
031a00
033300
1f6f00
06fb00
066000
0cfe00
0eb000
3f3000
1bfe00
186000
19d000
373000
7c1c00
ENDCHAR
STARTCHAR 3028
ENCODING 12328
SWIDTH 960 0
DWIDTH 14 0
BBX 18 14 -2 -2
BITMAP
018600
018600
018600
030e00
1fda00
06f300
0ddf00
0d8000
1d7e00
354c00
06cc00
1d4c00
31f800
e19800
ENDCHAR
STARTCHAR 3029
ENCODING 12329
SWIDTH 960 0
DWIDTH 14 0
BBX 18 14 -2 -2
BITMAP
001800
063f80
06eb00
061c00
007e00
07db80
3dfe00
0c3000
0dfe00
186000
1bfe00
3c6000
66c000
c3fc00
ENDCHAR
STARTCHAR 302a
ENCODING 12330
SWIDTH 960 0
DWIDTH 14 0
BBX 18 14 -2 -2
BITMAP
00cc00
0fffc0
00cc00
01ec00
066d00
03da00
033600
0ffc00
38cf00
0ff800
018000
074000
1c6000
703800
ENDCHAR
STARTCHAR 302b
ENCODING 12331
SWIDTH 960 0
DWIDTH 14 0
BBX 18 14 -2 -2
BITMAP
00cc00
00cc00
0fffc0
019800
1fff80
01b000
1ffe00
1b6600
1a6e00
343400
380c00
300c00
7ff800
601800
ENDCHAR
STARTCHAR 302c
ENCODING 12332
SWIDTH 960 0
DWIDTH 14 0
BBX 18 14 -2 -2
BITMAP
00cc00
03bf00
0f4600
067e00
066a00
1fbe00
0cd400
0efe00
1fb600
3bfc00
6b6c00
1bfc00
36cc00
307c00
ENDCHAR
STARTCHAR 302d
ENCODING 12333
SWIDTH 960 0
DWIDTH 14 0
BBX 18 14 -2 -2
BITMAP
000000
07ff80
006800
07fe00
06d600
07fe00
01a000
3fff00
00c000
1ad800
1acc00
363400
e66c00
03e000
ENDCHAR
STARTCHAR 302e
ENCODING 12334
SWIDTH 960 0
DWIDTH 14 0
BBX 18 14 -2 -2
BITMAP
030000
037f80
036180
1fff00
06c000
06ff00
0db800
0eac00
3dfa00
1a6000
1bfc00
1c6000
37fc00
700000
ENDCHAR
STARTCHAR 302f
ENCODING 12335
SWIDTH 960 0
DWIDTH 14 0
BBX 18 14 -2 -2
BITMAP
030000
01bf80
01a180
18ff00
0cc000
0cff80
01b400
01ae00
19fb00
1b6000
36fc00
666000
6ffc00
c00000
ENDCHAR
STARTCHAR 3030
ENCODING 12336
SWIDTH 960 0
DWIDTH 14 0
BBX 18 14 -2 -2
BITMAP
018000
019f80
019980
033300
1fd300
035f00
06a600
06a600
0da600
0d7c00
1b4c00
330c00
630c00
c1fc00
ENDCHAR
STARTCHAR 3031
ENCODING 12337
SWIDTH 960 0
DWIDTH 14 0
BBX 18 14 -2 -2
BITMAP
00cc00
0fffc0
00d400
03fc00
00cc00
1fff80
061800
07f800
003000
0ff800
0c6000
7ffe00
00c000
00c000
ENDCHAR
STARTCHAR 3032
ENCODING 12338
SWIDTH 960 0
DWIDTH 14 0
BBX 18 14 -2 -2
BITMAP
00cc00
00cc00
0fffc0
019800
0fff00
000000
0ffc00
0c0c00
0c0c00
1ff800
181800
300000
600000
c00000
ENDCHAR
STARTCHAR 3033
ENCODING 12339
SWIDTH 960 0
DWIDTH 14 0
BBX 18 14 -2 -2
BITMAP
018600
018700
07ed80
0db680
1fcc00
0d7f80
1fb400
1aae00
1fd300
061800
3d7600
371c00
687000
c3c000
ENDCHAR
STARTCHAR 3034
ENCODING 12340
SWIDTH 960 0
DWIDTH 14 0
BBX 18 14 -2 -2
BITMAP
018600
018600
01bfc0
1fd300
031b00
079a00
0eff00
0e9800
1a1800
35fe00
6c3000
0c3000
186000
186000
ENDCHAR
STARTCHAR 3035
ENCODING 12341
SWIDTH 960 0
DWIDTH 14 0
BBX 18 14 -2 -2
BITMAP
000000
03ffc0
031800
063000
063000
063000
0dfe00
0c6000
186000
18c000
30c000
60c000
dffc00
000000
ENDCHAR
STARTCHAR 3036
ENCODING 12342
SWIDTH 960 0
DWIDTH 14 0
BBX 18 14 -2 -2
BITMAP
018600
018600
0fed00
033b00
0fea80
0cce00
1fac00
19b400
1fb400
0c1e00
7ff800
0c1800
183000
183000
ENDCHAR
STARTCHAR 3037
ENCODING 12343
SWIDTH 960 0
DWIDTH 14 0
BBX 18 14 -2 -2
BITMAP
030000
037f00
033300
1fa600
066c00
067f00
0ce600
0ee600
3d6c00
1b6800
1b3000
1ae800
359800
7e0c00
ENDCHAR
STARTCHAR 3038
ENCODING 12344
SWIDTH 960 0
DWIDTH 14 0
BBX 18 14 -2 -2
BITMAP
003000
003000
07ffc0
0d0300
1b0000
03df00
06a600
0da600
3b6c00
635800
06c000
1cc600
30cc00
e07c00
ENDCHAR
STARTCHAR 3039
ENCODING 12345
SWIDTH 960 0
DWIDTH 14 0
BBX 18 14 -2 -2
BITMAP
018000
019f80
019980
033300
1fd300
06df00
0da600
0da600
1f7e00
36cc00
074c00
0ccc00
3bfc00
e00000
ENDCHAR
STARTCHAR 303a
ENCODING 12346
SWIDTH 960 0
DWIDTH 14 0
BBX 18 14 -2 -2
BITMAP
018600
018600
018600
0fcc00
0d7f80
0d5000
1aa000
1fa000
1a6000
0ec000
0d4000
1fc000
f34000
007800
ENDCHAR
STARTCHAR 303b
ENCODING 12347
SWIDTH 960 0
DWIDTH 14 0
BBX 18 14 -2 -2
BITMAP
018600
01c600
074600
0d4e00
1b1b00
1ff700
19db00
1f8000
19be00
3f4c00
36cc00
36cc00
7af800
e19800
ENDCHAR
STARTCHAR 303c
ENCODING 12348
SWIDTH 960 0
DWIDTH 14 0
BBX 18 14 -2 -2
BITMAP
033000
033000
06d000
1dbf00
074300
0efd00
1ada00
3f7a00
1ada00
1df400
3ab400
7a0c00
d01800
307000
ENDCHAR
STARTCHAR 303d
ENCODING 12349
SWIDTH 960 0
DWIDTH 14 0
BBX 18 14 -2 -2
BITMAP
030c00
030c00
06ff80
1d9800
07ff80
0e7800
1adb00
3faf00
0f7c00
3dd800
3b5000
7ae000
d3b000
361c00
ENDCHAR
STARTCHAR 303e
ENCODING 12350
SWIDTH 960 0
DWIDTH 14 0
BBX 18 14 -2 -2
BITMAP
018600
018600
07e600
0d8f80
1fcc00
0d4c00
1f9800
1abe00
1fa600
06cc00
3b4c00
3b4c00
69f800
c19800
ENDCHAR
STARTCHAR 303f
ENCODING 12351
SWIDTH 960 0
DWIDTH 14 0
BBX 18 14 -2 -2
BITMAP
001b00
001980
001980
1fff80
003000
07d300
0db600
0db600
0fb400
183800
03b600
1e6a00
f3dc00
0e0c00
ENDCHAR
STARTCHAR 3040
ENCODING 12352
SWIDTH 960 0
DWIDTH 14 0
BBX 18 14 -2 -2
BITMAP
000000
0fffc0
006800
07fe00
06d600
06d600
0ffc00
06d800
035000
7ffe00
03c000
1eb000
f31c00
030000
ENDCHAR
STARTCHAR 3041
ENCODING 12353
SWIDTH 960 0
DWIDTH 14 0
BBX 18 14 -2 -2
BITMAP
030c00
030c00
031c00
1fb400
036600
06ff00
0d8300
1f0000
357c00
1b9800
199800
199800
33f000
333000
ENDCHAR
STARTCHAR 3042
ENCODING 12354
SWIDTH 960 0
DWIDTH 14 0
BBX 18 14 -2 -2
BITMAP
003000
003000
07ffc0
0cc300
18c000
00c000
3fff00
033000
033000
07a000
0ce000
03b000
0e3000
781800
ENDCHAR
STARTCHAR 3043
ENCODING 12355
SWIDTH 960 0
DWIDTH 14 0
BBX 18 14 -2 -2
BITMAP
001800
001800
03ffc0
066000
07ff80
06ec00
0d6c00
0fff00
1b6c00
1bf800
36d800
67f800
cd8c00
00fc00
ENDCHAR
STARTCHAR 3044
ENCODING 12356
SWIDTH 960 0
DWIDTH 14 0
BBX 18 14 -2 -2
BITMAP
030c00
030c00
037fc0
1fc300
069800
061800
0dff00
0e6c00
3c6c00
18d800
19b000
187800
31d800
770c00
ENDCHAR
STARTCHAR 3045
ENCODING 12357
SWIDTH 960 0
DWIDTH 14 0
BBX 18 14 -2 -2
BITMAP
000c00
000c00
0fbf80
1b6600
1b3400
1bff80
3e0000
36fc00
36cc00
6df800
7d9800
6d9800
c3f000
033000
ENDCHAR
STARTCHAR 3046
ENCODING 12358
SWIDTH 960 0
DWIDTH 14 0
BBX 18 14 -2 -2
BITMAP
003000
003000
07ffc0
0cc300
1fff00
01b800
07e000
01d800
0f4c00
7ffe00
03c000
1eb000
f31c00
030000
ENDCHAR
STARTCHAR 3047
ENCODING 12359
SWIDTH 960 0
DWIDTH 14 0
BBX 18 14 -2 -2
BITMAP
000000
07ef80
066980
0fdf00
0fdf00
0c6300
1bfa00
19a600
1ffe00
366c00
37ec00
366c00
6fd800
6cd800
ENDCHAR
STARTCHAR 3048
ENCODING 12360
SWIDTH 960 0
DWIDTH 14 0
BBX 18 14 -2 -2
BITMAP
034600
034600
0fffc0
06b300
07ac00
030c00
1fff00
1ab600
1fb400
0c7400
7f5800
0c7400
18cc00
1b8c00
ENDCHAR
STARTCHAR 3049
ENCODING 12361
SWIDTH 960 0
DWIDTH 14 0
BBX 18 14 -2 -2
BITMAP
003000
003000
0fffc0
00f000
01a800
076e00
3cc300
00c000
0ffc00
181800
181800
181800
3ff000
303000
ENDCHAR
STARTCHAR 304a
ENCODING 12362
SWIDTH 960 0
DWIDTH 14 0
BBX 18 14 -2 -2
BITMAP
030300
030300
036300
066600
063600
063600
0c0c00
0c0c00
0c0c00
181800
1b3400
3cec00
e38c00
0e0c00
ENDCHAR
STARTCHAR 304b
ENCODING 12363
SWIDTH 960 0
DWIDTH 14 0
BBX 18 14 -2 -2
BITMAP
018000
01bf80
030d80
031b00
06ff80
1e1b00
343600
0dfe00
0c6600
186000
18c000
198000
330000
360000
ENDCHAR
STARTCHAR 304c
ENCODING 12364
SWIDTH 960 0
DWIDTH 14 0
BBX 18 14 -2 -2
BITMAP
019800
019800
031800
063000
07ff80
1e0600
358c00
0ccc00
0cd800
199800
19b000
18e000
3fbc00
300000
ENDCHAR
STARTCHAR 304d
ENCODING 12365
SWIDTH 960 0
DWIDTH 14 0
BBX 18 14 -2 -2
BITMAP
018c00
018c00
018c00
03ff80
063000
1e7300
34d600
0dd400
0d5800
19b000
199800
19e800
339800
360c00
ENDCHAR
STARTCHAR 304e
ENCODING 12366
SWIDTH 960 0
DWIDTH 14 0
BBX 18 14 -2 -2
BITMAP
018c00
01bf00
019b00
03ff80
060000
1efe00
358c00
0dfc00
0c1800
1bfc00
1b3000
1ffe00
306000
306000
ENDCHAR
STARTCHAR 304f
ENCODING 12367
SWIDTH 960 0
DWIDTH 14 0
BBX 18 14 -2 -2
BITMAP
000000
07ff80
060180
0cdb00
0cdb00
0dfd00
19b600
19b600
1ffe00
336c00
366c00
3c6c00
77f800
601800
ENDCHAR
STARTCHAR 3050
ENCODING 12368
SWIDTH 960 0
DWIDTH 14 0
BBX 18 14 -2 -2
BITMAP
003000
003000
0fffc0
006000
0ffe00
006600
1ffc00
18c000
1fff00
338600
034600
0e6c00
387000
e01c00
ENDCHAR
STARTCHAR 3051
ENCODING 12369
SWIDTH 960 0
DWIDTH 14 0
BBX 18 14 -2 -2
BITMAP
000700
03fc00
003000
1fff80
00f000
07ac00
3cc700
018000
3fff00
066000
0fa000
19e000
073000
7c1800
ENDCHAR
STARTCHAR 3052
ENCODING 12370
SWIDTH 960 0
DWIDTH 14 0
BBX 18 14 -2 -2
BITMAP
000d00
000d80
03ffc0
061800
07fb00
06da00
0ff600
0d7400
0d5c00
1f5800
19b600
37aa00
6d9c00
c00c00
ENDCHAR
STARTCHAR 3053
ENCODING 12371
SWIDTH 960 0
DWIDTH 14 0
BBX 18 14 -2 -2
BITMAP
000180
07f180
063180
0fd300
0c1f80
0fc300
183600
1fda00
1b1a00
370c00
368c00
7a8c00
cc1800
1c3800
ENDCHAR
STARTCHAR 3054
ENCODING 12372
SWIDTH 960 0
DWIDTH 14 0
BBX 18 14 -2 -2
BITMAP
031b00
031b00
033600
077f80
0eec00
0eac00
1cfe00
34d800
0cd800
19fc00
19b000
19b000
33fc00
330000
ENDCHAR
STARTCHAR 3055
ENCODING 12373
SWIDTH 960 0
DWIDTH 14 0
BBX 18 14 -2 -2
BITMAP
003000
07ff80
00cc00
1fff80
000000
03fc00
061800
07f800
061800
0ff000
368c00
66cc00
c66c00
03e000
ENDCHAR
STARTCHAR 3056
ENCODING 12374
SWIDTH 960 0
DWIDTH 14 0
BBX 18 14 -2 -2
BITMAP
000300
07f300
063300
0fff80
0dd600
0c3600
1fd400
358c00
3b8c00
6eb800
06cc00
36d400
666c00
c3e000
ENDCHAR
STARTCHAR 3057
ENCODING 12375
SWIDTH 960 0
DWIDTH 14 0
BBX 18 14 -2 -2
BITMAP
000000
01fe00
018600
03fc00
030c00
03fc00
018000
03fe00
1eda00
736c00
0ecc00
3b9800
0e3000
01e000
ENDCHAR
STARTCHAR 3058
ENCODING 12376
SWIDTH 960 0
DWIDTH 14 0
BBX 18 14 -2 -2
BITMAP
018600
018600
01bfc0
1fdc00
031a00
07b300
0edf00
0e8600
1afa00
35b400
6df400
0db400
181800
183800
ENDCHAR
STARTCHAR 3059
ENCODING 12377
SWIDTH 960 0
DWIDTH 14 0
BBX 18 14 -2 -2
BITMAP
033000
01b000
01b000
0ffc00
00cc00
00d800
01ec00
030c00
07ff00
0c0600
1aa600
7b6600
daac00
183800
ENDCHAR
STARTCHAR 305a
ENCODING 12378
SWIDTH 960 0
DWIDTH 14 0
BBX 18 14 -2 -2
BITMAP
000000
03ff00
033300
07fe00
066600
07fe00
000000
3fff00
06cc00
0cd800
0cd000
0fa000
1c3000
f01c00
ENDCHAR
STARTCHAR 305b
ENCODING 12379
SWIDTH 960 0
DWIDTH 14 0
BBX 18 14 -2 -2
BITMAP
000000
03ff00
033300
07fe00
066600
07fe00
033000
1ffe00
033000
066000
7ffe00
076000
1c3000
701800
ENDCHAR
STARTCHAR 305c
ENCODING 12380
SWIDTH 960 0
DWIDTH 14 0
BBX 18 14 -2 -2
BITMAP
006c00
01cf80
07bb00
036a00
030c00
1fd800
066800
0f1f00
1f7300
355600
6d9c00
0c3000
18e000
1b8000
ENDCHAR
STARTCHAR 305d
ENCODING 12381
SWIDTH 960 0
DWIDTH 14 0
BBX 18 14 -2 -2
BITMAP
018d80
018d80
036b00
1d7f80
06b600
073600
0d7e00
3fac00
0d6c00
36fc00
355800
6d5800
d9fc00
198000
ENDCHAR
STARTCHAR 305e
ENCODING 12382
SWIDTH 960 0
DWIDTH 14 0
BBX 18 14 -2 -2
BITMAP
018600
01bf80
036d80
1d7f80
068000
07bf00
0da600
3fbe00
0c0c00
36fc00
355800
6dfe00
d83000
183000
ENDCHAR
STARTCHAR 305f
ENCODING 12383
SWIDTH 960 0
DWIDTH 14 0
BBX 18 14 -2 -2
BITMAP
000000
07ff80
063180
0fff00
0c6300
0fff00
000000
0ffc00
0c0c00
1ff800
181800
1ff800
303000
307000
ENDCHAR
STARTCHAR 3060
ENCODING 12384
SWIDTH 960 0
DWIDTH 14 0
BBX 18 14 -2 -2
BITMAP
00cc00
0fffc0
00ce00
07f800
006000
1fff80
035000
0edc00
398700
3ffc00
066000
0fc000
076000
7c3000
ENDCHAR
STARTCHAR 3061
ENCODING 12385
SWIDTH 960 0
DWIDTH 14 0
BBX 18 14 -2 -2
BITMAP
003000
003000
003000
1fff80
006000
00e300
01a600
0f6c00
3b7800
066000
063000
07d800
0e1800
780c00
ENDCHAR
STARTCHAR 3062
ENCODING 12386
SWIDTH 960 0
DWIDTH 14 0
BBX 18 14 -2 -2
BITMAP
000000
07dfc0
0036c0
1fff80
006d80
0fbf80
000000
1f7e00
006600
3efc00
36cc00
36fc00
7d9800
6db800
ENDCHAR
STARTCHAR 3063
ENCODING 12387
SWIDTH 960 0
DWIDTH 14 0
BBX 18 14 -2 -2
BITMAP
000c00
067f00
061b00
06ff80
007e00
006600
3cfc00
0c1800
0cfe00
19b000
1bfe00
3c3000
666000
c3fc00
ENDCHAR
STARTCHAR 3064
ENCODING 12388
SWIDTH 960 0
DWIDTH 14 0
BBX 18 14 -2 -2
BITMAP
000c00
063f00
063500
067e00
01ff80
006600
3cfc00
0ccc00
0cfc00
199800
19f800
3d9800
6e1800
c3fc00
ENDCHAR
STARTCHAR 3065
ENCODING 12389
SWIDTH 960 0
DWIDTH 14 0
BBX 18 14 -2 -2
BITMAP
000000
07ff80
066000
0cc000
0dfe00
0d3000
1a6000
1ffe00
18d000
31b000
331800
361800
7ffc00
600000
ENDCHAR
STARTCHAR 3066
ENCODING 12390
SWIDTH 960 0
DWIDTH 14 0
BBX 18 14 -2 -2
BITMAP
00cc00
00cc00
00cc00
019800
0fff00
019800
033000
033000
3fff00
066000
0c6000
186000
30c000
60c000
ENDCHAR
STARTCHAR 3067
ENCODING 12391
SWIDTH 960 0
DWIDTH 14 0
BBX 18 14 -2 -2
BITMAP
003000
003000
0fffc0
006000
00d800
07b800
036c00
01d800
033000
0ee000
19b000
0f1800
381800
e01800
ENDCHAR
STARTCHAR 3068
ENCODING 12392
SWIDTH 960 0
DWIDTH 14 0
BBX 18 14 -2 -2
BITMAP
000c00
030d00
030d80
06ff80
061800
1ffb00
0db600
0daa00
0dec00
1b3400
1cda00
77ba00
1cdc00
018c00
ENDCHAR
STARTCHAR 3069
ENCODING 12393
SWIDTH 960 0
DWIDTH 14 0
BBX 18 14 -2 -2
BITMAP
003000
003000
0fffc0
00cc00
019e00
0ff300
07f800
061800
07f800
0c3000
0ff000
0c3000
186000
18e000
ENDCHAR
STARTCHAR 306a
ENCODING 12394
SWIDTH 960 0
DWIDTH 14 0
BBX 18 14 -2 -2
BITMAP
00c000
00cf80
0ffd80
031b00
031a00
07ec00
0cd400
1fd600
34d600
1fa600
19b600
19ac00
334000
374000
ENDCHAR
STARTCHAR 306b
ENCODING 12395
SWIDTH 960 0
DWIDTH 14 0
BBX 18 14 -2 -2
BITMAP
003500
0fd500
036e80
06db00
066a00
0edd00
1b7f00
3a3400
1aff00
35b400
3d5400
36da00
0c6c00
19cc00
ENDCHAR
STARTCHAR 306c
ENCODING 12396
SWIDTH 960 0
DWIDTH 14 0
BBX 18 14 -2 -2
BITMAP
000000
000000
000000
000000
000000
000000
3fff00
000000
000000
000000
000000
000000
000000
000000
ENDCHAR
STARTCHAR 306d
ENCODING 12397
SWIDTH 960 0
DWIDTH 14 0
BBX 18 14 -2 -2
BITMAP
003000
003000
0fffc0
006000
07fe00
000000
1fff00
1b0600
337800
07c000
060000
060c00
061800
03f800
ENDCHAR
STARTCHAR 306e
ENCODING 12398
SWIDTH 960 0
DWIDTH 14 0
BBX 18 14 -2 -2
BITMAP
06c300
036300
036600
19ff80
0ccc00
0d8c00
030c00
0ffe00
1b5500
1aa800
36a800
36a800
7ffc00
c00000
ENDCHAR
STARTCHAR 306f
ENCODING 12399
SWIDTH 960 0
DWIDTH 14 0
BBX 18 14 -2 -2
BITMAP
001800
061f00
063600
06e800
01ff00
00db00
3db600
0dfe00
0db600
18e000
19a600
3d3e00
6d0000
c1fc00
ENDCHAR
STARTCHAR 3070
ENCODING 12400
SWIDTH 960 0
DWIDTH 14 0
BBX 18 14 -2 -2
BITMAP
006380
01fec0
07ad80
036d00
036e00
1f8000
0ede00
0f5600
1bd600
35bc00
6dac00
0dac00
1b7800
1b5800
ENDCHAR
STARTCHAR 3071
ENCODING 12401
SWIDTH 960 0
DWIDTH 14 0
BBX 18 14 -2 -2
BITMAP
00cc00
00cc00
0fffc0
019800
01a800
0c6000
0cff00
0cd600
01b400
076000
1cd000
739800
0e1800
380c00
ENDCHAR
STARTCHAR 3072
ENCODING 12402
SWIDTH 960 0
DWIDTH 14 0
BBX 18 14 -2 -2
BITMAP
00cc00
00cc00
0fffc0
019800
000000
07fe00
00c000
00c000
3fff00
018000
018000
018000
030000
070000
ENDCHAR
STARTCHAR 3073
ENCODING 12403
SWIDTH 960 0
DWIDTH 14 0
BBX 18 14 -2 -2
BITMAP
018000
01bf80
07ed80
0d9b00
1fff00
0d6c00
1ffe00
1ab600
1fda00
06ec00
3b6c00
3bb400
68d800
c3b000
ENDCHAR
STARTCHAR 3074
ENCODING 12404
SWIDTH 960 0
DWIDTH 14 0
BBX 18 14 -2 -2
BITMAP
006000
006c00
00c700
039d00
1ff180
01b000
036000
036000
066000
0cc000
18c000
30c600
60cc00
c07c00
ENDCHAR
STARTCHAR 3075
ENCODING 12405
SWIDTH 960 0
DWIDTH 14 0
BBX 18 14 -2 -2
BITMAP
003000
00e000
079f80
0c3300
0c3300
0fd300
186600
186600
186600
3f4c00
30f800
30c000
018000
018000
ENDCHAR
STARTCHAR 3076
ENCODING 12406
SWIDTH 960 0
DWIDTH 14 0
BBX 18 14 -2 -2
BITMAP
000000
007f80
0fad80
1b5b00
1b5b00
1b7f00
36b600
36b600
36aa00
7d5c00
6d9c00
630c00
07f800
061800
ENDCHAR
STARTCHAR 3077
ENCODING 12407
SWIDTH 960 0
DWIDTH 14 0
BBX 18 14 -2 -2
BITMAP
000000
01fe00
018600
03fc00
000000
07fe00
0c0c00
0ffc00
0c0c00
1ff800
181800
1ff800
0ee000
783800
ENDCHAR
STARTCHAR 3078
ENCODING 12408
SWIDTH 960 0
DWIDTH 14 0
BBX 18 14 -2 -2
BITMAP
000000
07ff80
063180
0c6300
0c6300
0fff00
18c600
19c600
1b6600
366c00
343400
300c00
7ff800
601800
ENDCHAR
STARTCHAR 3079
ENCODING 12409
SWIDTH 960 0
DWIDTH 14 0
BBX 18 14 -2 -2
BITMAP
030000
033f80
033580
066b00
1fab00
0dbf00
1b5600
1b5600
3efa00
6ddc00
0edc00
1a8c00
73f800
c31800
ENDCHAR
STARTCHAR 307a
ENCODING 12410
SWIDTH 960 0
DWIDTH 14 0
BBX 18 14 -2 -2
BITMAP
000300
0ff300
003300
006600
0fe600
0c6600
180c00
1fcc00
18cc00
019800
019800
031800
063000
3c3000
ENDCHAR
STARTCHAR 307b
ENCODING 12411
SWIDTH 960 0
DWIDTH 14 0
BBX 18 14 -2 -2
BITMAP
018c00
018c00
03cc00
075800
0d7f80
1ffb00
19dc00
1f9800
199800
3f3000
346800
36d800
7b1800
e60c00
ENDCHAR
STARTCHAR 307c
ENCODING 12412
SWIDTH 960 0
DWIDTH 14 0
BBX 18 14 -2 -2
BITMAP
0301c0
018f40
01f980
19b300
0cda00
0cdf00
01f000
0c3000
183000
1bfc00
306000
606000
6ffc00
c00000
ENDCHAR
STARTCHAR 307d
ENCODING 12413
SWIDTH 960 0
DWIDTH 14 0
BBX 18 14 -2 -2
BITMAP
033300
033500
03eb00
06d600
066a00
07fe00
0c1c00
0df400
0d3400
1be800
1a6800
37ea00
6cdc00
cdcc00
ENDCHAR
STARTCHAR 307e
ENCODING 12414
SWIDTH 960 0
DWIDTH 14 0
BBX 18 14 -2 -2
BITMAP
00cc00
0fffc0
00dc00
0fb400
0dfe00
0f8380
1cfc00
1a1800
1afe00
360000
37fe00
3dd000
637000
67d800
ENDCHAR
STARTCHAR 3121
ENCODING 12577
SWIDTH 960 0
DWIDTH 14 0
BBX 18 14 -2 -2
BITMAP
000c00
07cc00
06ffc0
0d4300
0e0000
0dff00
1b0000
1bff00
1b5800
36d000
3db000
333600
663400
6c1c00
ENDCHAR
STARTCHAR 3122
ENCODING 12578
SWIDTH 960 0
DWIDTH 14 0
BBX 18 14 -2 -2
BITMAP
000c00
07cc00
069a00
0d7600
0edd00
0d0180
1b7c00
1b1800
1b7c00
360000
3ffe00
31d000
637000
6fd800
ENDCHAR
STARTCHAR 3123
ENCODING 12579
SWIDTH 960 0
DWIDTH 14 0
BBX 18 14 -2 -2
BITMAP
000380
07fec0
06ed80
0d6d80
0e7f00
0d0300
1b7e00
1b0600
1b7e00
366000
3d5400
36d400
6cd400
607000
ENDCHAR
STARTCHAR 3124
ENCODING 12580
SWIDTH 960 0
DWIDTH 14 0
BBX 18 14 -2 -2
BITMAP
018000
019f80
0ff980
0cdf00
068000
1fff00
006600
1f7e00
1b6600
3efc00
36cc00
36fc00
7dd800
6f0c00
ENDCHAR
STARTCHAR 3125
ENCODING 12581
SWIDTH 960 0
DWIDTH 14 0
BBX 18 14 -2 -2
BITMAP
000300
000300
0f8300
1b0600
1bff80
1b0600
36cc00
366c00
366c00
7c1800
6c1800
601800
003000
007000
ENDCHAR
STARTCHAR 3126
ENCODING 12582
SWIDTH 960 0
DWIDTH 14 0
BBX 18 14 -2 -2
BITMAP
006000
006000
006000
1fff80
018000
030000
060000
07fc00
0e0c00
1c1800
341800
6c1800
1ff000
183000
ENDCHAR
STARTCHAR 3127
ENCODING 12583
SWIDTH 960 0
DWIDTH 14 0
BBX 18 14 -2 -2
BITMAP
003000
003000
07ffc0
0c0300
180000
07fe00
00c000
00c000
3fff00
018000
018000
018000
030000
070000
ENDCHAR
STARTCHAR 3128
ENCODING 12584
SWIDTH 960 0
DWIDTH 14 0
BBX 18 14 -2 -2
BITMAP
003000
006000
01fe00
030c00
030c00
03fc00
060000
07ff00
060000
0ffc00
35ac00
34d400
6c1800
c07000
ENDCHAR
STARTCHAR 3129
ENCODING 12585
SWIDTH 960 0
DWIDTH 14 0
BBX 18 14 -2 -2
BITMAP
000000
0fff80
006180
00c300
0cd300
0cdb00
0db600
018600
078e00
1d7400
73cc00
030c00
061800
0e3800
ENDCHAR
STARTCHAR 312a
ENCODING 12586
SWIDTH 960 0
DWIDTH 14 0
BBX 18 14 -2 -2
BITMAP
000000
067f80
060c00
061800
001800
01ff80
3c3000
0c3000
0c3000
186000
186000
3ce000
660000
c3fc00
ENDCHAR
STARTCHAR 312b
ENCODING 12587
SWIDTH 960 0
DWIDTH 14 0
BBX 18 14 -2 -2
BITMAP
000000
0fffc0
003000
006000
0fff00
0d6b00
1b5a00
1b5a00
18c600
35ac00
36b400
36b400
631800
633800
ENDCHAR
STARTCHAR 312c
ENCODING 12588
SWIDTH 960 0
DWIDTH 14 0
BBX 18 14 -2 -2
BITMAP
006000
01c000
071f80
0cd300
0cd300
0cd300
19a600
19a600
19a600
3f4c00
76f800
0cc000
198000
318000
ENDCHAR
STARTCHAR 312d
ENCODING 12589
SWIDTH 960 0
DWIDTH 14 0
BBX 18 14 -2 -2
BITMAP
06c600
034c00
039f80
1fd300
035f00
0fd300
1a7e00
1fbf00
1ea000
1d7e00
376a00
6dd600
1b6c00
1a3800
ENDCHAR
STARTCHAR 312e
ENCODING 12590
SWIDTH 960 0
DWIDTH 14 0
BBX 18 14 -2 -2
BITMAP
003000
07ffc0
0cd980
199f00
077e00
036600
1ffc00
06cc00
3ffc00
0d9800
1af800
36d600
633400
ce1c00
ENDCHAR
STARTCHAR 312f
ENCODING 12591
SWIDTH 960 0
DWIDTH 14 0
BBX 18 14 -2 -2
BITMAP
000000
03fe00
006600
00cc00
00cc00
00cc00
1ffe00
031800
031800
063000
063000
063000
fffc00
000000
ENDCHAR
STARTCHAR 3130
ENCODING 12592
SWIDTH 960 0
DWIDTH 14 0
BBX 18 14 -2 -2
BITMAP
001b00
0feb00
031a00
063f80
066c00
0fec00
1b7e00
3b5800
1b5800
36fc00
3eb000
36b000
63fc00
030000
ENDCHAR
STARTCHAR 3131
ENCODING 12593
SWIDTH 960 0
DWIDTH 14 0
BBX 18 14 -2 -2
BITMAP
003000
00e000
079f80
0c0300
0c0300
0c0300
180600
1fbe00
180600
300c00
300c00
300c00
7ff800
601800
ENDCHAR
STARTCHAR 3132
ENCODING 12594
SWIDTH 960 0
DWIDTH 14 0
BBX 18 14 -2 -2
BITMAP
030000
01bf00
01a300
18de00
0cd600
0cd600
01fe00
0d0600
1b7a00
1ab400
36f400
66b400
6c1800
cc3800
ENDCHAR
STARTCHAR 3133
ENCODING 12595
SWIDTH 960 0
DWIDTH 14 0
BBX 18 14 -2 -2
BITMAP
001800
001f80
0f1800
1aff80
1abf00
1af300
353e00
356800
36aa00
7ad400
6dd800
1cd000
37fc00
000000
ENDCHAR
STARTCHAR 3134
ENCODING 12596
SWIDTH 960 0
DWIDTH 14 0
BBX 18 14 -2 -2
BITMAP
000000
003f80
07d180
0da300
0dbf00
0da300
1b4600
1b7e00
1b4600
3e8c00
36fc00
31d800
071800
1c0c00
ENDCHAR
STARTCHAR 3135
ENCODING 12597
SWIDTH 960 0
DWIDTH 14 0
BBX 18 14 -2 -2
BITMAP
036b00
0fdfc0
0fab80
1aba80
07fe00
06d600
0ffc00
1f8c00
19ff00
3f5800
3f6800
366800
7e3000
e07000
ENDCHAR
STARTCHAR 3136
ENCODING 12598
SWIDTH 960 0
DWIDTH 14 0
BBX 18 14 -2 -2
BITMAP
00cc00
0fffc0
00cc00
0fe300
0c6300
0fff80
180600
1bb600
183600
3fb400
370c00
7f0c00
d51800
1c3800
ENDCHAR
STARTCHAR 3137
ENCODING 12599
SWIDTH 960 0
DWIDTH 14 0
BBX 18 14 -2 -2
BITMAP
018000
019f80
07e980
0dbf00
1fd300
0d7f00
1fd500
1aff00
1f8000
06fc00
3b6800
3b7000
69d000
c71c00
ENDCHAR
STARTCHAR 3138
ENCODING 12600
SWIDTH 960 0
DWIDTH 14 0
BBX 18 14 -2 -2
BITMAP
030c00
030d80
033f80
061a00
1f9a00
0dff80
1b1800
1b7000
3e6e00
6df000
0f4000
1ac600
70cc00
c07c00
ENDCHAR
STARTCHAR 3139
ENCODING 12601
SWIDTH 960 0
DWIDTH 14 0
BBX 18 14 -2 -2
BITMAP
000000
07ffc0
060000
0def00
0d6a00
0dea00
1ad400
1bff00
1a3400
353800
35a800
6faa00
dd9c00
730c00
ENDCHAR
STARTCHAR 313a
ENCODING 12602
SWIDTH 960 0
DWIDTH 14 0
BBX 18 14 -2 -2
BITMAP
030d00
018d80
01ffc0
181800
0cff00
0cdb00
01b600
06fe00
0db600
0d6c00
1bfc00
336c00
36d800
66d800
ENDCHAR
STARTCHAR 313b
ENCODING 12603
SWIDTH 960 0
DWIDTH 14 0
BBX 18 14 -2 -2
BITMAP
000300
001e00
01f600
036c00
036c00
036c00
06d800
06d800
0cd800
0dd800
19a800
3bf800
6e6800
c00c00
ENDCHAR
STARTCHAR 313c
ENCODING 12604
SWIDTH 960 0
DWIDTH 14 0
BBX 18 14 -2 -2
BITMAP
000000
07ef80
066980
0fdf00
0cd300
0fdf00
180600
1bfa00
18c600
37ec00
318c00
37f400
601800
603800
ENDCHAR
STARTCHAR 313d
ENCODING 12605
SWIDTH 960 0
DWIDTH 14 0
BBX 18 14 -2 -2
BITMAP
003300
001a00
0fffc0
1b3400
1b7f00
1b7500
36de00
36fe00
36fe00
7c1800
6ffe00
619800
01b000
007000
ENDCHAR
STARTCHAR 313e
ENCODING 12606
SWIDTH 960 0
DWIDTH 14 0
BBX 18 14 -2 -2
BITMAP
000000
03ff00
000000
000000
000000
1fff80
00c000
00c000
01b000
01b000
031800
0ef800
7b9800
001800
ENDCHAR
STARTCHAR 313f
ENCODING 12607
SWIDTH 960 0
DWIDTH 14 0
BBX 18 14 -2 -2
BITMAP
000000
06ffc0
06cd80
07ff80
001800
00ff00
3db600
0dfe00
0db600
1bfc00
186000
3bfe00
6cc000
c7fc00
ENDCHAR
STARTCHAR 3140
ENCODING 12608
SWIDTH 960 0
DWIDTH 14 0
BBX 18 14 -2 -2
BITMAP
000000
03ff00
003000
0fff80
0c6180
1faf00
37de00
000000
0ffc00
000000
7ffe00
073000
0df000
7f1800
ENDCHAR
STARTCHAR 3141
ENCODING 12609
SWIDTH 960 0
DWIDTH 14 0
BBX 18 14 -2 -2
BITMAP
00cc00
00cc00
0fffc0
019800
030700
06fc00
063000
0c3000
3dff00
686000
186000
186000
37f800
300000
ENDCHAR
STARTCHAR 3142
ENCODING 12610
SWIDTH 960 0
DWIDTH 14 0
BBX 18 14 -2 -2
BITMAP
018000
01dfc0
076d80
0d5b00
1b1f00
1fdb00
19b600
1fbe00
19b600
3f6e00
367c00
37cc00
7a1800
e01800
ENDCHAR
STARTCHAR 3143
ENCODING 12611
SWIDTH 960 0
DWIDTH 14 0
BBX 18 14 -2 -2
BITMAP
01e000
019f80
0ff180
1bab00
1b5b00
1daa00
359c00
0fdc00
3d9800
6f3800
1b6800
1f5800
369800
3f0c00
ENDCHAR
STARTCHAR 3144
ENCODING 12612
SWIDTH 960 0
DWIDTH 14 0
BBX 18 14 -2 -2
BITMAP
036300
01b600
07ffc0
0c0300
1bfc00
030c00
061800
07f800
018000
1ff800
181800
181800
3ff000
303000
ENDCHAR
STARTCHAR 3145
ENCODING 12613
SWIDTH 960 0
DWIDTH 14 0
BBX 18 14 -2 -2
BITMAP
000000
07ef80
066980
0fdf00
0cd300
0fdf00
19a600
1fbe00
0d5400
7ffe00
063000
0fe000
03a000
7e3800
ENDCHAR
STARTCHAR 3146
ENCODING 12614
SWIDTH 960 0
DWIDTH 14 0
BBX 18 14 -2 -2
BITMAP
000300
03f300
033600
07ec00
066b00
07e600
030600
3fec00
0fda00
198600
1f8c00
369c00
edb000
1c6000
ENDCHAR
STARTCHAR 3147
ENCODING 12615
SWIDTH 960 0
DWIDTH 14 0
BBX 18 14 -2 -2
BITMAP
000c00
000c00
0f8c00
1b7f00
1b5b00
1b5b00
3eb600
37ff00
363000
6c7000
7cd000
6d9800
061800
1c0c00
ENDCHAR
STARTCHAR 3148
ENCODING 12616
SWIDTH 960 0
DWIDTH 14 0
BBX 18 14 -2 -2
BITMAP
003000
03ff00
033300
066600
07fe00
066600
0ccc00
0ffe00
0cdc00
00d000
00e000
07a600
7c3400
001c00
ENDCHAR
STARTCHAR 3149
ENCODING 12617
SWIDTH 960 0
DWIDTH 14 0
BBX 18 14 -2 -2
BITMAP
036300
01b300
01b600
0ffb80
0c0300
186000
00c000
3fff00
03e000
06a000
1db800
718e00
030000
030000
ENDCHAR
STARTCHAR 314a
ENCODING 12618
SWIDTH 960 0
DWIDTH 14 0
BBX 18 14 -2 -2
BITMAP
007000
001800
000000
03e000
006300
007600
3fd400
035800
06d000
0db000
199800
718e00
030000
070000
ENDCHAR
STARTCHAR 314b
ENCODING 12619
SWIDTH 960 0
DWIDTH 14 0
BBX 18 14 -2 -2
BITMAP
031c00
018600
018000
18f800
0c1b00
0c1a00
03fc00
0c7800
18d800
19a800
336c00
666600
60c000
c1c000
ENDCHAR
STARTCHAR 314c
ENCODING 12620
SWIDTH 960 0
DWIDTH 14 0
BBX 18 14 -2 -2
BITMAP
030c00
018c00
01bf80
18db00
0cdb00
0cff00
01b600
06fe00
0db400
0c3800
183000
30ea00
379c00
600c00
ENDCHAR
STARTCHAR 314d
ENCODING 12621
SWIDTH 960 0
DWIDTH 14 0
BBX 18 14 -2 -2
BITMAP
003300
003300
0fffc0
066600
061800
06ff00
3fb600
0db600
0dff00
186000
1e7000
71d800
071800
1c0c00
ENDCHAR
STARTCHAR 314e
ENCODING 12622
SWIDTH 960 0
DWIDTH 14 0
BBX 18 14 -2 -2
BITMAP
000000
03fc00
00cc00
019800
03ff00
07b300
0dc600
19a600
373c00
0ff800
1b5800
1b5800
fffc00
000000
ENDCHAR
STARTCHAR 314f
ENCODING 12623
SWIDTH 960 0
DWIDTH 14 0
BBX 18 14 -2 -2
BITMAP
060000
06dfc0
078e00
0cd800
07bf00
01d300
1f7e00
066600
3fbe00
1ccc00
1efc00
356800
e99800
1b0c00
ENDCHAR
STARTCHAR 3150
ENCODING 12624
SWIDTH 960 0
DWIDTH 14 0
BBX 18 14 -2 -2
BITMAP
060000
06dfc0
078e00
0cd800
07df00
003300
1fbe00
006600
3ffe00
0ecc00
357c00
6d6800
d99800
3b0c00
ENDCHAR
STARTCHAR 3151
ENCODING 12625
SWIDTH 960 0
DWIDTH 14 0
BBX 18 14 -2 -2
BITMAP
00cc00
00cc00
0fffc0
019800
006000
07fe00
0ccc00
0ccc00
0ccc00
7ffe00
034000
0e6000
383000
e01c00
ENDCHAR
STARTCHAR 3152
ENCODING 12626
SWIDTH 960 0
DWIDTH 14 0
BBX 18 14 -2 -2
BITMAP
033000
037b80
066800
1df800
031f80
07f600
0d6c00
1dec00
34cc00
1bd800
1a9800
1fe800
333000
337000
ENDCHAR
STARTCHAR 3153
ENCODING 12627
SWIDTH 960 0
DWIDTH 14 0
BBX 18 14 -2 -2
BITMAP
000c00
07c600
000600
1fdc00
000d00
0f8e00
00fa00
1f3c00
006c00
3ed400
36b400
373600
7c6000
60e000
ENDCHAR
STARTCHAR 3154
ENCODING 12628
SWIDTH 960 0
DWIDTH 14 0
BBX 18 14 -2 -2
BITMAP
019980
018d80
034f00
06dd00
0cd300
1bb300
066600
3fbe00
066c00
356800
1ed800
1d9a00
1f1c00
f60c00
ENDCHAR
STARTCHAR 3155
ENCODING 12629
SWIDTH 960 0
DWIDTH 14 0
BBX 18 14 -2 -2
BITMAP
030c00
018c00
01ffc0
186800
0c6f00
0cdb00
01ba00
0dae00
1aec00
1b6800
333000
636800
669800
c70c00
ENDCHAR
STARTCHAR 3156
ENCODING 12630
SWIDTH 960 0
DWIDTH 14 0
BBX 18 14 -2 -2
BITMAP
001800
001800
01ffc0
1b0000
0d7c00
0d6d80
06cd00
0e8f00
3dfc00
6d9800
18d000
30e000
63b000
de1c00
ENDCHAR
STARTCHAR 3157
ENCODING 12631
SWIDTH 960 0
DWIDTH 14 0
BBX 18 14 -2 -2
BITMAP
018600
00c600
00dc00
1ff780
030c00
060c00
0c0c00
0ffc00
1daa00
755600
0d5000
0d5000
fffc00
000000
ENDCHAR
STARTCHAR 3158
ENCODING 12632
SWIDTH 960 0
DWIDTH 14 0
BBX 18 14 -2 -2
BITMAP
000000
07ff80
069980
0fd300
0d3300
0fdf00
1a6a00
1fa800
06a800
3f5800
3d5800
7b9800
cd1800
3a0c00
ENDCHAR
STARTCHAR 3159
ENCODING 12633
SWIDTH 960 0
DWIDTH 14 0
BBX 18 14 -2 -2
BITMAP
033300
031b00
031e00
077b00
0ec300
0ec300
1dfe00
35aa00
0cd800
18d000
19b000
1b3600
343400
381c00
ENDCHAR
STARTCHAR 315a
ENCODING 12634
SWIDTH 960 0
DWIDTH 14 0
BBX 18 14 -2 -2
BITMAP
000000
07df00
003300
1ffe00
006600
0fbe00
006000
1f7e00
03da00
3eec00
36b400
36f400
7c1800
607000
ENDCHAR
STARTCHAR 315b
ENCODING 12635
SWIDTH 960 0
DWIDTH 14 0
BBX 18 14 -2 -2
BITMAP
018600
018680
07c6c0
037f80
036c00
1fee00
06da00
1adc00
1bd400
35ee00
3db600
6c6600
660000
c3fc00
ENDCHAR
STARTCHAR 315c
ENCODING 12636
SWIDTH 960 0
DWIDTH 14 0
BBX 18 14 -2 -2
BITMAP
000000
07ef80
066980
0fdf00
0cd300
0fdf00
1b3600
19a600
1be600
366c00
37ec00
374c00
6ce800
687800
ENDCHAR
STARTCHAR 315d
ENCODING 12637
SWIDTH 960 0
DWIDTH 14 0
BBX 18 14 -2 -2
BITMAP
018000
01bfc0
018c00
1fff00
036300
07bf00
0ec600
0efe00
1ad000
34fc00
6dd800
0cf000
1bb000
1e1c00
ENDCHAR
STARTCHAR 315e
ENCODING 12638
SWIDTH 960 0
DWIDTH 14 0
BBX 18 14 -2 -2
BITMAP
000000
07ffc0
060000
0ded00
0d6d80
0dec00
187f00
1bd800
1ad800
37b000
35b800
37d800
6b9800
db0c00
ENDCHAR
STARTCHAR 315f
ENCODING 12639
SWIDTH 960 0
DWIDTH 14 0
BBX 18 14 -2 -2
BITMAP
000000
07ff80
063180
0c6300
0c6300
0c6300
18c600
1ffe00
180600
300c00
300c00
300c00
601800
603800
ENDCHAR
STARTCHAR 3160
ENCODING 12640
SWIDTH 960 0
DWIDTH 14 0
BBX 18 14 -2 -2
BITMAP
000000
07ff80
063180
0dfd00
0c6300
0fff00
1bf600
1b3600
1bf600
33d400
36ac00
31b400
7ff800
601800
ENDCHAR
STARTCHAR 3161
ENCODING 12641
SWIDTH 960 0
DWIDTH 14 0
BBX 18 14 -2 -2
BITMAP
000000
037fc0
036000
06df00
1fd300
06df00
0da600
0dbe00
0f9800
1dfe00
736800
037800
06d800
07fc00
ENDCHAR
STARTCHAR 3162
ENCODING 12642
SWIDTH 960 0
DWIDTH 14 0
BBX 18 14 -2 -2
BITMAP
003000
003000
0fffc0
00d000
03ac00
1e6780
0ffc00
0ccc00
0ffc00
199800
1ff800
199a00
318c00
00fc00
ENDCHAR
STARTCHAR 3163
ENCODING 12643
SWIDTH 960 0
DWIDTH 14 0
BBX 18 14 -2 -2
BITMAP
003000
07ffc0
0c0180
1bfc00
030c00
03fc00
061800
07f800
00c000
7ffe00
066000
0ec000
074000
7c7000
ENDCHAR
STARTCHAR 3164
ENCODING 12644
SWIDTH 960 0
DWIDTH 14 0
BBX 18 14 -2 -2
BITMAP
000000
0f83c0
01be00
030c00
060c00
0fac00
035e00
1b5800
1b5800
1bb000
1dfe00
3c0000
660000
c3fc00
ENDCHAR
STARTCHAR 3165
ENCODING 12645
SWIDTH 960 0
DWIDTH 14 0
BBX 18 14 -2 -2
BITMAP
018000
018000
03ff80
067300
0d5300
1bd600
033300
0e1f00
30c000
1ad800
1acc00
363400
e66c00
03e000
ENDCHAR
STARTCHAR 3166
ENCODING 12646
SWIDTH 960 0
DWIDTH 14 0
BBX 18 14 -2 -2
BITMAP
030c00
030c00
037fc0
1fb400
066a00
06db00
0fff00
0db600
3dfe00
6b6c00
1bfc00
1b6c00
306c00
703c00
ENDCHAR
STARTCHAR 3167
ENCODING 12647
SWIDTH 960 0
DWIDTH 14 0
BBX 18 14 -2 -2
BITMAP
030180
030600
037d00
1fdb00
066600
06ff00
0c6000
0fff00
3cc000
19fc00
1b5800
1e7000
39f000
771c00
ENDCHAR
STARTCHAR 3168
ENCODING 12648
SWIDTH 960 0
DWIDTH 14 0
BBX 18 14 -2 -2
BITMAP
031e00
018600
01b600
186600
0c6600
0cc600
018600
0dfd00
198c00
1b1800
331800
631800
67f000
c63000
ENDCHAR
STARTCHAR 3169
ENCODING 12649
SWIDTH 960 0
DWIDTH 14 0
BBX 18 14 -2 -2
BITMAP
030c00
018c00
01ffc0
198300
0dff80
0c1800
01fe00
0db600
19fe00
1b6c00
33fc00
61d800
671800
dc0c00
ENDCHAR
STARTCHAR 316a
ENCODING 12650
SWIDTH 960 0
DWIDTH 14 0
BBX 18 14 -2 -2
BITMAP
003300
01b300
033600
066000
00d800
038c00
1e0600
00cc00
0cd800
19b000
334000
0e6000
383000
e01c00
ENDCHAR
STARTCHAR 316b
ENCODING 12651
SWIDTH 960 0
DWIDTH 14 0
BBX 18 14 -2 -2
BITMAP
018c00
018c00
01af80
035300
0d6600
0d8c00
1ade00
36d600
0cd600
0ebc00
1bac00
33ac00
637800
c35800
ENDCHAR
STARTCHAR 316c
ENCODING 12652
SWIDTH 960 0
DWIDTH 14 0
BBX 18 14 -2 -2
BITMAP
030000
037fc0
031a00
06ff00
0ed500
0f5500
1dfe00
35b600
1a3000
1bfc00
366000
606000
cffc00
000000
ENDCHAR
STARTCHAR 316d
ENCODING 12653
SWIDTH 960 0
DWIDTH 14 0
BBX 18 14 -2 -2
BITMAP
00cc00
00cc00
0fffc0
019800
03fd80
1f0f00
06ec00
0ea800
3aab00
0dde00
1ad800
366c00
66cc00
c00c00
ENDCHAR
STARTCHAR 316e
ENCODING 12654
SWIDTH 960 0
DWIDTH 14 0
BBX 18 14 -2 -2
BITMAP
018c00
0dbf80
070c00
06ff80
0e0000
1a7e00
06cc00
0efc00
3a7400
6fb400
0d9800
199800
6bd800
360c00
ENDCHAR
STARTCHAR 316f
ENCODING 12655
SWIDTH 960 0
DWIDTH 14 0
BBX 18 14 -2 -2
BITMAP
030000
033f00
078300
1dbe00
070600
0fff80
1b3000
3f7b00
0dba00
3cd800
3bb800
7ad400
d36c00
31c000
ENDCHAR
STARTCHAR 3170
ENCODING 12656
SWIDTH 960 0
DWIDTH 14 0
BBX 18 14 -2 -2
BITMAP
034600
0ff600
0d5f80
1ff600
1aac00
1fff00
006a00
3fea00
1fbe00
334c00
3f4000
36c600
3ecc00
e07c00
ENDCHAR
STARTCHAR 3171
ENCODING 12657
SWIDTH 960 0
DWIDTH 14 0
BBX 18 14 -2 -2
BITMAP
00cc00
00cc00
0fffc0
019800
030000
033f00
07a600
0da600
3b6c00
6b5800
0ec000
18c600
30cc00
607c00
ENDCHAR
STARTCHAR 3172
ENCODING 12658
SWIDTH 960 0
DWIDTH 14 0
BBX 18 14 -2 -2
BITMAP
00cc00
0fffc0
00cc00
0fff00
0c6300
0dfb00
1ffe00
1b3600
1bf600
33d400
376c00
333400
7ff800
601800
ENDCHAR
STARTCHAR 3173
ENCODING 12659
SWIDTH 960 0
DWIDTH 14 0
BBX 18 14 -2 -2
BITMAP
000c00
067f80
060c00
06ff80
000000
00ff00
3d8600
0dfe00
0c6600
19ec00
1f5800
3ccc00
668000
c3fc00
ENDCHAR
STARTCHAR 3174
ENCODING 12660
SWIDTH 960 0
DWIDTH 14 0
BBX 18 14 -2 -2
BITMAP
018f00
018300
035b00
06d300
0cd300
1be300
066300
3fbe00
066600
354c00
1ecc00
1ccc00
1ef800
f19800
ENDCHAR
STARTCHAR 3175
ENCODING 12661
SWIDTH 960 0
DWIDTH 14 0
BBX 18 14 -2 -2
BITMAP
018000
03ff80
0f6b00
03b600
073180
1cdf80
07f000
063000
07fe00
0c0000
0ffc00
1dac00
756800
c07000
ENDCHAR
STARTCHAR 3176
ENCODING 12662
SWIDTH 960 0
DWIDTH 14 0
BBX 18 14 -2 -2
BITMAP
003000
033000
037fc0
06c000
1ffe00
06c600
0cfc00
0c0000
0ffe00
1d5400
735400
035400
1ffc00
000000
ENDCHAR
STARTCHAR 3177
ENCODING 12663
SWIDTH 960 0
DWIDTH 14 0
BBX 18 14 -2 -2
BITMAP
018600
018600
018600
1fee00
031a00
037300
07d300
069800
0d9800
0d0000
1b6000
733000
c63000
1c3000
ENDCHAR
STARTCHAR 3178
ENCODING 12664
SWIDTH 960 0
DWIDTH 14 0
BBX 18 14 -2 -2
BITMAP
030000
01bf80
018c00
181800
0dff80
0c3000
006000
06fe00
0cc600
0c0c00
180c00
300c00
301800
60f000
ENDCHAR
STARTCHAR 3179
ENCODING 12665
SWIDTH 960 0
DWIDTH 14 0
BBX 18 14 -2 -2
BITMAP
018000
06bf80
06ad80
0fdb00
0d7f00
1b5b00
06b600
1ffe00
063000
0dfc00
0e6c00
3ccc00
e31800
0e7000
ENDCHAR
STARTCHAR 317a
ENCODING 12666
SWIDTH 960 0
DWIDTH 14 0
BBX 18 14 -2 -2
BITMAP
000000
07cf80
06cd80
0d9b00
0d9b00
0d9b00
1b3600
1bf600
1b3600
300c00
300c00
300c00
7ff800
601800
ENDCHAR
STARTCHAR 317b
ENCODING 12667
SWIDTH 960 0
DWIDTH 14 0
BBX 18 14 -2 -2
BITMAP
003000
003000
003000
07fe00
066600
066600
0ccc00
0ccc00
3fff00
038000
034000
0e6000
383000
e01c00
ENDCHAR
STARTCHAR 317c
ENCODING 12668
SWIDTH 960 0
DWIDTH 14 0
BBX 18 14 -2 -2
BITMAP
003000
006000
03ff00
076a00
06aa00
06b600
0ffc00
0dec00
0f5400
1db800
7ffe00
074000
1c6000
703800
ENDCHAR
STARTCHAR 317d
ENCODING 12669
SWIDTH 960 0
DWIDTH 14 0
BBX 18 14 -2 -2
BITMAP
019800
018c00
030c00
0eff80
199800
031800
063000
0efe00
3a3000
6c6000
0c6000
0c6000
1ffc00
180000
ENDCHAR
STARTCHAR 317e
ENCODING 12670
SWIDTH 960 0
DWIDTH 14 0
BBX 18 14 -2 -2
BITMAP
001800
001800
03ffc0
063000
061800
066800
0cd800
0d4600
0ec600
1a8600
358600
6d9800
c1b000
00f000
ENDCHAR
STARTCHAR 3221
ENCODING 12833
SWIDTH 960 0
DWIDTH 14 0
BBX 18 14 -2 -2
BITMAP
030000
037f80
036d80
1fdb00
06ff00
06db00
0db600
0ffe00
3db600
186000
186000
186000
30c000
70c000
ENDCHAR
STARTCHAR 3222
ENCODING 12834
SWIDTH 960 0
DWIDTH 14 0
BBX 18 14 -2 -2
BITMAP
000000
0fffc0
0ccc00
199800
199800
1f9800
33fe00
333000
333000
7e6000
666000
606000
0ffc00
000000
ENDCHAR
STARTCHAR 3223
ENCODING 12835
SWIDTH 960 0
DWIDTH 14 0
BBX 18 14 -2 -2
BITMAP
031a00
031a00
037f80
1fb400
06ff80
061800
1efe00
1db600
1dfe00
3b6c00
6bfc00
19d000
333000
361800
ENDCHAR
STARTCHAR 3224
ENCODING 12836
SWIDTH 960 0
DWIDTH 14 0
BBX 18 14 -2 -2
BITMAP
000c00
07f400
066c00
0cdf80
0ed500
0dee00
1b1c00
1b9800
1a9800
35b000
39a800
31d800
7f1800
660c00
ENDCHAR
STARTCHAR 3225
ENCODING 12837
SWIDTH 960 0
DWIDTH 14 0
BBX 18 14 -2 -2
BITMAP
000000
07f700
066d00
0cda00
0eda80
0dd680
1b6700
1b7e00
1b3600
353400
383800
307800
7ed800
670c00
ENDCHAR
STARTCHAR 3226
ENCODING 12838
SWIDTH 960 0
DWIDTH 14 0
BBX 18 14 -2 -2
BITMAP
000000
07ff80
003000
006000
006000
006000
0ffc00
00c000
00c000
018000
018000
018000
fffc00
000000
ENDCHAR
STARTCHAR 3227
ENCODING 12839
SWIDTH 960 0
DWIDTH 14 0
BBX 18 14 -2 -2
BITMAP
00de00
00c600
03b300
1e7980
00dc00
0ff600
000000
3ffe00
19a600
1b6c00
071c00
3d7400
e79800
0e3800
ENDCHAR
STARTCHAR 3228
ENCODING 12840
SWIDTH 960 0
DWIDTH 14 0
BBX 18 14 -2 -2
BITMAP
030c00
031800
037f80
1feb00
035d00
077f00
0dba00
0ed600
3fb600
6bfe00
186000
19d000
373000
3c1c00
ENDCHAR
STARTCHAR 3229
ENCODING 12841
SWIDTH 960 0
DWIDTH 14 0
BBX 18 14 -2 -2
BITMAP
036300
01b600
07ffc0
0cc300
1bfc00
030c00
07f800
061800
07ff00
0c0000
0ffc00
35ac00
6de800
c07000
ENDCHAR
STARTCHAR 322a
ENCODING 12842
SWIDTH 960 0
DWIDTH 14 0
BBX 18 14 -2 -2
BITMAP
000600
07f400
063f80
0cd300
0cdf00
0eb300
1abe00
1b7f00
1b6000
357e00
386a00
31d600
7f6c00
663800
ENDCHAR
STARTCHAR 322b
ENCODING 12843
SWIDTH 960 0
DWIDTH 14 0
BBX 18 14 -2 -2
BITMAP
00cc00
00cc00
07ff80
019800
1fff80
006000
0ffc00
0ccc00
0ffc00
199800
1ff800
0e6000
383000
e01800
ENDCHAR
STARTCHAR 322c
ENCODING 12844
SWIDTH 960 0
DWIDTH 14 0
BBX 18 14 -2 -2
BITMAP
000000
07ff80
068d80
0d9b00
0db300
0fff00
18c600
1ada00
1ada00
35b400
37f400
343400
601800
603800
ENDCHAR
STARTCHAR 322d
ENCODING 12845
SWIDTH 960 0
DWIDTH 14 0
BBX 18 14 -2 -2
BITMAP
030c00
018c00
018c00
18ff00
0cdb00
0cdb00
01b600
06b600
0dfe00
0d6c00
186000
306000
30c000
60c000
ENDCHAR
STARTCHAR 322e
ENCODING 12846
SWIDTH 960 0
DWIDTH 14 0
BBX 18 14 -2 -2
BITMAP
00cc00
00cc00
0fffc0
019800
018c00
0f0d00
036a00
0e6c00
3b5800
0eb000
1a6800
76d800
0d1800
3a0c00
ENDCHAR
STARTCHAR 322f
ENCODING 12847
SWIDTH 960 0
DWIDTH 14 0
BBX 18 14 -2 -2
BITMAP
018c00
01bf80
019a00
03ff80
060000
1e7e00
34cc00
0cfc00
0ccc00
19f800
1aac00
1db400
39b400
30f000
ENDCHAR
STARTCHAR 3230
ENCODING 12848
SWIDTH 960 0
DWIDTH 14 0
BBX 18 14 -2 -2
BITMAP
000000
03ff80
030180
07ff00
060000
07ff00
0cd000
0d9c00
1bf600
18c000
37f800
70c000
dffc00
000000
ENDCHAR
STARTCHAR 3231
ENCODING 12849
SWIDTH 960 0
DWIDTH 14 0
BBX 18 14 -2 -2
BITMAP
030c00
037f80
033300
06ff80
0f0000
0f7e00
1d4c00
34fc00
0ccc00
19f800
1aac00
1db400
39b400
30f000
ENDCHAR
STARTCHAR 3232
ENCODING 12850
SWIDTH 960 0
DWIDTH 14 0
BBX 18 14 -2 -2
BITMAP
000600
07ffc0
06db00
0dff80
0f8000
0dbf00
1b4600
1f7e00
1b4600
36fc00
36d400
37d400
6ed400
dc7000
ENDCHAR
STARTCHAR 3233
ENCODING 12851
SWIDTH 960 0
DWIDTH 14 0
BBX 18 14 -2 -2
BITMAP
030000
037f80
031b00
1f9c00
06ff00
06db00
1eb600
1dfe00
1db600
3b6c00
6bfc00
1b6c00
36d800
36d800
ENDCHAR
STARTCHAR 3234
ENCODING 12852
SWIDTH 960 0
DWIDTH 14 0
BBX 18 14 -2 -2
BITMAP
018c00
018c00
068c00
0d1800
0fd800
0d7f00
1a3000
363000
07b000
7c6000
0c6000
0c6000
1bfc00
180000
ENDCHAR
STARTCHAR 3235
ENCODING 12853
SWIDTH 960 0
DWIDTH 14 0
BBX 18 14 -2 -2
BITMAP
000000
07fe00
001c00
003000
006000
01c000
030000
060000
0c0000
180c00
300c00
300c00
1ff800
000000
ENDCHAR
STARTCHAR 3236
ENCODING 12854
SWIDTH 960 0
DWIDTH 14 0
BBX 18 14 -2 -2
BITMAP
019800
019800
01ff80
036800
06d400
1eb700
37fd00
0d6c00
0dfc00
1ad800
1bf800
1ada00
30cc00
307c00
ENDCHAR
STARTCHAR 3237
ENCODING 12855
SWIDTH 960 0
DWIDTH 14 0
BBX 18 14 -2 -2
BITMAP
030000
030f80
07f580
0d9b00
199b00
1ffb00
033600
1bd600
1b3600
366c00
37b800
3e6000
e0c000
00c000
ENDCHAR
STARTCHAR 3238
ENCODING 12856
SWIDTH 960 0
DWIDTH 14 0
BBX 18 14 -2 -2
BITMAP
000000
03ff00
033300
07fe00
066600
06d600
0f1c00
0ffc00
00c000
1ad800
1acc00
363400
e66c00
03e000
ENDCHAR
STARTCHAR 3239
ENCODING 12857
SWIDTH 960 0
DWIDTH 14 0
BBX 18 14 -2 -2
BITMAP
030000
01bf00
01a300
18fe00
0cc600
0cfe00
018c00
0c0000
1bfe00
1ab400
36b400
66b400
6ffc00
c00000
ENDCHAR
STARTCHAR 323a
ENCODING 12858
SWIDTH 960 0
DWIDTH 14 0
BBX 18 14 -2 -2
BITMAP
00c380
03be80
0f6d00
066600
067f00
1f8300
0cfe00
0e0600
1efe00
3a6000
6b5400
1acc00
34d400
307000
ENDCHAR
STARTCHAR 323b
ENCODING 12859
SWIDTH 960 0
DWIDTH 14 0
BBX 18 14 -2 -2
BITMAP
003000
003000
07ff80
030c00
019800
1fff80
000000
07f800
061800
0ff000
0c3000
0c3000
1fe000
186000
ENDCHAR
STARTCHAR 323c
ENCODING 12860
SWIDTH 960 0
DWIDTH 14 0
BBX 18 14 -2 -2
BITMAP
000000
0fffc0
003000
006000
007000
006800
00d800
00cc00
00cc00
018000
018000
018000
030000
030000
ENDCHAR
STARTCHAR 323d
ENCODING 12861
SWIDTH 960 0
DWIDTH 14 0
BBX 18 14 -2 -2
BITMAP
00d800
00d800
019980
01b300
033600
0f3400
1a7000
366000
066000
0cc000
0cc000
0cc600
18cc00
187c00
ENDCHAR
STARTCHAR 323e
ENCODING 12862
SWIDTH 960 0
DWIDTH 14 0
BBX 18 14 -2 -2
BITMAP
018000
01bfc0
036000
034000
06ff00
1ed600
35b600
0db400
0d3800
1b1800
1a3000
1ce800
3b9800
360c00
ENDCHAR
STARTCHAR 323f
ENCODING 12863
SWIDTH 960 0
DWIDTH 14 0
BBX 18 14 -2 -2
BITMAP
018000
01ffc0
030180
030300
06fb00
1edb00
35b600
0db600
0df600
1b6c00
180c00
180c00
301800
303800
ENDCHAR
STARTCHAR 3240
ENCODING 12864
SWIDTH 960 0
DWIDTH 14 0
BBX 18 14 -2 -2
BITMAP
01a000
01a000
01a780
03f500
06d500
1ed500
35aa00
0daa00
0d6a00
1b5400
1ad400
1cdc00
3ba800
300000
ENDCHAR
STARTCHAR 3241
ENCODING 12865
SWIDTH 960 0
DWIDTH 14 0
BBX 18 14 -2 -2
BITMAP
018000
01ffc0
031a00
033400
063400
1eff00
35aa00
0daa00
0daa00
1b5400
1b5400
1b5400
37f800
361800
ENDCHAR
STARTCHAR 3242
ENCODING 12866
SWIDTH 960 0
DWIDTH 14 0
BBX 18 14 -2 -2
BITMAP
018c00
018c00
030c00
037f00
061800
1e1800
35ff00
0c3000
0c3000
1bfc00
186000
186000
37fc00
300000
ENDCHAR
STARTCHAR 3243
ENCODING 12867
SWIDTH 960 0
DWIDTH 14 0
BBX 18 14 -2 -2
BITMAP
018000
018000
018000
031f80
1fe980
036980
06d300
06d300
0cd300
0da600
19a600
31be00
634c00
ce0000
ENDCHAR
STARTCHAR 3244
ENCODING 12868
SWIDTH 960 0
DWIDTH 14 0
BBX 18 14 -2 -2
BITMAP
000000
0fffc0
000300
000600
07e600
066600
0ccc00
0ccc00
0fcc00
199800
001800
001800
003000
007000
ENDCHAR
STARTCHAR 3245
ENCODING 12869
SWIDTH 960 0
DWIDTH 14 0
BBX 18 14 -2 -2
BITMAP
003000
07ff80
003000
07fe00
000000
03fc00
061800
07f800
033000
7ffe00
060000
3fbc00
1b5800
777800
ENDCHAR
STARTCHAR 3246
ENCODING 12870
SWIDTH 960 0
DWIDTH 14 0
BBX 18 14 -2 -2
BITMAP
000000
0fffc0
003000
03fc00
030c00
03fc00
061800
07f800
061800
0ff000
3e6000
03c000
0ee000
f83c00
ENDCHAR
STARTCHAR 3247
ENCODING 12871
SWIDTH 960 0
DWIDTH 14 0
BBX 18 14 -2 -2
BITMAP
030c00
030c00
037fc0
06c300
1fff80
0d9800
1b7b00
1bda00
3eec00
6db800
0ed400
1bb600
706000
c1c000
ENDCHAR
STARTCHAR 3248
ENCODING 12872
SWIDTH 960 0
DWIDTH 14 0
BBX 18 14 -2 -2
BITMAP
003000
003000
07ffc0
0c0300
1fff00
01c000
075600
1df600
0ef400
3b5000
06d800
1ccc00
f18c00
070000
ENDCHAR
STARTCHAR 3249
ENCODING 12873
SWIDTH 960 0
DWIDTH 14 0
BBX 18 14 -2 -2
BITMAP
003000
07ffc0
0e0380
1bfe00
00c000
03fc00
061800
07f800
061800
7ffe00
0ff000
7b6e00
0cc000
3b8000
ENDCHAR
STARTCHAR 324a
ENCODING 12874
SWIDTH 960 0
DWIDTH 14 0
BBX 18 14 -2 -2
BITMAP
006300
01db00
079b00
031a00
036600
1fe600
066c00
0f0f00
1f7c00
35d800
6c1800
0c1800
183000
183000
ENDCHAR
STARTCHAR 324b
ENCODING 12875
SWIDTH 960 0
DWIDTH 14 0
BBX 18 14 -2 -2
BITMAP
000000
00fb80
0f5980
1ab300
1af700
1ab300
3d0000
35de00
353400
6a3400
7bb800
6a3800
cc6800
0dcc00
ENDCHAR
STARTCHAR 324c
ENCODING 12876
SWIDTH 960 0
DWIDTH 14 0
BBX 18 14 -2 -2
BITMAP
000000
03ff00
033300
066600
07fe00
066600
0ffc00
00c000
3fff00
03c000
06a000
1db800
f30c00
030000
ENDCHAR
STARTCHAR 324d
ENCODING 12877
SWIDTH 960 0
DWIDTH 14 0
BBX 18 14 -2 -2
BITMAP
030000
031f80
0fe980
06d300
06d300
0ddf00
3b6600
00c000
3fff00
03c000
06a000
1db800
f30c00
030000
ENDCHAR
STARTCHAR 324e
ENCODING 12878
SWIDTH 960 0
DWIDTH 14 0
BBX 18 14 -2 -2
BITMAP
000c00
0ff400
006c00
0f5800
0d5f80
0f6b00
01ac00
3fd800
019800
3d3000
356800
3dd800
6f1800
060c00
ENDCHAR
STARTCHAR 324f
ENCODING 12879
SWIDTH 960 0
DWIDTH 14 0
BBX 18 14 -2 -2
BITMAP
030000
01ffc0
018180
180300
0cfb00
0cdb00
01b600
01b600
0df600
0d6c00
180c00
300c00
301800
603800
ENDCHAR
STARTCHAR 3250
ENCODING 12880
SWIDTH 960 0
DWIDTH 14 0
BBX 18 14 -2 -2
BITMAP
003000
003000
003180
066300
066600
0c6c00
0ce000
19a000
036000
036000
063000
1c1800
301800
e00c00
ENDCHAR
STARTCHAR 3251
ENCODING 12881
SWIDTH 960 0
DWIDTH 14 0
BBX 18 14 -2 -2
BITMAP
000000
007fc0
0fc180
060300
067d00
066d00
3f5a00
0cda00
0cfa00
19b400
1e0c00
700c00
001800
003800
ENDCHAR
STARTCHAR 3252
ENCODING 12882
SWIDTH 960 0
DWIDTH 14 0
BBX 18 14 -2 -2
BITMAP
030000
033f00
033300
1fae00
036a00
066a00
0cfe00
0e8600
3fba00
6b5400
1b7400
1b5400
361800
363800
ENDCHAR
STARTCHAR 3253
ENCODING 12883
SWIDTH 960 0
DWIDTH 14 0
BBX 18 14 -2 -2
BITMAP
000700
003c00
03f000
006000
006000
1fff80
00c000
01e000
075000
1d9800
718e00
018000
030000
030000
ENDCHAR
STARTCHAR 3254
ENCODING 12884
SWIDTH 960 0
DWIDTH 14 0
BBX 18 14 -2 -2
BITMAP
00cc00
038c00
0f7fc0
06c300
06ff00
1f9800
0c7b00
1eda00
1f6c00
3bb800
68d400
1bb600
306000
31c000
ENDCHAR
STARTCHAR 3255
ENCODING 12885
SWIDTH 960 0
DWIDTH 14 0
BBX 18 14 -2 -2
BITMAP
030c00
03ffc0
06ba00
1da600
0fff00
0c6300
1bfa00
18c600
1bf600
366c00
37ec00
300c00
7ff800
601800
ENDCHAR
STARTCHAR 3256
ENCODING 12886
SWIDTH 960 0
DWIDTH 14 0
BBX 18 14 -2 -2
BITMAP
00cc00
00cc00
0fffc0
019800
019800
033000
036600
066c00
1e7800
34c000
6cc000
0cc600
18cc00
187c00
ENDCHAR
STARTCHAR 3257
ENCODING 12887
SWIDTH 960 0
DWIDTH 14 0
BBX 18 14 -2 -2
BITMAP
00cc00
00cc00
0fffc0
019800
000000
1fff80
000c00
0fcc00
0ccc00
199800
1f9800
199800
003000
007000
ENDCHAR
STARTCHAR 3258
ENCODING 12888
SWIDTH 960 0
DWIDTH 14 0
BBX 18 14 -2 -2
BITMAP
00cc00
00cc00
0fffc0
019800
069800
060000
3fbe00
0da600
0da600
1b4c00
1b4c00
334c00
66f800
dd9800
ENDCHAR
STARTCHAR 3259
ENCODING 12889
SWIDTH 960 0
DWIDTH 14 0
BBX 18 14 -2 -2
BITMAP
00cc00
00cc00
0fffc0
019800
030000
06ff80
060c00
0df400
3db400
6b6800
1be800
1b1800
303000
307000
ENDCHAR
STARTCHAR 325a
ENCODING 12890
SWIDTH 960 0
DWIDTH 14 0
BBX 18 14 -2 -2
BITMAP
00cc00
00cc00
0fffc0
019800
07fe00
036c00
3fff00
06d800
0ffe00
018000
7ffe00
018000
030000
030000
ENDCHAR
STARTCHAR 325b
ENCODING 12891
SWIDTH 960 0
DWIDTH 14 0
BBX 18 14 -2 -2
BITMAP
00cc00
0fffc0
00cc00
07fe00
066600
07fe00
0ccc00
0ffc00
00c000
7ffe00
03c000
1eb000
f31c00
030000
ENDCHAR
STARTCHAR 325c
ENCODING 12892
SWIDTH 960 0
DWIDTH 14 0
BBX 18 14 -2 -2
BITMAP
030000
033d80
033580
1fab00
1abb00
1aa300
354000
3f7e00
34dc00
1db400
1ae800
3eb800
ed6800
034c00
ENDCHAR
STARTCHAR 325d
ENCODING 12893
SWIDTH 960 0
DWIDTH 14 0
BBX 18 14 -2 -2
BITMAP
000000
07df80
003580
1feb00
007f00
0fab00
00fe00
1f3000
03ff00
3ef000
36a800
376c00
7ccc00
6cc000
ENDCHAR
STARTCHAR 325e
ENCODING 12894
SWIDTH 960 0
DWIDTH 14 0
BBX 18 14 -2 -2
BITMAP
003300
003300
0fffc0
1b6600
1b7f00
1b6a00
37ff00
36d400
36fe00
7c6000
6ffe00
606000
00c000
00c000
ENDCHAR
STARTCHAR 325f
ENCODING 12895
SWIDTH 960 0
DWIDTH 14 0
BBX 18 14 -2 -2
BITMAP
00d800
00d9c0
079f00
1d3180
031f80
03fc00
061800
07f800
061800
0ff000
0c3000
0ff000
0ed000
781800
ENDCHAR
STARTCHAR 3260
ENCODING 12896
SWIDTH 960 0
DWIDTH 14 0
BBX 18 14 -2 -2
BITMAP
006000
066000
066780
07f500
00d500
00d500
3daa00
0daa00
0d6a00
1ad400
1cdc00
3db400
6e0000
c3fc00
ENDCHAR
STARTCHAR 3261
ENCODING 12897
SWIDTH 960 0
DWIDTH 14 0
BBX 18 14 -2 -2
BITMAP
000000
067f00
066300
06de00
00d600
01fe00
3d0600
0d7a00
0d5a00
1af400
1ab400
3e1c00
6e0000
c3fc00
ENDCHAR
STARTCHAR 3262
ENCODING 12898
SWIDTH 960 0
DWIDTH 14 0
BBX 18 14 -2 -2
BITMAP
000000
03ff00
003000
0fff80
0c6300
1bae00
006000
1fbe00
198600
3efc00
3efc00
306800
7ce800
638c00
ENDCHAR
STARTCHAR 3263
ENCODING 12899
SWIDTH 960 0
DWIDTH 14 0
BBX 18 14 -2 -2
BITMAP
018600
018600
018600
0fff80
0d5300
0d5600
1ab600
1fb400
1b3800
0e1800
0d3000
1fe800
f19800
030c00
ENDCHAR
STARTCHAR 3264
ENCODING 12900
SWIDTH 960 0
DWIDTH 14 0
BBX 18 14 -2 -2
BITMAP
018e00
01ba80
01f680
036d80
066c00
1fff80
34d800
0cea00
0cdc00
1b8c00
1e9800
19ba00
375c00
330c00
ENDCHAR
STARTCHAR 3265
ENCODING 12901
SWIDTH 960 0
DWIDTH 14 0
BBX 18 14 -2 -2
BITMAP
000e00
031a80
037a80
063580
1ab400
1aff80
356b00
356a00
357e00
6ad800
7f5800
66ea00
c19c00
038c00
ENDCHAR
STARTCHAR 3266
ENCODING 12902
SWIDTH 960 0
DWIDTH 14 0
BBX 18 14 -2 -2
BITMAP
006800
00db00
079b00
033300
033000
1fff80
066600
066600
07ac00
7c6800
0c3600
0cea00
1b9c00
380c00
ENDCHAR
STARTCHAR 3267
ENCODING 12903
SWIDTH 960 0
DWIDTH 14 0
BBX 18 14 -2 -2
BITMAP
000000
01ff00
018c00
031800
031800
031800
3fff00
007000
00d000
03a000
066000
1c6000
f0c000
01c000
ENDCHAR
STARTCHAR 3268
ENCODING 12904
SWIDTH 960 0
DWIDTH 14 0
BBX 18 14 -2 -2
BITMAP
000000
0fffc0
003000
006000
0dfd00
0d6d00
1ada00
1bfa00
1ada00
35b400
37f400
300c00
7ff800
601800
ENDCHAR
STARTCHAR 3269
ENCODING 12905
SWIDTH 960 0
DWIDTH 14 0
BBX 18 14 -2 -2
BITMAP
000600
07fa00
06c600
0d8c00
0fec00
0c6c00
18d800
18d800
1fe800
366800
36d800
3fd800
631800
060c00
ENDCHAR
STARTCHAR 326a
ENCODING 12906
SWIDTH 960 0
DWIDTH 14 0
BBX 18 14 -2 -2
BITMAP
00cc00
00cc00
0fffc0
019800
07fe00
031800
063000
3fff00
00f000
01a000
076000
3c6000
e0c000
01c000
ENDCHAR
STARTCHAR 326b
ENCODING 12907
SWIDTH 960 0
DWIDTH 14 0
BBX 18 14 -2 -2
BITMAP
030e00
031b00
037b00
1fb500
1ab400
1aff80
356800
3f6a00
347c00
1dd400
1ad800
3f7a00
e1dc00
038c00
ENDCHAR
STARTCHAR 326c
ENCODING 12908
SWIDTH 960 0
DWIDTH 14 0
BBX 18 14 -2 -2
BITMAP
018000
019f80
0fe980
06df00
06d300
0ffc00
3a1800
07f800
061800
0ff000
0c3000
0ff000
0ed000
781800
ENDCHAR
STARTCHAR 326d
ENCODING 12909
SWIDTH 960 0
DWIDTH 14 0
BBX 18 14 -2 -2
BITMAP
000d80
07ed80
06db00
0dbf80
0db600
1fd600
077f00
076c00
0d6c00
1afe00
36d800
66d800
0dfc00
1d8000
ENDCHAR
STARTCHAR 326e
ENCODING 12910
SWIDTH 960 0
DWIDTH 14 0
BBX 18 14 -2 -2
BITMAP
018600
018e80
03fa80
075580
0d3400
1fff80
1b6800
1f6a00
1b7c00
3fcc00
34da00
36fe00
7edc00
e38c00
ENDCHAR
STARTCHAR 326f
ENCODING 12911
SWIDTH 960 0
DWIDTH 14 0
BBX 18 14 -2 -2
BITMAP
018000
0fef80
036980
06d300
0ddf00
183600
0ffc00
0cc000
0ff800
198000
1ffc00
356c00
6f6800
c07000
ENDCHAR
STARTCHAR 3270
ENCODING 12912
SWIDTH 960 0
DWIDTH 14 0
BBX 18 14 -2 -2
BITMAP
003000
003000
006800
01d800
060e00
1d1b80
033000
033000
063000
066000
0c6000
186000
30c000
60c000
ENDCHAR
STARTCHAR 3271
ENCODING 12913
SWIDTH 960 0
DWIDTH 14 0
BBX 18 14 -2 -2
BITMAP
003000
003000
006800
01d800
070e00
1dfb80
000000
000000
1ffe00
036000
033000
0ef800
7b1800
001800
ENDCHAR
STARTCHAR 3272
ENCODING 12914
SWIDTH 960 0
DWIDTH 14 0
BBX 18 14 -2 -2
BITMAP
030000
03ff80
06cd80
1d3300
0fee00
0d6c00
1abe00
1fd800
1a9800
3ffe00
333000
333000
666000
ce6000
ENDCHAR
STARTCHAR 3273
ENCODING 12915
SWIDTH 960 0
DWIDTH 14 0
BBX 18 14 -2 -2
BITMAP
000000
07ff80
060180
0c0300
0dfb00
0d9b00
1b3600
1b3600
1b3600
37ec00
300c00
300c00
7ff800
601800
ENDCHAR
STARTCHAR 3274
ENCODING 12916
SWIDTH 960 0
DWIDTH 14 0
BBX 18 14 -2 -2
BITMAP
000c00
031800
037f80
06db00
1fff00
06db00
0dfe00
0db600
0c7400
1ee800
71b400
077c00
0ccc00
187c00
ENDCHAR
STARTCHAR 3275
ENCODING 12917
SWIDTH 960 0
DWIDTH 14 0
BBX 18 14 -2 -2
BITMAP
000c00
037fc0
030c00
06ff00
1fd500
06d500
0dfe00
0c3000
0fff00
1cec00
73a800
0eb000
03d000
0e1c00
ENDCHAR
STARTCHAR 3276
ENCODING 12918
SWIDTH 960 0
DWIDTH 14 0
BBX 18 14 -2 -2
BITMAP
000000
007f80
0fa180
035d00
06d500
06d500
1eaa00
06aa00
36ba00
350c00
1bfc00
3d0c00
6d0000
c1fc00
ENDCHAR
STARTCHAR 3277
ENCODING 12919
SWIDTH 960 0
DWIDTH 14 0
BBX 18 14 -2 -2
BITMAP
030c00
030c00
030c00
06ff00
0f1b00
0f1b00
1d3600
35ff00
0c3800
187000
18d800
1b9800
361800
340c00
ENDCHAR
STARTCHAR 3278
ENCODING 12920
SWIDTH 960 0
DWIDTH 14 0
BBX 18 14 -2 -2
BITMAP
030000
037f80
033700
063400
0f3800
0fee00
1d1b00
343000
0dfe00
186000
186000
186000
37fc00
300000
ENDCHAR
STARTCHAR 3279
ENCODING 12921
SWIDTH 960 0
DWIDTH 14 0
BBX 18 14 -2 -2
BITMAP
033000
033000
037fc0
074000
0ebe00
0eaa00
1cd400
35ff00
0db400
1b6800
1bfe00
1a1800
303000
30e000
ENDCHAR
STARTCHAR 327a
ENCODING 12922
SWIDTH 960 0
DWIDTH 14 0
BBX 18 14 -2 -2
BITMAP
030000
037fc0
036000
06cc00
0f4d00
0fd600
1dac00
35a800
0dd800
1b3000
1b6800
1ed800
3b1800
3c0c00
ENDCHAR
STARTCHAR 327b
ENCODING 12923
SWIDTH 960 0
DWIDTH 14 0
BBX 18 14 -2 -2
BITMAP
030c00
037fc0
030c00
077f00
0ed500
0ed500
1dfe00
343000
0dff00
18ec00
1ba800
1eb000
33d000
361c00
ENDCHAR
STARTCHAR 327c
ENCODING 12924
SWIDTH 960 0
DWIDTH 14 0
BBX 18 14 -2 -2
BITMAP
001b00
001980
001980
1fff80
003000
06d600
0db600
0db400
3ff800
1b1800
1b3600
336a00
639c00
c30c00
ENDCHAR
STARTCHAR 327d
ENCODING 12925
SWIDTH 960 0
DWIDTH 14 0
BBX 18 14 -2 -2
BITMAP
030000
037f80
036180
1fc300
06ff00
06c300
0c0000
0ffe00
3c6600
18cc00
18cc00
198c00
371800
747000
ENDCHAR
STARTCHAR 327e
ENCODING 12926
SWIDTH 960 0
DWIDTH 14 0
BBX 18 14 -2 -2
BITMAP
001800
0fd800
00d800
01bf80
01a600
1fe600
33ac00
303400
303800
663000
667000
3ed800
071800
1c0c00
ENDCHAR
STARTCHAR 3321
ENCODING 13089
SWIDTH 960 0
DWIDTH 14 0
BBX 18 14 -2 -2
BITMAP
019b00
030d00
07ed00
0d6600
0fd600
0d5600
1f4f00
1b7c00
074c00
0e9800
1b5800
37ea00
6c0c00
c7fc00
ENDCHAR
STARTCHAR 3322
ENCODING 13090
SWIDTH 960 0
DWIDTH 14 0
BBX 18 14 -2 -2
BITMAP
003000
003000
0fbfc0
1b4000
1bbe00
1b6a00
3ed400
37ff00
36b400
6d6800
7dfe00
6d1800
c03000
00e000
ENDCHAR
STARTCHAR 3323
ENCODING 13091
SWIDTH 960 0
DWIDTH 14 0
BBX 18 14 -2 -2
BITMAP
030600
030680
0306c0
1fff80
060c00
06d500
1eaa00
1daa00
1dfc00
3b5800
6b5a00
1afe00
3cdc00
318c00
ENDCHAR
STARTCHAR 3324
ENCODING 13092
SWIDTH 960 0
DWIDTH 14 0
BBX 18 14 -2 -2
BITMAP
033000
01b000
01bfc0
18c000
0dbe00
0c6a00
00d400
0fff00
19b400
1b6800
37fe00
661800
603000
c0e000
ENDCHAR
STARTCHAR 3325
ENCODING 13093
SWIDTH 960 0
DWIDTH 14 0
BBX 18 14 -2 -2
BITMAP
000000
03ffc0
030000
063000
063300
06d600
0dac00
0d6800
186000
18e000
31a000
673000
dc3000
701c00
ENDCHAR
STARTCHAR 3326
ENCODING 13094
SWIDTH 960 0
DWIDTH 14 0
BBX 18 14 -2 -2
BITMAP
000000
03ff00
033300
07fe00
066600
07fe00
0ccc00
01a000
0f6800
7a6e00
066000
0c6000
18c000
70c000
ENDCHAR
STARTCHAR 3327
ENCODING 13095
SWIDTH 960 0
DWIDTH 14 0
BBX 18 14 -2 -2
BITMAP
031800
031b80
03fe00
063180
063180
0f6f80
39c000
07f800
061800
0ff000
0c3000
0c3000
1fe000
186000
ENDCHAR
STARTCHAR 3328
ENCODING 13096
SWIDTH 960 0
DWIDTH 14 0
BBX 18 14 -2 -2
BITMAP
018600
018600
03ce00
1eda00
06b300
07ae80
0d8000
3f8000
0cff00
366000
356800
6ddc00
db6c00
180c00
ENDCHAR
STARTCHAR 3329
ENCODING 13097
SWIDTH 960 0
DWIDTH 14 0
BBX 18 14 -2 -2
BITMAP
00cc00
00cc00
0fffc0
019800
01a800
00d000
01b000
0f3c00
3a3700
066000
0c6000
186000
30c000
60c000
ENDCHAR
STARTCHAR 332a
ENCODING 13098
SWIDTH 960 0
DWIDTH 14 0
BBX 18 14 -2 -2
BITMAP
030000
03df80
068d80
1fdb00
0d7400
0fff00
1ad800
1fff00
31d800
6ff000
0db000
0ff000
033000
7fe800
ENDCHAR
STARTCHAR 332b
ENCODING 13099
SWIDTH 960 0
DWIDTH 14 0
BBX 18 14 -2 -2
BITMAP
000000
07ef80
066980
0fdf00
0cd300
0fdf00
180600
1bfa00
19a600
3ffc00
334c00
36cc00
699800
603800
ENDCHAR
STARTCHAR 332c
ENCODING 13100
SWIDTH 960 0
DWIDTH 14 0
BBX 18 14 -2 -2
BITMAP
003600
07d6c0
06bf80
0d6c00
0e6d80
0d7f80
1bb000
1b7e00
1b4600
36fc00
3d8c00
318c00
63f800
631800
ENDCHAR
STARTCHAR 332d
ENCODING 13101
SWIDTH 960 0
DWIDTH 14 0
BBX 18 14 -2 -2
BITMAP
000000
03ff00
030300
060600
07fe00
060600
0c0c00
0ffc00
0c0c00
181800
1ff800
0e6000
383000
e01800
ENDCHAR
STARTCHAR 332e
ENCODING 13102
SWIDTH 960 0
DWIDTH 14 0
BBX 18 14 -2 -2
BITMAP
018000
06af00
06ab00
0fd600
003600
1fd600
006c00
1fac00
19ac00
3f5800
36d800
369a00
3f1c00
e60c00
ENDCHAR
STARTCHAR 332f
ENCODING 13103
SWIDTH 960 0
DWIDTH 14 0
BBX 18 14 -2 -2
BITMAP
018c00
018c00
0ff400
061800
06bf00
1b1b00
0d3600
06b600
1d6600
336c00
0ecc00
3b8c00
631800
c67000
ENDCHAR
STARTCHAR 3330
ENCODING 13104
SWIDTH 960 0
DWIDTH 14 0
BBX 18 14 -2 -2
BITMAP
018c00
018c00
018c00
03e800
037800
06d800
0ed800
1bb600
31b300
036000
066000
1c6000
30c000
60c000
ENDCHAR
STARTCHAR 3331
ENCODING 13105
SWIDTH 960 0
DWIDTH 14 0
BBX 18 14 -2 -2
BITMAP
000c00
000c00
0fffc0
1b1800
1b5b00
1b7600
366800
363600
36ec00
7d9800
6c7000
61d800
071800
1c0c00
ENDCHAR
STARTCHAR 3332
ENCODING 13106
SWIDTH 960 0
DWIDTH 14 0
BBX 18 14 -2 -2
BITMAP
003000
07ffc0
0e3380
1bfe00
006000
07fe00
00c000
3fff00
000000
0ff000
0c3000
0c3000
1fe000
186000
ENDCHAR
STARTCHAR 3333
ENCODING 13107
SWIDTH 960 0
DWIDTH 14 0
BBX 18 14 -2 -2
BITMAP
003000
033300
03ff00
000000
07ff80
063000
0dfc00
0c6000
1bfe00
18c000
37f800
70c000
dffc00
000000
ENDCHAR
STARTCHAR 3334
ENCODING 13108
SWIDTH 960 0
DWIDTH 14 0
BBX 18 14 -2 -2
BITMAP
030000
037f80
035500
06aa00
0fea00
0faa00
1d7f00
35cc00
0d5c00
1ad800
1ae800
1b5a00
3d9c00
330c00
ENDCHAR
STARTCHAR 3335
ENCODING 13109
SWIDTH 960 0
DWIDTH 14 0
BBX 18 14 -2 -2
BITMAP
030000
037fc0
035300
1faa00
06ea00
06aa00
1f7f00
1ddc00
1d9c00
3ab800
6ae800
1bea00
3d9c00
330c00
ENDCHAR
STARTCHAR 3336
ENCODING 13110
SWIDTH 960 0
DWIDTH 14 0
BBX 18 14 -2 -2
BITMAP
030000
01bfc0
01a600
18cc00
0cdf00
0ccc00
01ff00
019800
199800
1b7c00
363000
6e3000
6bfc00
c00000
ENDCHAR
STARTCHAR 3337
ENCODING 13111
SWIDTH 960 0
DWIDTH 14 0
BBX 18 14 -2 -2
BITMAP
000000
0fdf80
033180
067f00
066300
0fbf00
1b0000
3b7e00
1b0c00
37fe00
3e9800
319800
61b000
007000
ENDCHAR
STARTCHAR 3338
ENCODING 13112
SWIDTH 960 0
DWIDTH 14 0
BBX 18 14 -2 -2
BITMAP
00cc00
0fffc0
00d400
07fe00
006000
1fff80
01b000
1ffc00
000e00
1ff800
1b5800
1b5800
fffc00
000000
ENDCHAR
STARTCHAR 3339
ENCODING 13113
SWIDTH 960 0
DWIDTH 14 0
BBX 18 14 -2 -2
BITMAP
033000
0337c0
06fc00
1da000
036000
06ff80
0cc600
1cc600
35f600
198c00
198c00
1bec00
361800
303800
ENDCHAR
STARTCHAR 333a
ENCODING 13114
SWIDTH 960 0
DWIDTH 14 0
BBX 18 14 -2 -2
BITMAP
000c00
07cc00
00ffc0
1f9800
001a00
0fb400
003400
1f3a00
006c00
3ecc00
36b800
36ec00
7d8c00
6e0c00
ENDCHAR
STARTCHAR 333b
ENCODING 13115
SWIDTH 960 0
DWIDTH 14 0
BBX 18 14 -2 -2
BITMAP
018600
019a80
035a80
06df00
0cc000
1bbf80
060000
3fbe00
066600
357c00
1ecc00
1c7800
1fec00
f00000
ENDCHAR
STARTCHAR 333c
ENCODING 13116
SWIDTH 960 0
DWIDTH 14 0
BBX 18 14 -2 -2
BITMAP
000600
07e600
067fc0
0dd800
0d5a00
1ff400
31b400
3fba00
31ac00
3f4c00
333800
3f6c00
668c00
6f0c00
ENDCHAR
STARTCHAR 333d
ENCODING 13117
SWIDTH 960 0
DWIDTH 14 0
BBX 18 14 -2 -2
BITMAP
030000
01bf80
01ad80
18db00
0cff00
0cdb00
01b600
06fe00
0c3000
0dfc00
186000
306000
37fc00
600000
ENDCHAR
STARTCHAR 333e
ENCODING 13118
SWIDTH 960 0
DWIDTH 14 0
BBX 18 14 -2 -2
BITMAP
018f00
0ff540
01bbc0
0fde00
0d5a00
0fde00
1bf300
30c000
3fff00
06a000
1ff800
77ee00
0cc000
0fc000
ENDCHAR
STARTCHAR 333f
ENCODING 13119
SWIDTH 960 0
DWIDTH 14 0
BBX 18 14 -2 -2
BITMAP
018600
018600
018600
0fdf00
0d4c00
0d4c00
1aff00
1f9800
1b1800
0efc00
0d3000
1f3000
f7fc00
000000
ENDCHAR
STARTCHAR 3340
ENCODING 13120
SWIDTH 960 0
DWIDTH 14 0
BBX 18 14 -2 -2
BITMAP
000000
037fc0
030000
067e00
1fa600
066600
0cfc00
0ccc00
0f4c00
1df800
719800
000000
1ffc00
000000
ENDCHAR
STARTCHAR 3341
ENCODING 13121
SWIDTH 960 0
DWIDTH 14 0
BBX 18 14 -2 -2
BITMAP
018600
018600
018600
1fff80
030c00
070c00
0f7f00
0edb00
1adb00
35b600
6db600
0db600
186000
186000
ENDCHAR
STARTCHAR 3342
ENCODING 13122
SWIDTH 960 0
DWIDTH 14 0
BBX 18 14 -2 -2
BITMAP
018000
019fc0
019800
0fd000
0d5f80
0d5400
1aa800
1faf00
1b7300
0ed600
0da600
1fc600
f68c00
033800
ENDCHAR
STARTCHAR 3343
ENCODING 13123
SWIDTH 960 0
DWIDTH 14 0
BBX 18 14 -2 -2
BITMAP
019800
019800
035800
06df00
0ce300
1bdb00
063600
3fb600
067a00
35ec00
1e0c00
1c0c00
1e1800
f07000
ENDCHAR
STARTCHAR 3344
ENCODING 13124
SWIDTH 960 0
DWIDTH 14 0
BBX 18 14 -2 -2
BITMAP
018180
07f580
01b580
1ffb00
036b00
0feb00
063600
3ff600
1ad600
3fac00
35ac00
3f8c00
0f1800
f83800
ENDCHAR
STARTCHAR 3345
ENCODING 13125
SWIDTH 960 0
DWIDTH 14 0
BBX 18 14 -2 -2
BITMAP
006300
006300
0fffc0
1ac600
1ac600
1bff80
355a00
355a00
377b00
7ed600
6ab600
6dac00
1b5800
37b800
ENDCHAR
STARTCHAR 3346
ENCODING 13126
SWIDTH 960 0
DWIDTH 14 0
BBX 18 14 -2 -2
BITMAP
006000
006000
00ff00
038c00
06d800
0c7000
01d000
071c00
3ffb00
0c3000
0c3000
0c3000
1fe000
186000
ENDCHAR
STARTCHAR 3347
ENCODING 13127
SWIDTH 960 0
DWIDTH 14 0
BBX 18 14 -2 -2
BITMAP
001800
03ffc0
033000
07ff80
060d00
06f600
0d6c00
0dea00
181a00
1bd600
31d600
6fbc00
c36000
076000
ENDCHAR
STARTCHAR 3348
ENCODING 13128
SWIDTH 960 0
DWIDTH 14 0
BBX 18 14 -2 -2
BITMAP
030600
030600
033fc0
1fa000
066c00
066c00
0cd800
0f5800
3d9800
19b800
1b6c00
1b7c00
378c00
780c00
ENDCHAR
STARTCHAR 3349
ENCODING 13129
SWIDTH 960 0
DWIDTH 14 0
BBX 18 14 -2 -2
BITMAP
036980
033500
037fc0
1fc300
06be00
066600
0cfc00
0f4c00
3cfc00
199800
19f800
19d600
333400
761c00
ENDCHAR
STARTCHAR 334a
ENCODING 13130
SWIDTH 960 0
DWIDTH 14 0
BBX 18 14 -2 -2
BITMAP
018c00
018c00
019f80
1fd300
036a00
071c00
0f3400
0ea600
1aff00
34cc00
6ccc00
0ccc00
19f800
199800
ENDCHAR
STARTCHAR 334b
ENCODING 13131
SWIDTH 960 0
DWIDTH 14 0
BBX 18 14 -2 -2
BITMAP
018600
018600
01bfc0
1fcc00
036b00
07b600
0eb400
0e9800
1a7600
35cc00
6c3800
0cec00
1b8c00
1e0c00
ENDCHAR
STARTCHAR 334c
ENCODING 13132
SWIDTH 960 0
DWIDTH 14 0
BBX 18 14 -2 -2
BITMAP
018000
018f00
0ff500
031a80
0fda80
003380
1fe000
19be00
3f6600
1a6c00
1a6800
377000
6dd000
c71c00
ENDCHAR
STARTCHAR 334d
ENCODING 13133
SWIDTH 960 0
DWIDTH 14 0
BBX 18 14 -2 -2
BITMAP
01b300
0dffc0
073700
067f80
0eec00
1bbf00
06d800
0eff00
3a0000
6dfc00
0cd800
187000
69f000
371c00
ENDCHAR
STARTCHAR 334e
ENCODING 13134
SWIDTH 960 0
DWIDTH 14 0
BBX 18 14 -2 -2
BITMAP
000c00
0fec00
037fc0
066b00
06d600
0fb400
1b7f00
3bd800
1b7e00
36b000
3efc00
36b000
63fc00
030000
ENDCHAR
STARTCHAR 334f
ENCODING 13135
SWIDTH 960 0
DWIDTH 14 0
BBX 18 14 -2 -2
BITMAP
00db00
01bfc0
0f1b00
067f80
06ec00
1fbf00
0cd800
0eff00
1e0000
3bfc00
68d800
187000
31f000
371c00
ENDCHAR
STARTCHAR 3350
ENCODING 13136
SWIDTH 960 0
DWIDTH 14 0
BBX 18 14 -2 -2
BITMAP
036300
01b600
07ffc0
0c0300
1bfc00
030c00
07f800
061800
07f800
0c3000
0ff000
074600
1ccc00
f07c00
ENDCHAR
STARTCHAR 3351
ENCODING 13137
SWIDTH 960 0
DWIDTH 14 0
BBX 18 14 -2 -2
BITMAP
006000
00fe00
079800
1c6000
07fe00
066600
0ffc00
0ccc00
0ccc00
1ff800
181800
301800
603000
c07000
ENDCHAR
STARTCHAR 3352
ENCODING 13138
SWIDTH 960 0
DWIDTH 14 0
BBX 18 14 -2 -2
BITMAP
018600
018600
07ef80
030c00
030c00
1fff80
0d3400
1db400
3df600
6aaa00
1b6a00
36d800
6db000
dd7000
ENDCHAR
STARTCHAR 3353
ENCODING 13139
SWIDTH 960 0
DWIDTH 14 0
BBX 18 14 -2 -2
BITMAP
018600
018600
0ff600
037f80
0fda00
0d5300
1fe700
1aac00
1fa800
0c6800
7fb000
0ce800
199800
1b0c00
ENDCHAR
STARTCHAR 3354
ENCODING 13140
SWIDTH 960 0
DWIDTH 14 0
BBX 18 14 -2 -2
BITMAP
00c000
0fff80
000d80
07eb00
066a00
07ec00
003400
1fd600
01b600
07a600
7e7600
066c00
0cc000
1cc000
ENDCHAR
STARTCHAR 3355
ENCODING 13141
SWIDTH 960 0
DWIDTH 14 0
BBX 18 14 -2 -2
BITMAP
000000
07ef80
066980
0fdf00
0cd300
0fdf00
19f600
1bb600
19e600
336c00
3ffc00
366c00
6fd800
6cd800
ENDCHAR
STARTCHAR 3356
ENCODING 13142
SWIDTH 960 0
DWIDTH 14 0
BBX 18 14 -2 -2
BITMAP
000000
07ff80
06c000
0dbe00
0d6600
0e7e00
1a0000
1bfe00
1bea00
37bc00
3d7c00
336c00
66d800
66d800
ENDCHAR
STARTCHAR 3357
ENCODING 13143
SWIDTH 960 0
DWIDTH 14 0
BBX 18 14 -2 -2
BITMAP
00cc00
00cc00
0fffc0
019800
01f800
006000
0ffc00
0ccc00
0ffc00
018000
7ffe00
018000
030000
030000
ENDCHAR
STARTCHAR 3358
ENCODING 13144
SWIDTH 960 0
DWIDTH 14 0
BBX 18 14 -2 -2
BITMAP
036300
01b300
01b600
0ffb80
0c0300
1bfc00
003000
006000
00c000
7ffe00
018000
018000
030000
070000
ENDCHAR
STARTCHAR 3359
ENCODING 13145
SWIDTH 960 0
DWIDTH 14 0
BBX 18 14 -2 -2
BITMAP
000600
001c00
01f000
030000
03ff00
031800
063000
3fff00
00c000
199800
199800
199800
3ff000
303000
ENDCHAR
STARTCHAR 335a
ENCODING 13146
SWIDTH 960 0
DWIDTH 14 0
BBX 18 14 -2 -2
BITMAP
003000
066180
06fd00
069a00
01fc00
0f9a00
3bf300
00c000
3fff00
03c000
06a000
1db800
f30c00
030000
ENDCHAR
STARTCHAR 335b
ENCODING 13147
SWIDTH 960 0
DWIDTH 14 0
BBX 18 14 -2 -2
BITMAP
018000
01bfc0
07f600
0d3800
1bdf00
06d300
1abe00
076600
0dbe00
3fcc00
6b7c00
1b6800
3e9800
370c00
ENDCHAR
STARTCHAR 335c
ENCODING 13148
SWIDTH 960 0
DWIDTH 14 0
BBX 18 14 -2 -2
BITMAP
000000
0f7fc0
0d5600
1aa800
1eff00
006300
1fbe00
006600
3ffe00
18cc00
1f7c00
336800
069800
1f0c00
ENDCHAR
STARTCHAR 335d
ENCODING 13149
SWIDTH 960 0
DWIDTH 14 0
BBX 18 14 -2 -2
BITMAP
033300
033300
03fd00
1f6600
066600
07ff00
0ecd00
0ccd00
3dfc00
699800
199800
1be800
3e3000
703000
ENDCHAR
STARTCHAR 335e
ENCODING 13150
SWIDTH 960 0
DWIDTH 14 0
BBX 18 14 -2 -2
BITMAP
030c00
030c00
03ffc0
073400
0da600
19a600
00c000
1ffe00
001800
0c3000
066000
06c000
ff7c00
000000
ENDCHAR
STARTCHAR 335f
ENCODING 13151
SWIDTH 960 0
DWIDTH 14 0
BBX 18 14 -2 -2
BITMAP
030000
037f80
036b00
1ffd00
06da00
06fe00
1eaa00
1df300
1d3000
39fc00
686000
186000
37fc00
300000
ENDCHAR
STARTCHAR 3360
ENCODING 13152
SWIDTH 960 0
DWIDTH 14 0
BBX 18 14 -2 -2
BITMAP
030000
037fc0
030000
1fbe00
066a00
077e00
1d5400
1dfe00
1c0000
39f800
69a800
19f800
335000
37fc00
ENDCHAR
STARTCHAR 3361
ENCODING 13153
SWIDTH 960 0
DWIDTH 14 0
BBX 18 14 -2 -2
BITMAP
018000
01bf80
01b180
1fff00
036300
077e00
0f5000
0efe00
1ad000
35fe00
6da000
0d6600
1a6c00
1c3c00
ENDCHAR
STARTCHAR 3362
ENCODING 13154
SWIDTH 960 0
DWIDTH 14 0
BBX 18 14 -2 -2
BITMAP
018700
01bd00
07eb00
0db680
1fd680
0d7f00
1fae00
1ab400
1ffc00
06d400
3d5400
376c00
69cc00
c18c00
ENDCHAR
STARTCHAR 3363
ENCODING 13155
SWIDTH 960 0
DWIDTH 14 0
BBX 18 14 -2 -2
BITMAP
031800
01b780
01a180
18f700
0cc300
0cff00
00c000
0dff00
0f9b00
1d5a00
37aa00
6da600
d80c00
c03800
ENDCHAR
STARTCHAR 3364
ENCODING 13156
SWIDTH 960 0
DWIDTH 14 0
BBX 18 14 -2 -2
BITMAP
018180
0ff580
0db580
1feb00
031b00
0fdb00
063600
3fd600
003600
3f6c00
336c00
330c00
7e1800
663800
ENDCHAR
STARTCHAR 3365
ENCODING 13157
SWIDTH 960 0
DWIDTH 14 0
BBX 18 14 -2 -2
BITMAP
000000
007f00
0fa300
1b7e00
1b4600
1b7e00
366000
36fe00
37ba00
7dcc00
6d0c00
633400
01e800
007000
ENDCHAR
STARTCHAR 3366
ENCODING 13158
SWIDTH 960 0
DWIDTH 14 0
BBX 18 14 -2 -2
BITMAP
030c00
030c00
031c00
073400
0ea600
0eff00
1d0300
340000
0cfc00
199800
199800
199800
33f000
333000
ENDCHAR
STARTCHAR 3367
ENCODING 13159
SWIDTH 960 0
DWIDTH 14 0
BBX 18 14 -2 -2
BITMAP
030180
030700
037c00
1f9800
061800
06ff80
0c3000
0f3000
3dfe00
1b0c00
1b0c00
1b0c00
37f800
761800
ENDCHAR
STARTCHAR 3368
ENCODING 13160
SWIDTH 960 0
DWIDTH 14 0
BBX 18 14 -2 -2
BITMAP
030180
018700
01bc00
181800
0c1800
0dff80
003000
0c3000
19fe00
1b0c00
330c00
630c00
67f800
c61800
ENDCHAR
STARTCHAR 3369
ENCODING 13161
SWIDTH 960 0
DWIDTH 14 0
BBX 18 14 -2 -2
BITMAP
030000
01bf00
01a300
18fe00
0cc600
0cfe00
00c000
0dfe00
1bb600
1dcc00
330c00
633400
61e800
c07000
ENDCHAR
STARTCHAR 336a
ENCODING 13162
SWIDTH 960 0
DWIDTH 14 0
BBX 18 14 -2 -2
BITMAP
030000
01bf00
01a300
18de00
0cd600
0dff80
030300
0dfe00
1b0c00
1bf800
331800
63f800
663000
c67000
ENDCHAR
STARTCHAR 336b
ENCODING 13163
SWIDTH 960 0
DWIDTH 14 0
BBX 18 14 -2 -2
BITMAP
00cc00
0fffc0
00cc00
01fc00
030c00
03fc00
061800
07f800
07fe00
1cec00
778c00
0c6c00
07d800
00f000
ENDCHAR
STARTCHAR 336c
ENCODING 13164
SWIDTH 960 0
DWIDTH 14 0
BBX 18 14 -2 -2
BITMAP
030000
033f00
033300
1fbe00
036600
07fe00
0d6000
0efe00
3eda00
6aec00
198c00
19b400
30e800
307000
ENDCHAR
STARTCHAR 336d
ENCODING 13165
SWIDTH 960 0
DWIDTH 14 0
BBX 18 14 -2 -2
BITMAP
018600
018600
0fffc0
036d80
0fff00
0d4c00
1fbe00
1a9800
1fff00
0c0000
7ffc00
0ccc00
19f800
199800
ENDCHAR
STARTCHAR 336e
ENCODING 13166
SWIDTH 960 0
DWIDTH 14 0
BBX 18 14 -2 -2
BITMAP
000000
01fe00
018600
030c00
030c00
03fc00
061800
061800
07f800
0c3000
0c3000
0c3000
fffc00
000000
ENDCHAR
STARTCHAR 336f
ENCODING 13167
SWIDTH 960 0
DWIDTH 14 0
BBX 18 14 -2 -2
BITMAP
018000
01bfc0
07f580
0dbe80
1fed00
0d7f00
1fd500
1afb00
1f9800
06fc00
3d3000
373000
69fc00
c00000
ENDCHAR
STARTCHAR 3370
ENCODING 13168
SWIDTH 960 0
DWIDTH 14 0
BBX 18 14 -2 -2
BITMAP
000c00
000c00
0f8c00
1b1800
1b1800
1bff80
363000
363000
363000
7c6000
6c6000
606000
00c000
00c000
ENDCHAR
STARTCHAR 3371
ENCODING 13169
SWIDTH 960 0
DWIDTH 14 0
BBX 18 14 -2 -2
BITMAP
019b00
019b00
01bfc0
1fd600
031800
07b980
0eab00
0eea00
1aec00
355000
6cd000
0cd600
19b400
199c00
ENDCHAR
STARTCHAR 3372
ENCODING 13170
SWIDTH 960 0
DWIDTH 14 0
BBX 18 14 -2 -2
BITMAP
033300
033300
037fc0
1fa600
06ff00
076a00
1dff00
1d5400
1dfe00
386000
6bfe00
186000
30c000
30c000
ENDCHAR
STARTCHAR 3373
ENCODING 13171
SWIDTH 960 0
DWIDTH 14 0
BBX 18 14 -2 -2
BITMAP
034c00
034c00
0fff80
06b300
07bd00
030d00
1f9a00
1aba00
1fac00
0cc000
7fc000
0cc600
18cc00
187c00
ENDCHAR
STARTCHAR 3374
ENCODING 13172
SWIDTH 960 0
DWIDTH 14 0
BBX 18 14 -2 -2
BITMAP
018600
019a00
019a00
1fff00
036c00
074c00
0fff00
0eb800
1abc00
34d800
6db400
0d3600
186000
186000
ENDCHAR
STARTCHAR 3375
ENCODING 13173
SWIDTH 960 0
DWIDTH 14 0
BBX 18 14 -2 -2
BITMAP
001800
01b000
07ff80
0d9b00
0dfb00
0d9b00
1df600
180600
036000
06c000
06c000
0cc600
38cc00
e07c00
ENDCHAR
STARTCHAR 3376
ENCODING 13174
SWIDTH 960 0
DWIDTH 14 0
BBX 18 14 -2 -2
BITMAP
003000
07ffc0
07d580
1ef700
0fff00
066c00
07f800
06d800
0ff800
199800
1ff800
199a00
3ff400
31fc00
ENDCHAR
STARTCHAR 3377
ENCODING 13175
SWIDTH 960 0
DWIDTH 14 0
BBX 18 14 -2 -2
BITMAP
00cc00
00cc00
0fffc0
019a00
061b00
07ff80
363000
19fe00
1db600
0dfc00
1b6c00
33fc00
36d800
66d800
ENDCHAR
STARTCHAR 3378
ENCODING 13176
SWIDTH 960 0
DWIDTH 14 0
BBX 18 14 -2 -2
BITMAP
006c00
01c700
076d80
007000
00d800
038e00
3ffb00
00c000
0ffc00
0db000
06b000
06e000
ffbc00
000000
ENDCHAR
STARTCHAR 3379
ENCODING 13177
SWIDTH 960 0
DWIDTH 14 0
BBX 18 14 -2 -2
BITMAP
033300
031a00
03ffc0
06b400
0dff00
1f3500
0dff00
3f6a00
0dfe00
6ad400
3dd800
3b5400
3dac00
e1a000
ENDCHAR
STARTCHAR 337a
ENCODING 13178
SWIDTH 960 0
DWIDTH 14 0
BBX 18 14 -2 -2
BITMAP
000c00
003400
0fb780
1b6800
1bff80
1b6b00
36b600
36ba00
36fe00
7d7400
6dac00
636c00
07f800
061800
ENDCHAR
STARTCHAR 337b
ENCODING 13179
SWIDTH 960 0
DWIDTH 14 0
BBX 18 14 -2 -2
BITMAP
000600
0fcc00
0d5f00
1aa600
1fbe00
1aa600
357c00
3f7f00
354000
19fe00
19aa00
1bd600
368c00
343800
ENDCHAR
STARTCHAR 337c
ENCODING 13180
SWIDTH 960 0
DWIDTH 14 0
BBX 18 14 -2 -2
BITMAP
018000
01bfc0
018e00
1fd800
037f00
076300
0f4600
0ec600
1afe00
358c00
6d8c00
0d8c00
1bf800
1b1800
ENDCHAR
STARTCHAR 337d
ENCODING 13181
SWIDTH 960 0
DWIDTH 14 0
BBX 18 14 -2 -2
BITMAP
00cc00
00cc00
0fffc0
019800
07fe00
01b800
01c000
3fff00
00de00
03b000
068000
1d8000
f30000
070000
ENDCHAR
STARTCHAR 337e
ENCODING 13182
SWIDTH 960 0
DWIDTH 14 0
BBX 18 14 -2 -2
BITMAP
00cc00
0fffc0
00d400
0fff80
0c0300
1fff00
000000
07f800
061800
0ff000
0c3000
0ff000
000000
fffc00
ENDCHAR
STARTCHAR 3421
ENCODING 13345
SWIDTH 960 0
DWIDTH 14 0
BBX 18 14 -2 -2
BITMAP
003000
0f3780
03b580
06ad00
1eb700
186c00
37f800
3cde00
35f600
1bb400
1aac00
1d8c00
331800
e37000
ENDCHAR
STARTCHAR 3422
ENCODING 13346
SWIDTH 960 0
DWIDTH 14 0
BBX 18 14 -2 -2
BITMAP
006180
006d80
006d80
0cdb00
06db00
039b00
033600
03b600
06b600
0dac00
19ac00
300c00
601800
c03800
ENDCHAR
STARTCHAR 3423
ENCODING 13347
SWIDTH 960 0
DWIDTH 14 0
BBX 18 14 -2 -2
BITMAP
00cc00
00cc00
0fffc0
019800
019800
018300
19b600
0db600
073600
066c00
0e6c00
3a6c00
661800
c03800
ENDCHAR
STARTCHAR 3424
ENCODING 13348
SWIDTH 960 0
DWIDTH 14 0
BBX 18 14 -2 -2
BITMAP
000000
0fffc0
00c000
018000
01f800
019800
033000
03b000
06b000
0da000
0c6000
0de600
1e6c00
f03c00
ENDCHAR
STARTCHAR 3425
ENCODING 13349
SWIDTH 960 0
DWIDTH 14 0
BBX 18 14 -2 -2
BITMAP
019800
019800
0fffc0
033000
0fe000
0cdf00
1f8c00
199800
1fb000
0c6000
7fc000
0cc600
18cc00
187c00
ENDCHAR
STARTCHAR 3426
ENCODING 13350
SWIDTH 960 0
DWIDTH 14 0
BBX 18 14 -2 -2
BITMAP
018000
01bf80
036180
034300
06c300
1eff00
340000
0dac00
0dac00
1b5800
1b5800
1ada00
359c00
380c00
ENDCHAR
STARTCHAR 3427
ENCODING 13351
SWIDTH 960 0
DWIDTH 14 0
BBX 18 14 -2 -2
BITMAP
000000
07ffc0
060180
1fc300
000600
007f80
3fcc00
0d6c00
0d6c00
1a1800
1a1800
363a00
660c00
c3fc00
ENDCHAR
STARTCHAR 3428
ENCODING 13352
SWIDTH 960 0
DWIDTH 14 0
BBX 18 14 -2 -2
BITMAP
003000
07ffc0
06cd80
1fff00
019800
07fe00
033000
3fff00
073000
1db800
70ce00
070000
018000
00c000
ENDCHAR
STARTCHAR 3429
ENCODING 13353
SWIDTH 960 0
DWIDTH 14 0
BBX 18 14 -2 -2
BITMAP
000180
0ff580
018d80
031b00
031b00
031b00
3fd600
063600
063600
0c6c00
0c6c00
0c0c00
181800
183800
ENDCHAR
STARTCHAR 342a
ENCODING 13354
SWIDTH 960 0
DWIDTH 14 0
BBX 18 14 -2 -2
BITMAP
036c00
036c00
0ff400
06df00
07db00
06db00
0fb600
0db600
3ff600
366c00
36ac00
3bcc00
7f9800
637000
ENDCHAR
STARTCHAR 342b
ENCODING 13355
SWIDTH 960 0
DWIDTH 14 0
BBX 18 14 -2 -2
BITMAP
030c00
030c00
07ec00
0d3f00
1beb00
069b00
1fd600
3b3600
1fd600
366c00
3fac00
36cc00
7f9800
637000
ENDCHAR
STARTCHAR 342c
ENCODING 13356
SWIDTH 960 0
DWIDTH 14 0
BBX 18 14 -2 -2
BITMAP
033300
01b300
01b600
0ffb00
00d000
1fff80
033000
0ffc00
383700
0fe000
0c6000
0c0c00
0c1800
07f800
ENDCHAR
STARTCHAR 342d
ENCODING 13357
SWIDTH 960 0
DWIDTH 14 0
BBX 18 14 -2 -2
BITMAP
001800
001f00
0fb600
1b6800
1bff00
1b5b00
36aa00
36ae00
36d600
7d6c00
6ffe00
61d000
071800
1c0c00
ENDCHAR
STARTCHAR 342e
ENCODING 13358
SWIDTH 960 0
DWIDTH 14 0
BBX 18 14 -2 -2
BITMAP
003300
037fc0
033300
067e00
1fa600
067e00
0ccc00
0dff00
0dd800
1d5c00
738c00
030000
07fc00
060000
ENDCHAR
STARTCHAR 342f
ENCODING 13359
SWIDTH 960 0
DWIDTH 14 0
BBX 18 14 -2 -2
BITMAP
003000
003000
07ff80
019800
03d000
01f800
0f1c00
061800
3fff00
1b6c00
3ae800
0e3800
3ae800
e38c00
ENDCHAR
STARTCHAR 3430
ENCODING 13360
SWIDTH 960 0
DWIDTH 14 0
BBX 18 14 -2 -2
BITMAP
003000
003000
07ffc0
0c0300
1bfc00
000000
000000
3fff00
036000
06c000
06c000
0cc600
38cc00
e07c00
ENDCHAR
STARTCHAR 3431
ENCODING 13361
SWIDTH 960 0
DWIDTH 14 0
BBX 18 14 -2 -2
BITMAP
003000
003000
07ffc0
0c0300
1bfc00
030c00
061800
07f800
060000
0ff800
0c1800
0c1800
1ff000
183000
ENDCHAR
STARTCHAR 3432
ENCODING 13362
SWIDTH 960 0
DWIDTH 14 0
BBX 18 14 -2 -2
BITMAP
003000
07ffc0
06cd80
1fff00
019800
03f800
061800
07e800
06f800
0c3000
0ff000
074600
1ccc00
f07c00
ENDCHAR
STARTCHAR 3433
ENCODING 13363
SWIDTH 960 0
DWIDTH 14 0
BBX 18 14 -2 -2
BITMAP
000000
07ff80
003000
006000
006000
006000
3fff00
00c000
00c000
018000
018000
018000
030000
030000
ENDCHAR
STARTCHAR 3434
ENCODING 13364
SWIDTH 960 0
DWIDTH 14 0
BBX 18 14 -2 -2
BITMAP
018600
018600
0fed00
033b00
0fe180
0cdf00
1f9800
199800
1fff00
0c3000
7fb000
0c3000
186000
186000
ENDCHAR
STARTCHAR 3435
ENCODING 13365
SWIDTH 960 0
DWIDTH 14 0
BBX 18 14 -2 -2
BITMAP
003000
01fe00
01b600
03fc00
006000
07fe00
0ccc00
0ffc00
00c000
1ad800
1acc00
363400
e66c00
03e000
ENDCHAR
STARTCHAR 3436
ENCODING 13366
SWIDTH 960 0
DWIDTH 14 0
BBX 18 14 -2 -2
BITMAP
001b00
001980
03ffc0
063300
07eb00
061a00
0fdc00
1ad500
37e700
018600
36cc00
66d400
c66c00
03e000
ENDCHAR
STARTCHAR 3437
ENCODING 13367
SWIDTH 960 0
DWIDTH 14 0
BBX 18 14 -2 -2
BITMAP
030000
033f80
033580
06ff80
0f5a00
0ffe00
1d8600
35fe00
0d8600
1bfc00
1b0c00
1bfc00
33b800
360c00
ENDCHAR
STARTCHAR 3438
ENCODING 13368
SWIDTH 960 0
DWIDTH 14 0
BBX 18 14 -2 -2
BITMAP
030680
037fc0
036600
077d00
0ecd00
0efe00
1dd700
357b00
0e6300
18e800
1aac00
1d9c00
39b400
30f000
ENDCHAR
STARTCHAR 3439
ENCODING 13369
SWIDTH 960 0
DWIDTH 14 0
BBX 18 14 -2 -2
BITMAP
031800
031f00
033600
1fff00
06d500
06ed00
0dde00
0eb600
3c3000
1bfe00
186000
19d000
333000
761c00
ENDCHAR
STARTCHAR 343a
ENCODING 13370
SWIDTH 960 0
DWIDTH 14 0
BBX 18 14 -2 -2
BITMAP
000c00
07f400
00cc00
019800
1fff80
06e600
0ff600
0db400
0fb800
1b9800
1f3000
736800
069800
070c00
ENDCHAR
STARTCHAR 343b
ENCODING 13371
SWIDTH 960 0
DWIDTH 14 0
BBX 18 14 -2 -2
BITMAP
019980
019980
019980
1fff80
033300
073300
0f6600
0ebe00
1aa600
34cc00
6ccc00
0ccc00
19f800
199800
ENDCHAR
STARTCHAR 343c
ENCODING 13372
SWIDTH 960 0
DWIDTH 14 0
BBX 18 14 -2 -2
BITMAP
018000
01bfc0
018000
1fdf00
033300
073300
0f7e00
0ea600
1aa600
34fc00
6ccc00
0c0000
1bfc00
180000
ENDCHAR
STARTCHAR 343d
ENCODING 13373
SWIDTH 960 0
DWIDTH 14 0
BBX 18 14 -2 -2
BITMAP
018c00
018c00
01bfc0
1fc300
037e00
076600
0f4c00
0efc00
1ac000
35fc00
6d8c00
0d8c00
1bf800
1b1800
ENDCHAR
STARTCHAR 343e
ENCODING 13374
SWIDTH 960 0
DWIDTH 14 0
BBX 18 14 -2 -2
BITMAP
018c00
018c00
0ff400
031800
0fdf80
006b00
1fdc00
001800
3fd800
0e3000
356800
6dd800
db1800
3a0c00
ENDCHAR
STARTCHAR 343f
ENCODING 13375
SWIDTH 960 0
DWIDTH 14 0
BBX 18 14 -2 -2
BITMAP
030c00
030c00
07f400
0d1800
1fff80
0db500
0fdc00
1d1800
37d800
1a3000
1fa800
1ad800
3f9800
330c00
ENDCHAR
STARTCHAR 3440
ENCODING 13376
SWIDTH 960 0
DWIDTH 14 0
BBX 18 14 -2 -2
BITMAP
030000
01bf80
018c00
181800
0c1800
0c1800
03ff00
063000
0c3000
0c6000
186000
306000
30c000
60c000
ENDCHAR
STARTCHAR 3441
ENCODING 13377
SWIDTH 960 0
DWIDTH 14 0
BBX 18 14 -2 -2
BITMAP
033600
01b600
01ffc0
186c00
0cff00
0cdb00
01fe00
0c3000
19fe00
186000
37fe00
61d000
633000
ce1c00
ENDCHAR
STARTCHAR 3442
ENCODING 13378
SWIDTH 960 0
DWIDTH 14 0
BBX 18 14 -2 -2
BITMAP
060000
03f780
03b580
1bef00
0d6b00
0def00
060600
06fa00
0e9a00
1df400
353400
6df400
6a3800
d81800
ENDCHAR
STARTCHAR 3443
ENCODING 13379
SWIDTH 960 0
DWIDTH 14 0
BBX 18 14 -2 -2
BITMAP
033000
01b000
01bf80
18d000
0dff80
0d6c00
00ff00
0d9800
0ffe00
1d3000
33fc00
633000
c7fc00
c60000
ENDCHAR
STARTCHAR 3444
ENCODING 13380
SWIDTH 960 0
DWIDTH 14 0
BBX 18 14 -2 -2
BITMAP
000000
007f80
0fea80
06ff00
060000
06ff80
3f7c00
0ccc00
0cfc00
1aec00
1dd800
775800
018c00
018000
ENDCHAR
STARTCHAR 3445
ENCODING 13381
SWIDTH 960 0
DWIDTH 14 0
BBX 18 14 -2 -2
BITMAP
018600
018600
018600
030c00
1fff80
030c00
061800
061800
07f800
0c3000
0c3000
0c3000
1fe000
186000
ENDCHAR
STARTCHAR 3446
ENCODING 13382
SWIDTH 960 0
DWIDTH 14 0
BBX 18 14 -2 -2
BITMAP
000c00
07f400
06cc00
0fdf80
0cd000
0fe000
1b3e00
1fc000
180000
1ff800
1b5800
1b5800
fffc00
000000
ENDCHAR
STARTCHAR 3447
ENCODING 13383
SWIDTH 960 0
DWIDTH 14 0
BBX 18 14 -2 -2
BITMAP
000700
03fc00
006000
0fff00
00c000
1fff80
030000
03fc00
070c00
0ff800
1a1800
77f800
cc3000
0ff000
ENDCHAR
STARTCHAR 3448
ENCODING 13384
SWIDTH 960 0
DWIDTH 14 0
BBX 18 14 -2 -2
BITMAP
030c00
030c00
03ffc0
073400
0da600
18c600
0ffe00
00c000
00c000
7ffe00
018000
018000
030000
030000
ENDCHAR
STARTCHAR 3449
ENCODING 13385
SWIDTH 960 0
DWIDTH 14 0
BBX 18 14 -2 -2
BITMAP
030c00
03ffc0
06ba00
1da600
0fff80
180300
37f800
061800
07f800
0c0000
0ff800
0c1800
1ff000
183000
ENDCHAR
STARTCHAR 344a
ENCODING 13386
SWIDTH 960 0
DWIDTH 14 0
BBX 18 14 -2 -2
BITMAP
030c00
03ffc0
06ba00
1da600
0fdf00
0cd300
1fbe00
19a600
1ffe00
366c00
37ec00
366c00
6fd800
6c3800
ENDCHAR
STARTCHAR 344b
ENCODING 13387
SWIDTH 960 0
DWIDTH 14 0
BBX 18 14 -2 -2
BITMAP
0183c0
01bec0
036e80
1d5a00
06ff80
079800
0dff00
3fb000
0f3e00
356c00
355800
6db800
dbd800
1b0c00
ENDCHAR
STARTCHAR 344c
ENCODING 13388
SWIDTH 960 0
DWIDTH 14 0
BBX 18 14 -2 -2
BITMAP
018000
018000
018000
03ff00
066000
1c6000
37ff00
00c000
0ccc00
199800
199800
199800
3ff000
303000
ENDCHAR
STARTCHAR 344d
ENCODING 13389
SWIDTH 960 0
DWIDTH 14 0
BBX 18 14 -2 -2
BITMAP
018c00
018c00
0ffa00
033600
0fe300
0cff80
1fb600
19da00
1ff600
0cec00
7fb400
0db400
18d800
19d800
ENDCHAR
STARTCHAR 344e
ENCODING 13390
SWIDTH 960 0
DWIDTH 14 0
BBX 18 14 -2 -2
BITMAP
000000
07ff80
06cc00
0d9800
0d9800
0f9800
1bff00
1b3000
1f3000
366000
366000
366000
6cc000
dcc000
ENDCHAR
STARTCHAR 344f
ENCODING 13391
SWIDTH 960 0
DWIDTH 14 0
BBX 18 14 -2 -2
BITMAP
018300
033f00
07d500
0dbf80
0eae00
0fbc00
1b5700
3ff800
1b0000
36fc00
36b400
36b400
6d6800
dffc00
ENDCHAR
STARTCHAR 3450
ENCODING 13392
SWIDTH 960 0
DWIDTH 14 0
BBX 18 14 -2 -2
BITMAP
00cc00
00cc00
0fffc0
019800
006000
0fff80
180600
37f800
000000
3ffe00
034000
0ec600
38cc00
e07c00
ENDCHAR
STARTCHAR 3451
ENCODING 13393
SWIDTH 960 0
DWIDTH 14 0
BBX 18 14 -2 -2
BITMAP
030000
031f80
07e980
0d3300
1fff00
06b300
1ffe00
3a6600
1fbe00
346800
3f6800
34da00
7f9c00
660c00
ENDCHAR
STARTCHAR 3452
ENCODING 13394
SWIDTH 960 0
DWIDTH 14 0
BBX 18 14 -2 -2
BITMAP
000c00
07cc00
00ffc0
1f9800
007f00
0fab00
00fe00
1f5600
00fe00
3ef000
36a800
376c00
7ccc00
6cc000
ENDCHAR
STARTCHAR 3453
ENCODING 13395
SWIDTH 960 0
DWIDTH 14 0
BBX 18 14 -2 -2
BITMAP
000000
01fe00
01b600
1fff80
06d800
07f800
061800
07f800
061800
0ff000
0c3000
0ff000
0ed000
781800
ENDCHAR
STARTCHAR 3454
ENCODING 13396
SWIDTH 960 0
DWIDTH 14 0
BBX 18 14 -2 -2
BITMAP
000000
06ff80
06d680
06ff00
000000
07ff80
3dfc00
0d8c00
0dfc00
18ec00
1bd800
3ccc00
668000
c3fc00
ENDCHAR
STARTCHAR 3455
ENCODING 13397
SWIDTH 960 0
DWIDTH 14 0
BBX 18 14 -2 -2
BITMAP
030300
037d00
03ab00
06fb80
0ddc00
1f7800
0daf00
3ff000
0d8000
6afc00
3db400
39b400
3ffc00
e00000
ENDCHAR
STARTCHAR 3456
ENCODING 13398
SWIDTH 960 0
DWIDTH 14 0
BBX 18 14 -2 -2
BITMAP
000000
07ef80
066980
0fdf00
0cd300
0fdf00
180600
1bf600
1b3600
37ec00
366c00
37ec00
6cd800
603800
ENDCHAR
STARTCHAR 3457
ENCODING 13399
SWIDTH 960 0
DWIDTH 14 0
BBX 18 14 -2 -2
BITMAP
000000
07ef80
066980
0fdf00
0cd300
0fff00
18c600
18c600
1bfa00
33cc00
36ac00
35b400
631800
603800
ENDCHAR
STARTCHAR 3458
ENCODING 13400
SWIDTH 960 0
DWIDTH 14 0
BBX 18 14 -2 -2
BITMAP
000000
07ef80
066980
0fdf00
0cd300
0fdf00
1b3600
19a600
1bf600
318c00
37f400
374c00
6cd800
683800
ENDCHAR
STARTCHAR 3459
ENCODING 13401
SWIDTH 960 0
DWIDTH 14 0
BBX 18 14 -2 -2
BITMAP
000c00
07cc00
069f80
0d3600
0e6600
0dcc00
1b5e00
1b5600
1b5600
36bc00
3dac00
31ac00
637800
635800
ENDCHAR
STARTCHAR 345a
ENCODING 13402
SWIDTH 960 0
DWIDTH 14 0
BBX 18 14 -2 -2
BITMAP
018600
019f80
0fc680
037f80
0fc000
0cdf00
1fa600
19be00
1f8c00
0cfc00
7f5800
0dfe00
183000
183000
ENDCHAR
STARTCHAR 345b
ENCODING 13403
SWIDTH 960 0
DWIDTH 14 0
BBX 18 14 -2 -2
BITMAP
018600
018600
03dfc0
076300
0d3e00
1fd600
19ac00
1fbc00
19a000
3f7c00
36cc00
374c00
7bf800
e19800
ENDCHAR
STARTCHAR 345c
ENCODING 13404
SWIDTH 960 0
DWIDTH 14 0
BBX 18 14 -2 -2
BITMAP
018600
018600
035fc0
06e300
0cde00
1fd600
066c00
3fbc00
066000
3f7c00
334c00
334c00
7ef800
669800
ENDCHAR
STARTCHAR 345d
ENCODING 13405
SWIDTH 960 0
DWIDTH 14 0
BBX 18 14 -2 -2
BITMAP
006000
006000
006000
00c000
1ff800
00d800
01b000
0eb000
07b000
06a000
0ce600
386600
606c00
c03c00
ENDCHAR
STARTCHAR 345e
ENCODING 13406
SWIDTH 960 0
DWIDTH 14 0
BBX 18 14 -2 -2
BITMAP
003000
003000
006800
01d800
07fe00
1c0380
07f800
003000
00e000
1fb800
181800
181800
3ff000
303000
ENDCHAR
STARTCHAR 345f
ENCODING 13407
SWIDTH 960 0
DWIDTH 14 0
BBX 18 14 -2 -2
BITMAP
003000
033300
033300
07fe00
000000
07ff80
0c0000
0dfc00
0c6000
0cc000
37fc00
60c000
c18000
018000
ENDCHAR
STARTCHAR 3460
ENCODING 13408
SWIDTH 960 0
DWIDTH 14 0
BBX 18 14 -2 -2
BITMAP
003000
033180
03ff80
036600
0fff80
0dec00
199800
1fef00
1af400
37d400
359800
37f800
7b5800
c38c00
ENDCHAR
STARTCHAR 3461
ENCODING 13409
SWIDTH 960 0
DWIDTH 14 0
BBX 18 14 -2 -2
BITMAP
000000
003f80
0fc000
060000
060000
06ff80
3f6800
0c6800
0cd800
18d000
1eb000
773600
0c3400
181c00
ENDCHAR
STARTCHAR 3462
ENCODING 13410
SWIDTH 960 0
DWIDTH 14 0
BBX 18 14 -2 -2
BITMAP
001800
01ffc0
018000
1b7e00
0d6600
0d7e00
07ef00
0f6b00
3dff00
6e6600
1b6c00
336c00
67f800
c61800
ENDCHAR
STARTCHAR 3463
ENCODING 13411
SWIDTH 960 0
DWIDTH 14 0
BBX 18 14 -2 -2
BITMAP
000000
0fbf00
0db300
1b6600
1f7e00
1b6600
36cc00
3efe00
36d400
6db800
7db000
6de800
c39800
0e0c00
ENDCHAR
STARTCHAR 3464
ENCODING 13412
SWIDTH 960 0
DWIDTH 14 0
BBX 18 14 -2 -2
BITMAP
003000
033300
033300
07fe00
000000
1fff80
030000
030000
07fc00
0e1800
1a1800
761800
cff000
0c3000
ENDCHAR
STARTCHAR 3465
ENCODING 13413
SWIDTH 960 0
DWIDTH 14 0
BBX 18 14 -2 -2
BITMAP
000000
0fff80
0dd800
0d5000
077000
1bbf80
0eec00
061c00
1fdc00
31b800
3fa800
31da00
7f9c00
630c00
ENDCHAR
STARTCHAR 3466
ENCODING 13414
SWIDTH 960 0
DWIDTH 14 0
BBX 18 14 -2 -2
BITMAP
000000
03ffc0
036b00
06df80
07b600
06df00
0d6c00
0dff00
1b0c00
1bf800
331800
63f800
c76800
3c0c00
ENDCHAR
STARTCHAR 3467
ENCODING 13415
SWIDTH 960 0
DWIDTH 14 0
BBX 18 14 -2 -2
BITMAP
000000
03ffc0
034d80
06da00
06bf80
06b600
0f6c00
0dbe00
1b6c00
1afc00
36d800
66d800
cdfc00
0d8000
ENDCHAR
STARTCHAR 3468
ENCODING 13416
SWIDTH 960 0
DWIDTH 14 0
BBX 18 14 -2 -2
BITMAP
000000
003fc0
07ee00
001800
003f00
1ff300
0d7e00
0d6600
1b7e00
1bcc00
31fc00
60e800
c39800
0e0c00
ENDCHAR
STARTCHAR 3469
ENCODING 13417
SWIDTH 960 0
DWIDTH 14 0
BBX 18 14 -2 -2
BITMAP
018000
01bfc0
0ff600
0cd800
06bf00
0ff300
1b7e00
1a6600
1dbe00
36cc00
3dfc00
676800
dd9800
770c00
ENDCHAR
STARTCHAR 346a
ENCODING 13418
SWIDTH 960 0
DWIDTH 14 0
BBX 18 14 -2 -2
BITMAP
000000
07ffc0
06e300
0d8c00
0def00
0d6b00
1bde00
1ad600
1bde00
376c00
36bc00
7ab800
ccd800
1d8c00
ENDCHAR
STARTCHAR 346b
ENCODING 13419
SWIDTH 960 0
DWIDTH 14 0
BBX 18 14 -2 -2
BITMAP
003000
003000
006800
01d800
076e00
1c6380
00c000
06c000
06fc00
0d8000
0d8000
0d8000
fffc00
000000
ENDCHAR
STARTCHAR 346c
ENCODING 13420
SWIDTH 960 0
DWIDTH 14 0
BBX 18 14 -2 -2
BITMAP
018c00
018c00
018c00
03ff80
061800
1e1800
35fe00
0cc600
0ccc00
18d800
18d000
18e000
33b000
361c00
ENDCHAR
STARTCHAR 346d
ENCODING 13421
SWIDTH 960 0
DWIDTH 14 0
BBX 18 14 -2 -2
BITMAP
006000
00fe00
079c00
1c6000
07ff80
060000
0dfc00
0d8c00
0d8c00
1b1800
1b7000
330600
630c00
c1fc00
ENDCHAR
STARTCHAR 346e
ENCODING 13422
SWIDTH 960 0
DWIDTH 14 0
BBX 18 14 -2 -2
BITMAP
003000
0fffc0
003000
07fe00
000000
03fc00
061800
07f800
033000
7ffe00
000000
1ff800
303000
3ff000
ENDCHAR
STARTCHAR 346f
ENCODING 13423
SWIDTH 960 0
DWIDTH 14 0
BBX 18 14 -2 -2
BITMAP
000000
03ef00
036b00
06d600
07de00
006000
3fff00
033000
0e1c00
7f7e00
1b5800
1b5800
3ef000
36b000
ENDCHAR
STARTCHAR 3470
ENCODING 13424
SWIDTH 960 0
DWIDTH 14 0
BBX 18 14 -2 -2
BITMAP
00cc00
0fffc0
00cc00
01f800
019800
01f800
033000
3fff00
06d800
1ff800
718e00
018000
7ff800
000000
ENDCHAR
STARTCHAR 3471
ENCODING 13425
SWIDTH 960 0
DWIDTH 14 0
BBX 18 14 -2 -2
BITMAP
003000
003000
07ff80
00d000
019800
070c00
3fff00
000c00
0fcc00
199800
199800
1f9800
333000
007000
ENDCHAR
STARTCHAR 3472
ENCODING 13426
SWIDTH 960 0
DWIDTH 14 0
BBX 18 14 -2 -2
BITMAP
030c00
037fc0
030c00
06ff00
1fbf00
0da300
1b7e00
1b6c00
3eff00
6c0000
0efc00
1a8c00
73f800
c31800
ENDCHAR
STARTCHAR 3473
ENCODING 13427
SWIDTH 960 0
DWIDTH 14 0
BBX 18 14 -2 -2
BITMAP
003000
003000
07ffc0
0c6300
1bff00
01d800
071800
3fff00
001800
1f9800
199800
1f9800
333000
007000
ENDCHAR
STARTCHAR 3474
ENCODING 13428
SWIDTH 960 0
DWIDTH 14 0
BBX 18 14 -2 -2
BITMAP
000c00
030c00
030c00
06ff80
1a9800
1a9800
35fe00
354600
354c00
7ed800
667000
60f000
03b000
0e1c00
ENDCHAR
STARTCHAR 3475
ENCODING 13429
SWIDTH 960 0
DWIDTH 14 0
BBX 18 14 -2 -2
BITMAP
00e600
003c00
01f600
0f6600
00c000
1fff80
036000
07fe00
1e6600
34cc00
6ccc00
0cd800
19b000
018000
ENDCHAR
STARTCHAR 3476
ENCODING 13430
SWIDTH 960 0
DWIDTH 14 0
BBX 18 14 -2 -2
BITMAP
033600
035680
0dbd00
076d00
03ae00
0eeb00
3bff00
00cc00
1fff00
0cd800
0ed000
1b6600
73b400
ce1c00
ENDCHAR
STARTCHAR 3477
ENCODING 13431
SWIDTH 960 0
DWIDTH 14 0
BBX 18 14 -2 -2
BITMAP
000000
03fe00
000600
000c00
07fc00
060c00
060600
03fe00
00c000
1ad800
1acc00
363400
e66c00
03e000
ENDCHAR
STARTCHAR 3478
ENCODING 13432
SWIDTH 960 0
DWIDTH 14 0
BBX 18 14 -2 -2
BITMAP
030000
037fc0
036d80
1fff00
061800
06ff00
0db600
0ffe00
3db600
1bfc00
186000
1bfe00
30c000
70c000
ENDCHAR
STARTCHAR 3479
ENCODING 13433
SWIDTH 960 0
DWIDTH 14 0
BBX 18 14 -2 -2
BITMAP
018000
019f00
019b00
1ff600
033600
07b600
0eac00
0eac00
1acc00
34d800
6d9800
0d1a00
1a1c00
1c0c00
ENDCHAR
STARTCHAR 347a
ENCODING 13434
SWIDTH 960 0
DWIDTH 14 0
BBX 18 14 -2 -2
BITMAP
031800
031800
037fc0
1fd600
06ff80
063600
0f7c00
0d6c00
1b7c00
1ad800
37fe00
66e800
c69800
3b0c00
ENDCHAR
STARTCHAR 347b
ENCODING 13435
SWIDTH 960 0
DWIDTH 14 0
BBX 18 14 -2 -2
BITMAP
000000
07efc0
066d00
0cda00
0fda00
0cda00
19ff00
1f9c00
1a1c00
363800
376800
3dda00
e31c00
060c00
ENDCHAR
STARTCHAR 347c
ENCODING 13436
SWIDTH 960 0
DWIDTH 14 0
BBX 18 14 -2 -2
BITMAP
036000
036f80
036d80
1ffb00
06df00
07db00
0db600
0fbe00
0db600
7fec00
1a6c00
36cc00
669800
c33800
ENDCHAR
STARTCHAR 347d
ENCODING 13437
SWIDTH 960 0
DWIDTH 14 0
BBX 18 14 -2 -2
BITMAP
019b00
019b00
019b00
1fff80
033600
07be00
0eac00
0ebc00
1a6c00
35fe00
6cd800
0d8c00
1b0c00
1a0c00
ENDCHAR
STARTCHAR 347e
ENCODING 13438
SWIDTH 960 0
DWIDTH 14 0
BBX 18 14 -2 -2
BITMAP
003000
0fffc0
006c00
07fc00
036e00
1fff80
06d800
07f800
00c000
7ffe00
03c000
1eb000
f31c00
030000
ENDCHAR
STARTCHAR 3521
ENCODING 13601
SWIDTH 960 0
DWIDTH 14 0
BBX 18 14 -2 -2
BITMAP
033580
033580
037f80
1fda80
066b00
075a80
1dff00
1d3400
1dff00
3b3400
6bb400
1ad800
347c00
39cc00
ENDCHAR
STARTCHAR 3522
ENCODING 13602
SWIDTH 960 0
DWIDTH 14 0
BBX 18 14 -2 -2
BITMAP
018000
01bf80
018180
037f00
0d0300
0d7f00
1a0000
37ff00
073600
0dfc00
0d6c00
1b6c00
36d800
60c000
ENDCHAR
STARTCHAR 3523
ENCODING 13603
SWIDTH 960 0
DWIDTH 14 0
BBX 18 14 -2 -2
BITMAP
018000
018f00
07f500
06da00
039a80
1ff680
0ec700
3b7e00
1db600
76b400
1ab800
767800
06d800
3b0c00
ENDCHAR
STARTCHAR 3524
ENCODING 13604
SWIDTH 960 0
DWIDTH 14 0
BBX 18 14 -2 -2
BITMAP
018000
018000
03ff80
060000
0dfc00
180000
0ff800
00d800
019800
1d9800
071a00
0d9a00
381c00
e00c00
ENDCHAR
STARTCHAR 3525
ENCODING 13605
SWIDTH 960 0
DWIDTH 14 0
BBX 18 14 -2 -2
BITMAP
033000
01b000
01bf80
18c000
0dbe00
0c0000
03fc00
000c00
0c0c00
0c1800
181a00
301e00
301c00
600c00
ENDCHAR
STARTCHAR 3526
ENCODING 13606
SWIDTH 960 0
DWIDTH 14 0
BBX 18 14 -2 -2
BITMAP
033600
035680
0dbd80
076e00
06ad00
1fff00
01ab00
3fff00
1fa600
356c00
3f6800
357000
7d5400
619c00
ENDCHAR
STARTCHAR 3527
ENCODING 13607
SWIDTH 960 0
DWIDTH 14 0
BBX 18 14 -2 -2
BITMAP
018180
018700
019c00
1fd000
01b000
033f80
076c00
0eac00
3acc00
6cd800
0d9800
0d1800
1a3000
1c3000
ENDCHAR
STARTCHAR 3528
ENCODING 13608
SWIDTH 960 0
DWIDTH 14 0
BBX 18 14 -2 -2
BITMAP
000e00
03f800
003000
1fff80
00f000
03a800
0edc00
3bfb00
007000
01c000
7ffe00
018000
030000
0f0000
ENDCHAR
STARTCHAR 3529
ENCODING 13609
SWIDTH 960 0
DWIDTH 14 0
BBX 18 14 -2 -2
BITMAP
006300
01dd00
078f00
037b00
031800
1fff80
066800
0f7e00
1fea00
355400
6cd400
0cdc00
186000
186000
ENDCHAR
STARTCHAR 352a
ENCODING 13610
SWIDTH 960 0
DWIDTH 14 0
BBX 18 14 -2 -2
BITMAP
018000
019f80
03c180
1ec300
068300
07bf00
0da600
3f6000
0c6000
36c000
354000
6d4600
d8cc00
187c00
ENDCHAR
STARTCHAR 352b
ENCODING 13611
SWIDTH 960 0
DWIDTH 14 0
BBX 18 14 -2 -2
BITMAP
036600
03aa00
06aa00
1dec00
069f80
06b300
1f7a00
399a00
1b5c00
3fd400
355800
3bb800
76d800
668c00
ENDCHAR
STARTCHAR 352c
ENCODING 13612
SWIDTH 960 0
DWIDTH 14 0
BBX 18 14 -2 -2
BITMAP
018000
01bf80
01b180
0fff00
036300
037f00
3fc600
06fe00
06ea00
0cd000
1ab000
37b600
663400
cc1c00
ENDCHAR
STARTCHAR 352d
ENCODING 13613
SWIDTH 960 0
DWIDTH 14 0
BBX 18 14 -2 -2
BITMAP
000000
07ef80
000180
1fe300
000300
0fdf00
006600
1fa000
006000
3f4000
334000
334600
7ecc00
667c00
ENDCHAR
STARTCHAR 352e
ENCODING 13614
SWIDTH 960 0
DWIDTH 14 0
BBX 18 14 -2 -2
BITMAP
003000
01fe00
01b600
03fc00
006000
1fff80
061800
07f800
061800
0ff000
0c3000
0ff000
0ed000
781800
ENDCHAR
STARTCHAR 352f
ENCODING 13615
SWIDTH 960 0
DWIDTH 14 0
BBX 18 14 -2 -2
BITMAP
018000
019f80
07e180
030300
030300
1fff00
066600
1a6000
1be000
34c600
3cc600
347e00
660000
c3fc00
ENDCHAR
STARTCHAR 3530
ENCODING 13616
SWIDTH 960 0
DWIDTH 14 0
BBX 18 14 -2 -2
BITMAP
018c00
018c00
0ff400
031e00
0ffa00
0d5a00
1fb400
1ab400
1fac00
0c6800
7fd800
0d9a00
1b1c00
1a0c00
ENDCHAR
STARTCHAR 3531
ENCODING 13617
SWIDTH 960 0
DWIDTH 14 0
BBX 18 14 -2 -2
BITMAP
018000
01bfc0
0db680
0d7f80
0d8c00
033f00
3fea00
0d7e00
0d6a00
1afc00
1b3000
36fe00
606000
c06000
ENDCHAR
STARTCHAR 3532
ENCODING 13618
SWIDTH 960 0
DWIDTH 14 0
BBX 18 14 -2 -2
BITMAP
018000
019f00
03db00
075600
0d3600
1fd600
19ac00
1fac00
19ac00
3f5800
34d800
369a00
7b1c00
e60c00
ENDCHAR
STARTCHAR 3533
ENCODING 13619
SWIDTH 960 0
DWIDTH 14 0
BBX 18 14 -2 -2
BITMAP
000600
07f600
06bfc0
0fcc00
0d1a00
0fb300
1adf00
1f8600
06ba00
3f5400
3f7400
7b5400
c61800
1c3800
ENDCHAR
STARTCHAR 3534
ENCODING 13620
SWIDTH 960 0
DWIDTH 14 0
BBX 18 14 -2 -2
BITMAP
003000
006000
03ff00
066600
07fe00
066600
0ffc00
0d4c00
06d800
06b000
0da800
19fe00
330c00
61fc00
ENDCHAR
STARTCHAR 3535
ENCODING 13621
SWIDTH 960 0
DWIDTH 14 0
BBX 18 14 -2 -2
BITMAP
006000
007c00
01d800
1ffc00
036c00
03fc00
06d800
0ffc00
0ccc00
1ff800
199800
1ffa00
330c00
01fc00
ENDCHAR
STARTCHAR 3536
ENCODING 13622
SWIDTH 960 0
DWIDTH 14 0
BBX 18 14 -2 -2
BITMAP
01ac00
01b400
01b400
03fe00
063600
1e3600
347e00
0cc600
0dfe00
1baa00
1ed600
1ac600
360c00
303800
ENDCHAR
STARTCHAR 3537
ENCODING 13623
SWIDTH 960 0
DWIDTH 14 0
BBX 18 14 -2 -2
BITMAP
01b300
019a00
01ffc0
031800
06ff00
1e1800
35ff00
0dea00
0cdb00
1ffe00
19d400
1bb800
336c00
370c00
ENDCHAR
STARTCHAR 3538
ENCODING 13624
SWIDTH 960 0
DWIDTH 14 0
BBX 18 14 -2 -2
BITMAP
018600
018600
01bfc0
030c00
1fcc00
06ff00
0da600
0da600
1f6c00
366800
073000
0d6800
3b9800
660c00
ENDCHAR
STARTCHAR 3539
ENCODING 13625
SWIDTH 960 0
DWIDTH 14 0
BBX 18 14 -2 -2
BITMAP
003000
003000
07ffc0
0c0300
1bf800
031800
063000
07f000
063000
0fe000
0c6000
0c6000
fffc00
000000
ENDCHAR
STARTCHAR 353a
ENCODING 13626
SWIDTH 960 0
DWIDTH 14 0
BBX 18 14 -2 -2
BITMAP
00c700
00f680
00c680
0ff400
0def80
0fbc00
19da00
1a9a00
1aec00
3d9800
3d3a00
6fae00
dddc00
700c00
ENDCHAR
STARTCHAR 353b
ENCODING 13627
SWIDTH 960 0
DWIDTH 14 0
BBX 18 14 -2 -2
BITMAP
030c00
030c00
030c00
1fff80
061800
061800
0dfe00
0f4600
3ccc00
18d800
187000
18f000
33b000
761c00
ENDCHAR
STARTCHAR 353c
ENCODING 13628
SWIDTH 960 0
DWIDTH 14 0
BBX 18 14 -2 -2
BITMAP
034000
035fc0
036780
1fb600
06f600
06df80
0dee00
0f5400
3df700
19a800
1ba800
1af800
359800
7b0c00
ENDCHAR
STARTCHAR 353d
ENCODING 13629
SWIDTH 960 0
DWIDTH 14 0
BBX 18 14 -2 -2
BITMAP
036c00
036c00
036c00
1fe800
06df80
07fb00
0ddc00
0f9800
0d9800
7fb000
1b6800
33d800
631800
c60c00
ENDCHAR
STARTCHAR 353e
ENCODING 13630
SWIDTH 960 0
DWIDTH 14 0
BBX 18 14 -2 -2
BITMAP
01b300
019a00
06bfc0
0d1800
0fbf00
1b1800
36ff00
077a00
1e6b00
77fe00
0cf400
0dda00
19ac00
1bcc00
ENDCHAR
STARTCHAR 353f
ENCODING 13631
SWIDTH 960 0
DWIDTH 14 0
BBX 18 14 -2 -2
BITMAP
060000
06ff80
079b00
0ccc00
07cc00
06ff80
0f9a00
1a6c00
3fa800
0cdc00
1ad000
37b000
667000
cc1c00
ENDCHAR
STARTCHAR 3540
ENCODING 13632
SWIDTH 960 0
DWIDTH 14 0
BBX 18 14 -2 -2
BITMAP
030180
030700
033e00
1fac00
01ac00
036c00
06ff00
0ed800
3ecc00
6a9a00
199a00
1bee00
361c00
300c00
ENDCHAR
STARTCHAR 3541
ENCODING 13633
SWIDTH 960 0
DWIDTH 14 0
BBX 18 14 -2 -2
BITMAP
00cc00
07ff80
003000
07fe00
006000
1fff80
03ac00
1e6600
3fff00
0c6c00
0f6800
7c7600
19d400
3b1c00
ENDCHAR
STARTCHAR 3542
ENCODING 13634
SWIDTH 960 0
DWIDTH 14 0
BBX 18 14 -2 -2
BITMAP
031b00
037fc0
030c00
1fbf00
1a9800
1aff80
356a00
3feb00
35ff00
1cd400
1aec00
3fda00
e1ec00
038c00
ENDCHAR
STARTCHAR 3543
ENCODING 13635
SWIDTH 960 0
DWIDTH 14 0
BBX 18 14 -2 -2
BITMAP
000c00
07cc00
007fc0
1fc300
00fe00
0fc600
00cc00
1f7c00
00cc00
3ef800
369800
369800
7ffc00
600000
ENDCHAR
STARTCHAR 3544
ENCODING 13636
SWIDTH 960 0
DWIDTH 14 0
BBX 18 14 -2 -2
BITMAP
003300
079a00
01ffc0
1f1800
00ff00
0e1800
03ff00
1eea00
00db00
3ffe00
35d400
37ba00
7b6c00
6b0c00
ENDCHAR
STARTCHAR 3545
ENCODING 13637
SWIDTH 960 0
DWIDTH 14 0
BBX 18 14 -2 -2
BITMAP
033000
033000
033000
1fff00
06d300
06b500
0daa00
0eb600
3dfe00
19ec00
19d400
1b5c00
369800
71b000
ENDCHAR
STARTCHAR 3546
ENCODING 13638
SWIDTH 960 0
DWIDTH 14 0
BBX 18 14 -2 -2
BITMAP
00cc00
00cc00
0fffc0
039800
030000
07ff00
0db600
1ab600
36a600
1ff400
078c00
1d4c00
766800
067000
ENDCHAR
STARTCHAR 3547
ENCODING 13639
SWIDTH 960 0
DWIDTH 14 0
BBX 18 14 -2 -2
BITMAP
035800
035800
0fff80
06bb00
07ab00
036f00
1fba00
1afe00
1fba00
0cec00
7fac00
0d6c00
186800
183000
ENDCHAR
STARTCHAR 3548
ENCODING 13640
SWIDTH 960 0
DWIDTH 14 0
BBX 18 14 -2 -2
BITMAP
003000
003000
003000
1fff80
006000
006000
1ffe00
000000
0ffc00
181800
181800
181800
3ff000
303000
ENDCHAR
STARTCHAR 3549
ENCODING 13641
SWIDTH 960 0
DWIDTH 14 0
BBX 18 14 -2 -2
BITMAP
003000
003000
006000
1f7f80
1b4000
1bc000
377c00
361800
367000
7cc000
6d8000
630600
030c00
01fc00
ENDCHAR
STARTCHAR 354a
ENCODING 13642
SWIDTH 960 0
DWIDTH 14 0
BBX 18 14 -2 -2
BITMAP
006000
006f80
0ffa80
1acd00
1bf500
1adb00
35ea00
37b600
346000
7ffe00
68c000
63a000
0e3000
381c00
ENDCHAR
STARTCHAR 354b
ENCODING 13643
SWIDTH 960 0
DWIDTH 14 0
BBX 18 14 -2 -2
BITMAP
018c00
018c00
018c00
1fff80
031800
079800
0efe00
0e8000
1afe00
358c00
6d8c00
0d8c00
1bf800
1b1800
ENDCHAR
STARTCHAR 354c
ENCODING 13644
SWIDTH 960 0
DWIDTH 14 0
BBX 18 14 -2 -2
BITMAP
030000
037f00
031a00
1fff80
063b00
07da00
1d7000
1dfe00
1d6a00
3bbc00
6b7400
1b5400
36d800
361800
ENDCHAR
STARTCHAR 354d
ENCODING 13645
SWIDTH 960 0
DWIDTH 14 0
BBX 18 14 -2 -2
BITMAP
000c00
07cc00
000c00
1fff80
001800
0f9800
00fe00
1f0000
00fe00
3e8c00
368c00
368c00
7df800
6d1800
ENDCHAR
STARTCHAR 354e
ENCODING 13646
SWIDTH 960 0
DWIDTH 14 0
BBX 18 14 -2 -2
BITMAP
000600
07f600
018600
030f80
030c00
060c00
0f9800
1dbe00
35a600
1b4c00
1b4c00
1f4c00
31f800
019800
ENDCHAR
STARTCHAR 354f
ENCODING 13647
SWIDTH 960 0
DWIDTH 14 0
BBX 18 14 -2 -2
BITMAP
019800
019800
019800
1fff80
036c00
07cc00
0f1800
0eff00
1a9800
343000
6c3000
0c3000
186000
186000
ENDCHAR
STARTCHAR 3550
ENCODING 13648
SWIDTH 960 0
DWIDTH 14 0
BBX 18 14 -2 -2
BITMAP
000700
03fc00
003000
1fff80
00f000
07ac00
3cc700
01e000
075800
7dbe00
07e000
1eb000
731800
070000
ENDCHAR
STARTCHAR 3551
ENCODING 13649
SWIDTH 960 0
DWIDTH 14 0
BBX 18 14 -2 -2
BITMAP
018000
018f80
018d80
0feb00
031b00
031b00
3ff600
063600
073600
0d6c00
1bb800
7ea000
034000
00c000
ENDCHAR
STARTCHAR 3552
ENCODING 13650
SWIDTH 960 0
DWIDTH 14 0
BBX 18 14 -2 -2
BITMAP
003000
003000
07ffc0
0cc300
19fc00
079800
1db000
01e000
073c00
7ff600
0c3000
0c3000
1fe000
186000
ENDCHAR
STARTCHAR 3553
ENCODING 13651
SWIDTH 960 0
DWIDTH 14 0
BBX 18 14 -2 -2
BITMAP
003000
07b780
06b680
0dfd00
0f6d00
0d6d00
1bfa00
1eda00
1ada00
35d400
357c00
37b000
386000
d86000
ENDCHAR
STARTCHAR 3554
ENCODING 13652
SWIDTH 960 0
DWIDTH 14 0
BBX 18 14 -2 -2
BITMAP
003000
003f80
003000
07ff80
06dd00
07e600
0cfc00
0c0000
1bfe00
1a0000
37fc00
660000
cff800
0c0000
ENDCHAR
STARTCHAR 3555
ENCODING 13653
SWIDTH 960 0
DWIDTH 14 0
BBX 18 14 -2 -2
BITMAP
006300
063300
063600
06ff80
001800
00db00
01b600
3db600
0dfe00
1b6c00
186000
3cc000
678000
c3fc00
ENDCHAR
STARTCHAR 3556
ENCODING 13654
SWIDTH 960 0
DWIDTH 14 0
BBX 18 14 -2 -2
BITMAP
000600
001c00
01f000
030000
030000
03ff00
063000
063000
063000
0c6000
0c6000
0c6000
fffc00
000000
ENDCHAR
STARTCHAR 3557
ENCODING 13655
SWIDTH 960 0
DWIDTH 14 0
BBX 18 14 -2 -2
BITMAP
006000
006000
00c000
00fc00
018c00
031800
061800
0c3000
18f000
01b000
033000
0e1800
381800
e00c00
ENDCHAR
STARTCHAR 3558
ENCODING 13656
SWIDTH 960 0
DWIDTH 14 0
BBX 18 14 -2 -2
BITMAP
01b000
01b000
033000
036000
067c00
1fec00
34d800
0cd800
0d9800
19b000
1b3600
1a3600
343400
381c00
ENDCHAR
STARTCHAR 3559
ENCODING 13657
SWIDTH 960 0
DWIDTH 14 0
BBX 18 14 -2 -2
BITMAP
018c00
018c00
030c00
031800
06ff80
1e1800
347800
0c7800
0cd800
19a800
1b6c00
1a6600
30c000
30c000
ENDCHAR
STARTCHAR 355a
ENCODING 13658
SWIDTH 960 0
DWIDTH 14 0
BBX 18 14 -2 -2
BITMAP
000000
07fe00
00c600
018c00
019800
01de00
038c00
06cc00
0cd800
0cd000
186000
31d000
673000
dc1c00
ENDCHAR
STARTCHAR 355b
ENCODING 13659
SWIDTH 960 0
DWIDTH 14 0
BBX 18 14 -2 -2
BITMAP
000000
00ff00
0fb300
1b6600
1b6c00
1b7f00
36e600
36e600
3eac00
6d6800
633000
0e6800
1b9800
360c00
ENDCHAR
STARTCHAR 355c
ENCODING 13660
SWIDTH 960 0
DWIDTH 14 0
BBX 18 14 -2 -2
BITMAP
003000
003000
07ffc0
0c0300
1bfc00
030c00
061800
07f800
00c000
1ff800
181800
181800
3ff000
303000
ENDCHAR
STARTCHAR 355d
ENCODING 13661
SWIDTH 960 0
DWIDTH 14 0
BBX 18 14 -2 -2
BITMAP
000000
03ff00
000300
000600
07fe00
060600
0c0000
0ffe00
0c0600
180c00
000c00
001800
003000
01e000
ENDCHAR
STARTCHAR 355e
ENCODING 13662
SWIDTH 960 0
DWIDTH 14 0
BBX 18 14 -2 -2
BITMAP
006000
00fc00
039800
0efe00
000600
03fe00
000c00
0ffc00
00c000
1ad800
1acc00
363400
e66c00
03e000
ENDCHAR
STARTCHAR 355f
ENCODING 13663
SWIDTH 960 0
DWIDTH 14 0
BBX 18 14 -2 -2
BITMAP
018c00
01ac00
01b800
1fef80
033300
1bb600
1ad600
1b3400
1f1c00
1d3000
353800
6c6800
19d800
3b0c00
ENDCHAR
STARTCHAR 3560
ENCODING 13664
SWIDTH 960 0
DWIDTH 14 0
BBX 18 14 -2 -2
BITMAP
018000
01bfc0
018c00
1fe800
031800
07bf00
0ea600
0ea600
1ac600
340c00
6c0c00
0c0c00
181800
187000
ENDCHAR
STARTCHAR 3561
ENCODING 13665
SWIDTH 960 0
DWIDTH 14 0
BBX 18 14 -2 -2
BITMAP
003600
003300
003300
1fff80
006000
007300
1ce600
06d400
03d800
06b000
1d9800
718c00
030c00
070000
ENDCHAR
STARTCHAR 3562
ENCODING 13666
SWIDTH 960 0
DWIDTH 14 0
BBX 18 14 -2 -2
BITMAP
060000
037f00
036300
18c600
0ccc00
0cef00
01c600
0dac00
19a800
1b6800
363000
6ce800
699800
d70c00
ENDCHAR
STARTCHAR 3563
ENCODING 13667
SWIDTH 960 0
DWIDTH 14 0
BBX 18 14 -2 -2
BITMAP
030c00
018c00
018c00
18ff80
0c0600
0cc600
00cc00
06cc00
0ccc00
0cd800
18d000
306000
6ffc00
600000
ENDCHAR
STARTCHAR 3564
ENCODING 13668
SWIDTH 960 0
DWIDTH 14 0
BBX 18 14 -2 -2
BITMAP
003000
007c00
03d800
0e7000
00d800
03ac00
3e0700
00cc00
0cd800
19d000
336000
0e3000
383000
e01c00
ENDCHAR
STARTCHAR 3565
ENCODING 13669
SWIDTH 960 0
DWIDTH 14 0
BBX 18 14 -2 -2
BITMAP
000d00
000d80
0fcd80
067f80
061800
06da00
3f5a00
0cdc00
0c3400
1aec00
1dac00
776600
00c000
01c000
ENDCHAR
STARTCHAR 3566
ENCODING 13670
SWIDTH 960 0
DWIDTH 14 0
BBX 18 14 -2 -2
BITMAP
003000
003000
07ffc0
0db300
19b000
033300
067e00
0cc000
1ff000
036000
036000
066600
1c6c00
703c00
ENDCHAR
STARTCHAR 3567
ENCODING 13671
SWIDTH 960 0
DWIDTH 14 0
BBX 18 14 -2 -2
BITMAP
003000
07ffc0
0dd180
1b3300
069e00
07be00
0d8c00
0fbc00
0fa000
1b7c00
7f4c00
0f0c00
3a1800
ee7000
ENDCHAR
STARTCHAR 3568
ENCODING 13672
SWIDTH 960 0
DWIDTH 14 0
BBX 18 14 -2 -2
BITMAP
018c00
018c00
03ffc0
06b400
0ce600
1bfc00
031800
033000
03bc00
071800
0db000
38e000
676000
dc3c00
ENDCHAR
STARTCHAR 3569
ENCODING 13673
SWIDTH 960 0
DWIDTH 14 0
BBX 18 14 -2 -2
BITMAP
018000
019f80
03d980
1ed300
06b600
07b600
0db600
3fb600
0c7400
36d400
355800
6db800
db5800
1a8c00
ENDCHAR
STARTCHAR 356a
ENCODING 13674
SWIDTH 960 0
DWIDTH 14 0
BBX 18 14 -2 -2
BITMAP
018300
019b00
03db00
1ed600
06b600
07b600
0dac00
3f6c00
0c6f00
36f800
35d800
6d1800
d83000
183000
ENDCHAR
STARTCHAR 356b
ENCODING 13675
SWIDTH 960 0
DWIDTH 14 0
BBX 18 14 -2 -2
BITMAP
018600
018600
03ce00
1eda00
06b300
07bf80
0d8000
3f8000
0c7e00
36cc00
354c00
6d4c00
d9f800
199800
ENDCHAR
STARTCHAR 356c
ENCODING 13676
SWIDTH 960 0
DWIDTH 14 0
BBX 18 14 -2 -2
BITMAP
060000
06ff00
06c300
0d8600
0d8600
0d8600
1bfc00
1b0c00
1b0c00
361800
361800
37f800
6c3000
600000
ENDCHAR
STARTCHAR 356d
ENCODING 13677
SWIDTH 960 0
DWIDTH 14 0
BBX 18 14 -2 -2
BITMAP
003000
01b000
01b000
036000
07fe00
0c6000
18c000
00c000
3fff00
018000
018000
018000
030000
030000
ENDCHAR
STARTCHAR 356e
ENCODING 13678
SWIDTH 960 0
DWIDTH 14 0
BBX 18 14 -2 -2
BITMAP
003000
003000
003000
07fe00
006000
006000
00c000
3fff00
018000
036000
063000
1df800
771800
001800
ENDCHAR
STARTCHAR 356f
ENCODING 13679
SWIDTH 960 0
DWIDTH 14 0
BBX 18 14 -2 -2
BITMAP
000000
03ff80
030180
07ff00
063300
063000
0fff00
0c6000
186000
1bf800
361800
661800
cff000
0c3000
ENDCHAR
STARTCHAR 3570
ENCODING 13680
SWIDTH 960 0
DWIDTH 14 0
BBX 18 14 -2 -2
BITMAP
000000
07ff80
060000
0c0000
0ffc00
0c0c00
181800
181800
1ff800
303000
300000
300000
7ffc00
600000
ENDCHAR
STARTCHAR 3571
ENCODING 13681
SWIDTH 960 0
DWIDTH 14 0
BBX 18 14 -2 -2
BITMAP
018000
01bfc0
01b000
1fe000
037f00
036300
06c600
07c600
3efe00
0d8c00
0d8000
0d8000
1bfc00
3b0000
ENDCHAR
STARTCHAR 3572
ENCODING 13682
SWIDTH 960 0
DWIDTH 14 0
BBX 18 14 -2 -2
BITMAP
030000
036f00
036d00
1f5a00
06ea00
06aa00
0dd400
0ed400
3dcc00
1b5a00
1a9a00
1d8e00
30c000
707c00
ENDCHAR
STARTCHAR 3573
ENCODING 13683
SWIDTH 960 0
DWIDTH 14 0
BBX 18 14 -2 -2
BITMAP
036300
01b300
01b600
1fff80
019800
073c00
0de600
38c300
0ffc00
018000
3ffc00
018000
030000
070000
ENDCHAR
STARTCHAR 3574
ENCODING 13684
SWIDTH 960 0
DWIDTH 14 0
BBX 18 14 -2 -2
BITMAP
030000
01bf80
0da000
0cfe00
0cc600
037e00
068000
0dfe00
38c000
6ffe00
03c000
1eb000
f31c00
030000
ENDCHAR
STARTCHAR 3575
ENCODING 13685
SWIDTH 960 0
DWIDTH 14 0
BBX 18 14 -2 -2
BITMAP
003000
003f80
003000
07ff80
067d00
07e300
0cfe00
0cd000
1ad600
1aac00
36a800
71a000
dffc00
000000
ENDCHAR
STARTCHAR 3576
ENCODING 13686
SWIDTH 960 0
DWIDTH 14 0
BBX 18 14 -2 -2
BITMAP
001800
07d800
001800
1fff00
006800
0fd800
003000
1fff00
003000
3e6000
366000
366000
7cc000
6cc000
ENDCHAR
STARTCHAR 3577
ENCODING 13687
SWIDTH 960 0
DWIDTH 14 0
BBX 18 14 -2 -2
BITMAP
000000
07efc0
066800
0cd000
0fdf00
033300
1a6600
1ba600
1a7e00
34cc00
34c000
374000
79fc00
e18000
ENDCHAR
STARTCHAR 3578
ENCODING 13688
SWIDTH 960 0
DWIDTH 14 0
BBX 18 14 -2 -2
BITMAP
018000
01bf80
035180
06e300
0cff00
1bac00
06ff00
3fd800
06d800
35fc00
1ecc00
1dcc00
1ef800
f19800
ENDCHAR
ENDFONT
